<svg viewBox="0 0 3000 2171" id="svgContainer" xmlns="http://www.w3.org/2000/svg"><path d="M 1962.438 545.500 C 1962.437 560.350, 1962.576 566.564, 1962.747 559.310 C 1962.918 552.055, 1962.918 539.905, 1962.748 532.310 C 1962.578 524.714, 1962.438 530.650, 1962.438 545.500 M 1575.189 625.250 C 1575.085 634.462, 1575.338 642.001, 1575.750 642.002 C 1576.162 642.003, 1576.382 636.941, 1576.238 630.752 C 1575.760 610.273, 1575.381 608.280, 1575.189 625.250 M 2639 1077.703 C 2629.358 1078.287, 2588.972 1081.813, 2539.188 1086.419 C 2512.617 1088.877, 2473.746 1092.140, 2452.809 1093.671 L 2414.743 1096.454 2415.253 1116.977 C 2415.588 1130.422, 2416.709 1145.087, 2418.504 1159.500 C 2420.011 1171.600, 2421.361 1181.635, 2421.505 1181.800 C 2421.648 1181.964, 2433.181 1181.192, 2447.133 1180.084 C 2461.085 1178.976, 2477.482 1177.769, 2483.571 1177.403 L 2494.643 1176.738 2496.302 1188.619 C 2498.986 1207.842, 2502.649 1248.576, 2508.475 1324 C 2514.407 1400.792, 2521.069 1484.418, 2522.167 1495.876 L 2523.354 1508.252 2543.927 1507.590 C 2578.177 1506.488, 2600.631 1504.500, 2608.904 1501.839 L 2612.308 1500.743 2611.683 1476.122 C 2610.849 1443.251, 2608.337 1405.487, 2601.496 1323 C 2591.807 1206.174, 2590.437 1176.887, 2594.406 1171.459 C 2596.624 1168.426, 2605.887 1166.928, 2628.277 1165.983 C 2640.254 1165.477, 2651.758 1164.604, 2653.842 1164.043 C 2658.074 1162.903, 2661.334 1159.907, 2662.933 1155.685 C 2666.001 1147.588, 2661.085 1098.357, 2655.794 1084.189 C 2653.746 1078.705, 2651.265 1076.797, 2646.685 1077.185 C 2645.483 1077.287, 2642.025 1077.520, 2639 1077.703 M 2298.500 1098.700 C 2249.828 1103.121, 2208.228 1134.578, 2192.967 1178.500 C 2181.626 1211.139, 2184.604 1251.674, 2200.680 1283.500 C 2213.051 1307.990, 2233.418 1325.803, 2285.185 1357.408 C 2308.929 1371.906, 2325.916 1387.021, 2331.700 1398.797 C 2334.105 1403.697, 2334.498 1405.698, 2334.486 1413 C 2334.474 1420.250, 2334.083 1422.235, 2331.825 1426.500 C 2327.797 1434.108, 2322.367 1439.788, 2316.134 1442.914 C 2296.657 1452.681, 2266.742 1451.941, 2232.697 1440.848 C 2217.768 1435.984, 2217.542 1436.048, 2215.985 1445.557 C 2215.450 1448.826, 2215.009 1466.879, 2215.006 1485.676 L 2215 1519.852 2225.712 1523.990 C 2246.036 1531.840, 2258.843 1533.459, 2294.913 1532.737 C 2328.264 1532.070, 2345.412 1529.277, 2359.500 1522.218 C 2373.847 1515.030, 2392.164 1499.343, 2403.515 1484.523 C 2419.462 1463.704, 2428.494 1439.316, 2429.636 1414 C 2431.472 1373.284, 2413.939 1335.803, 2379.743 1307.340 C 2368.002 1297.568, 2359.347 1291.838, 2339.866 1280.941 C 2283.572 1249.452, 2267.348 1229.578, 2278.338 1205.572 C 2281.950 1197.683, 2287.864 1191.790, 2296.282 1187.694 C 2310.620 1180.717, 2323.976 1180.164, 2350.941 1185.429 C 2377.292 1190.574, 2379.361 1190.730, 2382.290 1187.801 C 2384.680 1185.411, 2384.709 1185.139, 2385.254 1160.443 C 2385.625 1143.611, 2386.384 1131.999, 2387.586 1124.734 C 2389.349 1114.078, 2389.347 1113.941, 2387.342 1111.234 C 2383.631 1106.223, 2367.255 1101.309, 2346.789 1099.065 C 2337.820 1098.081, 2307.805 1097.854, 2298.500 1098.700 M 2002.500 1128.070 C 1970.854 1129.013, 1963.878 1130.461, 1960.627 1136.759 C 1958.757 1140.383, 1958.466 1142.325, 1940.999 1267.500 C 1932.711 1326.900, 1921.236 1408.350, 1915.501 1448.500 C 1904.065 1528.544, 1902.243 1542.307, 1901.798 1552 L 1901.500 1558.500 1911 1558.813 C 1922.402 1559.189, 1961.521 1556.368, 1971.930 1554.419 C 1988.801 1551.260, 1991.665 1545.961, 1996.479 1509 C 1997.876 1498.275, 1999.722 1487.600, 2000.581 1485.278 C 2003.572 1477.199, 2009.998 1474.051, 2027.731 1471.976 C 2043.583 1470.122, 2083.444 1467.239, 2084.156 1467.895 C 2084.517 1468.228, 2088.193 1481.141, 2092.326 1496.591 C 2102.517 1534.696, 2104.756 1541.799, 2106.943 1542.970 C 2110.295 1544.764, 2166.755 1539.749, 2187.250 1535.837 C 2194.232 1534.505, 2194.185 1534.814, 2189.945 1518.358 C 2182.493 1489.431, 2179.584 1480.054, 2127.329 1316.500 C 2103.957 1243.350, 2080.971 1171.350, 2076.248 1156.500 C 2071.525 1141.650, 2067.400 1129.219, 2067.080 1128.876 C 2066.109 1127.832, 2026.905 1127.343, 2002.500 1128.070 M 1808.500 1142.069 C 1803 1142.572, 1783.200 1144.348, 1764.500 1146.015 C 1688.232 1152.814, 1647.349 1157.251, 1645.692 1158.908 C 1644.120 1160.480, 1646.905 1204.151, 1654.500 1297 C 1656.952 1326.975, 1661.214 1380.300, 1663.972 1415.500 C 1671.732 1514.562, 1676.474 1564.971, 1678.836 1573.500 L 1679.666 1576.500 1696.583 1576.318 C 1705.996 1576.216, 1734.791 1574.351, 1761.500 1572.112 C 1787.900 1569.899, 1818.950 1567.596, 1830.500 1566.994 C 1868.961 1564.988, 1876.025 1563.695, 1878.083 1558.282 C 1880.855 1550.992, 1875.835 1501.980, 1870.502 1484.250 C 1868.640 1478.062, 1871.447 1478.458, 1843.767 1480.482 C 1805.338 1483.292, 1761.779 1486.113, 1761.531 1485.807 C 1761.394 1485.638, 1760.309 1478.075, 1759.121 1469 C 1756.314 1447.563, 1755.005 1429.054, 1755.002 1410.750 L 1755 1396 1771.750 1395.995 C 1804.556 1395.986, 1839.583 1392.469, 1845.505 1388.589 C 1848.986 1386.308, 1849.495 1382.991, 1848.120 1371.536 C 1846.264 1356.071, 1845.061 1336.852, 1845.029 1322.149 L 1845 1308.797 1838.250 1309.419 C 1820.845 1311.021, 1772.297 1314.112, 1762 1314.274 C 1749.570 1314.468, 1746.335 1313.570, 1745.599 1309.721 C 1745.366 1308.500, 1744.181 1294.580, 1742.967 1278.788 C 1740.776 1250.280, 1740.866 1240.933, 1743.365 1237.515 C 1745.275 1234.903, 1754.030 1233.082, 1770 1231.975 C 1807.510 1229.374, 1814.479 1228.704, 1828.363 1226.367 C 1836.538 1224.991, 1844.193 1223.497, 1845.373 1223.048 L 1847.521 1222.232 1846.318 1198.866 C 1845.056 1174.355, 1843.302 1151.425, 1842.330 1146.720 C 1842.014 1145.191, 1840.802 1143.429, 1839.637 1142.806 C 1836.831 1141.304, 1820.958 1140.928, 1808.500 1142.069 M 1431 1174.100 C 1415.398 1175.031, 1371.239 1179.479, 1359.500 1181.301 L 1351.500 1182.542 1351.756 1192.521 C 1352.076 1205.017, 1356.343 1260.746, 1364.005 1352.500 C 1370.442 1429.575, 1376.315 1505.271, 1378.009 1533 C 1379.970 1565.103, 1382.713 1589.484, 1385.055 1595.645 C 1387.326 1601.618, 1398.862 1602.329, 1439.178 1598.980 C 1507.441 1593.309, 1542.883 1586.659, 1565.447 1575.287 C 1580.227 1567.839, 1595.929 1553.468, 1606.189 1538 C 1620.782 1515.998, 1626.004 1498.233, 1625.996 1470.619 C 1625.986 1436.099, 1616.490 1411.147, 1594.899 1388.908 C 1583.695 1377.367, 1576.273 1372.687, 1565.750 1370.526 C 1563.984 1370.164, 1563 1369.321, 1563 1368.171 C 1563 1367.186, 1566.999 1361.743, 1571.888 1356.075 C 1584.773 1341.134, 1591.711 1328.269, 1596.066 1311.242 C 1606.506 1270.429, 1593.605 1224.075, 1564.289 1197.061 C 1555.319 1188.797, 1545.399 1182.537, 1537.254 1180.002 C 1518.213 1174.076, 1473.235 1171.577, 1431 1174.100 M 2019.607 1250.500 C 2019.219 1255.450, 2018.037 1266.250, 2016.980 1274.500 C 2012.719 1307.775, 2006.023 1377.190, 2006.007 1388.250 L 2006 1393 2015.250 1392.983 C 2025.571 1392.963, 2040.679 1391.577, 2048.937 1389.891 C 2052.635 1389.136, 2055.308 1387.846, 2057.298 1385.856 C 2060.043 1383.111, 2060.180 1382.598, 2059.540 1377.478 C 2057.237 1359.038, 2029.782 1262.134, 2022.149 1245.500 L 2020.313 1241.500 2019.607 1250.500 M 1453.064 1252.330 C 1447.105 1253.902, 1446.735 1255.527, 1447.458 1277 C 1448.489 1307.615, 1451.727 1336.408, 1454.640 1340.853 C 1456.145 1343.150, 1456.603 1343.244, 1463.862 1342.730 C 1472.880 1342.092, 1487.918 1337.455, 1496.460 1332.678 C 1503.367 1328.815, 1506.065 1324.513, 1508.168 1314.008 C 1509.873 1305.492, 1509.835 1286.956, 1508.099 1280 C 1504.447 1265.370, 1495.128 1255.536, 1481.715 1252.158 C 1475.892 1250.692, 1458.891 1250.794, 1453.064 1252.330 M 1459.011 1418.750 C 1459.018 1420.263, 1460.141 1433.425, 1461.508 1448 C 1462.875 1462.575, 1464.279 1481.925, 1464.629 1491 C 1465.396 1510.921, 1466.173 1513.431, 1472.066 1515.018 C 1481.528 1517.566, 1505.710 1512.574, 1518.690 1505.394 C 1530.272 1498.987, 1533.428 1492.026, 1534.655 1470.183 C 1535.995 1446.313, 1529.942 1430.430, 1516.501 1422.553 C 1507.983 1417.561, 1498.772 1416, 1477.840 1416 L 1459 1416 1459.011 1418.750 M 432.422 1441 C 432.422 1452.275, 432.568 1456.888, 432.746 1451.250 C 432.924 1445.612, 432.924 1436.388, 432.746 1430.750 C 432.568 1425.112, 432.422 1429.725, 432.422 1441" stroke="none" fill="#ff5e00" fill-rule="evenodd"></path><path d="M 1378.414 105.151 C 1345.286 106.556, 1305.716 115.975, 1278.330 128.974 C 1224.609 154.472, 1176.181 216.089, 1155.490 285.268 C 1153.685 291.306, 1152.499 293.813, 1151.684 293.319 C 1151.033 292.925, 1147.191 290.450, 1143.148 287.818 C 1125.812 276.537, 1104.737 268.102, 1083.500 263.945 C 1069.192 261.144, 1037.234 260.173, 1018.526 261.971 C 939.516 269.565, 875.181 306.637, 835.685 367.333 C 822.741 387.224, 811.281 414.894, 806.546 437.691 C 803.446 452.617, 801.861 473.728, 801.294 507.664 C 800.981 526.455, 800.387 542.373, 799.976 543.038 C 799.432 543.919, 796.004 542.876, 787.364 539.201 C 771.231 532.337, 759.168 528.465, 744.150 525.331 C 733.377 523.082, 728.977 522.688, 714.500 522.676 C 703.264 522.666, 694.279 523.215, 688 524.293 C 643.567 531.925, 599.664 554.822, 566.272 587.779 C 552.996 600.881, 545.682 609.991, 537.497 623.619 C 528.072 639.312, 522.879 657.094, 516.044 697.082 C 504.500 764.613, 494.511 870.993, 496.379 906.500 C 499.083 957.887, 519.622 1004.891, 571.231 1077.801 C 575.631 1084.017, 579.026 1089.307, 578.776 1089.558 C 578.190 1090.143, 545.347 1093.010, 488 1097.483 C 379.159 1105.971, 319.946 1111.811, 294 1116.616 C 268.410 1121.356, 238.894 1138.635, 216.905 1161.747 C 197.138 1182.524, 181.609 1212.830, 176.293 1241 C 173.707 1254.702, 173.966 1298.369, 176.842 1333.500 C 178.013 1347.800, 182.138 1398.425, 186.008 1446 C 203.501 1661.005, 208.156 1703.890, 216.648 1728.287 C 232.959 1775.148, 275.772 1817.258, 317.883 1827.860 C 330.873 1831.131, 346.294 1832.325, 366 1831.586 C 414.332 1829.772, 645.509 1812.523, 762.500 1802 C 780.650 1800.367, 811.385 1797.659, 830.799 1795.982 L 866.098 1792.932 868.916 1795.216 C 870.465 1796.472, 879.331 1804.645, 888.617 1813.377 C 974.328 1893.981, 1048.511 1930.397, 1150 1941.691 C 1169.171 1943.825, 1225.746 1944.084, 1248.500 1942.143 C 1290.197 1938.585, 1327.961 1933.490, 1368 1926.020 C 1396.282 1920.743, 1421.146 1919.184, 1449 1920.943 C 1483.896 1923.146, 1508.075 1927.332, 1562 1940.509 C 1616.851 1953.912, 1648.026 1959.504, 1682.299 1962.088 C 1703.160 1963.661, 1748.649 1962.737, 1779 1960.124 C 1791.925 1959.012, 1807.980 1957.792, 1814.677 1957.413 L 1826.855 1956.725 1837.177 1963.431 C 1879.894 1991.179, 2033.952 2052.725, 2093.897 2065.991 C 2130.770 2074.150, 2181.956 2067.946, 2221.500 2050.523 C 2252.408 2036.905, 2274.545 2021.610, 2299.577 1996.577 C 2326.573 1969.582, 2342.905 1945.097, 2358.327 1908.500 C 2377.630 1862.692, 2385.367 1820.526, 2382.894 1774.618 C 2381.313 1745.266, 2374.875 1712.419, 2365.050 1683.578 C 2363.378 1678.671, 2362.252 1674.415, 2362.547 1674.120 C 2362.842 1673.825, 2379.152 1672.338, 2398.791 1670.814 C 2583.626 1656.480, 2694.115 1645.683, 2726 1638.841 C 2737.401 1636.395, 2751.745 1629.368, 2766 1619.246 C 2777.551 1611.044, 2802.547 1586.533, 2810.699 1575.415 C 2826.666 1553.637, 2834.723 1529.896, 2837.036 1497.803 C 2838.658 1475.299, 2837.319 1448.419, 2830.967 1376 C 2825.842 1317.567, 2818.899 1233.632, 2814.507 1177 C 2803.115 1030.132, 2797.206 1009.892, 2754.649 971.961 C 2726.769 947.111, 2709.959 938.477, 2679.470 933.346 C 2670.313 931.805, 2663.128 931.508, 2636 931.548 C 2599.462 931.602, 2598.693 931.649, 2496.227 940.136 C 2455.378 943.520, 2421.717 946.050, 2421.426 945.760 C 2421.136 945.469, 2422.734 935.842, 2424.978 924.366 C 2443.924 827.491, 2456.014 718.151, 2453.072 670.291 C 2450.986 636.338, 2446.419 617.313, 2433.561 589 C 2421.294 561.989, 2407.928 540.531, 2339.648 438.238 C 2310.374 394.382, 2278.846 346.800, 2269.586 332.500 C 2250.560 303.120, 2230.535 274.703, 2219.743 261.772 C 2197.428 235.034, 2164.424 213.754, 2124.869 200.600 C 2096.219 191.073, 2074.692 187.605, 2044.500 187.654 C 2008.607 187.712, 1973.731 195.573, 1943.288 210.466 C 1905.485 228.960, 1870.043 260.682, 1787.649 349.767 C 1770.727 368.063, 1748.921 391.063, 1739.191 400.878 C 1722.266 417.949, 1721.262 418.779, 1716 420.033 C 1712.975 420.754, 1707.594 421.379, 1704.042 421.422 L 1697.584 421.500 1691.301 409 C 1679.623 385.766, 1664.118 348.158, 1650.383 309.751 C 1635.717 268.741, 1622.759 242.335, 1602.904 213 C 1571.737 166.950, 1534.625 134.621, 1496.864 120.624 C 1465.053 108.834, 1422.537 103.280, 1378.414 105.151 M 1370.500 134.619 C 1341.984 137.556, 1307.746 146.886, 1288 157.101 C 1253.542 174.927, 1220.492 211.109, 1199.033 254.500 C 1188.853 275.085, 1183.224 291.995, 1177.127 320.309 C 1174.425 332.854, 1171.941 343.392, 1171.606 343.727 C 1170.592 344.741, 1166.575 342.112, 1154.258 332.374 C 1114.341 300.814, 1092.512 291.792, 1052.433 290.290 C 965.060 287.015, 886.648 329.574, 851.219 399.500 C 833.990 433.504, 831.427 449.002, 830.021 527.638 C 829.182 574.570, 828.487 590, 827.211 590 C 826.919 590, 814.940 584.426, 800.590 577.613 C 771.441 563.774, 759.934 559.207, 744.228 555.243 C 734.404 552.763, 731.858 552.534, 714 552.518 C 698.658 552.504, 692.688 552.896, 686 554.359 C 656.439 560.824, 623.507 577.302, 598.500 598.142 C 581.283 612.489, 565.199 631.941, 558.046 647.067 C 552.649 658.478, 546.603 687.615, 540.007 734 C 529.999 804.375, 523.909 880.800, 526.049 909.168 C 529.082 949.386, 545.175 987.318, 582.401 1042 C 614.779 1089.559, 627.921 1110.078, 627.986 1113.171 C 628.008 1114.213, 623.986 1114.827, 603 1116.982 C 577.956 1119.554, 538.609 1122.901, 473.500 1127.999 C 371.370 1135.994, 312.147 1142.131, 294.500 1146.547 C 285.998 1148.674, 268.029 1157.713, 257.777 1165.020 C 248.126 1171.897, 235.412 1184.276, 228.525 1193.500 C 217.581 1208.157, 208.361 1228.660, 205.296 1245.154 C 203.214 1256.363, 203.012 1290.457, 204.883 1315 C 206.751 1339.505, 221.718 1523.790, 225.024 1563 C 232.610 1652.955, 238.944 1703.741, 244.505 1719.188 C 257.543 1755.408, 293.430 1791.436, 324.500 1799.497 C 334.708 1802.145, 353.593 1803.080, 374.448 1801.970 C 430.394 1798.992, 637.380 1783.590, 724 1775.959 C 825.878 1766.984, 872.299 1763, 875.010 1763 C 877.757 1763, 880.606 1765.291, 895.846 1779.750 C 935.355 1817.234, 955.354 1833.772, 983.593 1852.307 C 1061.514 1903.454, 1139.799 1921.121, 1250 1912.428 C 1283.892 1909.754, 1324.549 1904.315, 1358.500 1897.912 C 1402.578 1889.599, 1440.880 1888.895, 1488.500 1895.524 C 1511.719 1898.756, 1529.841 1902.486, 1568.013 1911.887 C 1656.698 1933.730, 1698.724 1937.618, 1774.500 1930.993 C 1802.319 1928.561, 1827.871 1927.454, 1834.218 1928.405 C 1837.682 1928.925, 1841.737 1931.011, 1849.865 1936.454 C 1893.564 1965.717, 2061.124 2032.060, 2109.024 2039.064 C 2120.842 2040.792, 2151.615 2039.752, 2165 2037.171 C 2199.076 2030.603, 2228.327 2017.475, 2256.500 1996.108 C 2268.563 1986.959, 2288.141 1967.648, 2297.162 1956 C 2324.078 1921.248, 2343.957 1874.397, 2351.687 1827.500 C 2354.511 1810.365, 2354.253 1769.426, 2351.199 1750.311 C 2347.024 1724.170, 2339.515 1697.297, 2328.382 1668.652 C 2325.422 1661.035, 2323 1653.777, 2323 1652.523 C 2323 1647.625, 2326.583 1647.101, 2398.500 1641.475 C 2582.414 1627.089, 2692.175 1616.435, 2719.500 1610.318 C 2734.066 1607.057, 2752.261 1594.948, 2771.045 1576.015 C 2793.373 1553.510, 2803.873 1532.873, 2807.155 1505.046 C 2808.578 1492.979, 2807.682 1446.159, 2805.555 1421.500 C 2804.701 1411.600, 2802.431 1385.725, 2800.510 1364 C 2796.282 1316.182, 2790.288 1243.479, 2785.504 1182 C 2778.481 1091.742, 2774.904 1063.246, 2767.812 1041.046 C 2762.002 1022.861, 2756.446 1014.463, 2739.346 998.019 C 2709.299 969.124, 2692.647 962.068, 2650.523 960.383 C 2625.621 959.387, 2593.725 961.265, 2495.500 969.509 C 2401.205 977.424, 2386 978.287, 2386 975.725 C 2386 973.559, 2390.837 946.635, 2395.525 922.702 C 2406.568 866.330, 2415.977 801.500, 2421.677 742.500 C 2422.915 729.684, 2423.428 714.996, 2423.458 691.500 C 2423.496 661.481, 2423.296 657.380, 2421.245 646.097 C 2415.878 616.572, 2403.327 589.303, 2373.793 543 C 2368.005 533.925, 2338.346 489.070, 2307.884 443.323 C 2277.423 397.576, 2245.182 348.976, 2236.238 335.323 C 2217.770 307.132, 2200.937 284.152, 2191.167 273.792 C 2172.187 253.665, 2141.127 235.592, 2109.231 226.117 C 2086.942 219.495, 2068.456 216.838, 2045 216.884 C 2006.458 216.959, 1967.893 227.741, 1938.762 246.585 C 1909.005 265.835, 1878.165 295.157, 1810.531 368.506 C 1797.348 382.803, 1775.523 405.585, 1762.031 419.132 C 1739.831 441.424, 1736.963 443.961, 1731.847 445.832 C 1722.066 449.409, 1709.498 451.272, 1698.500 450.777 C 1681.620 450.016, 1677.413 446.470, 1665.548 423 C 1652.686 397.559, 1637.289 360.467, 1623.001 320.500 C 1608.879 280.998, 1597.591 257.846, 1578.877 230 C 1559.307 200.880, 1536.980 177.566, 1514 162.253 C 1493.980 148.912, 1472.652 141.759, 1437 136.429 C 1426.908 134.920, 1379.978 133.643, 1370.500 134.619 M 1384.983 196.129 C 1354.882 197.771, 1326.998 205, 1306.466 216.482 C 1280.589 230.953, 1246.482 284.145, 1240.877 318.772 C 1239.153 329.420, 1240.090 331, 1248.130 331 C 1251.525 331, 1261.547 330.048, 1270.401 328.885 C 1300.648 324.911, 1337.988 328.205, 1380.862 338.628 C 1420.037 348.152, 1451.515 359.779, 1484.706 376.983 C 1504.782 387.390, 1516.550 395.346, 1531.613 408.696 C 1535.525 412.163, 1539.013 415, 1539.363 415 C 1539.713 415, 1540 408.771, 1540 401.157 C 1540 393.543, 1540.294 381.850, 1540.653 375.172 L 1541.306 363.031 1546.744 374.765 C 1570.540 426.110, 1574.812 453.698, 1575.119 558 C 1575.194 583.575, 1575.535 612.803, 1575.878 622.952 L 1576.500 641.404 1583.126 633.452 C 1591.826 623.010, 1602.205 606.962, 1609.398 592.828 C 1612.586 586.563, 1616.504 579.876, 1618.105 577.969 C 1620.874 574.668, 1621.085 574.590, 1622.450 576.362 C 1624.688 579.267, 1625.347 588.078, 1624.668 606 C 1624.026 622.957, 1622.096 638.571, 1619.606 646.954 C 1616.398 657.756, 1604.909 679.228, 1592.025 698.497 C 1575.392 723.374, 1571.964 732.041, 1571.232 751.072 C 1570.650 766.171, 1571.605 775.168, 1578.016 815 C 1586.702 868.959, 1588.736 888.023, 1590.018 927.500 C 1590.878 953.959, 1591.793 962.136, 1594.049 963.530 C 1594.585 963.861, 1605.030 960.092, 1617.262 955.155 C 1655.195 939.842, 1683.547 930.178, 1732.187 915.980 C 1775.558 903.321, 1800.227 894.189, 1832 879.033 C 1852.073 869.457, 1869.418 862, 1871.616 862 C 1875.003 862, 1872.188 866.052, 1861.250 876.918 C 1843.541 894.512, 1815.016 918.012, 1796 930.674 C 1791.875 933.421, 1782.425 938.948, 1775 942.956 C 1728.471 968.072, 1705.826 985.820, 1689.347 1010.081 C 1682.152 1020.675, 1676 1030.999, 1676 1032.479 C 1676 1034.513, 1805.901 1025.759, 1891.051 1017.987 C 1935.634 1013.918, 1933 1014.371, 1933 1010.776 C 1933 1005.342, 1920.772 954.315, 1914.423 933.250 C 1912.139 925.676, 1911.723 925, 1909.342 925 C 1906.118 925, 1897.070 929.544, 1887.658 935.889 C 1871.343 946.888, 1854.656 955, 1848.343 955 C 1843.421 955, 1844.782 952.994, 1871.300 921.164 C 1909.643 875.140, 1922.716 851.457, 1938.512 799.405 C 1943.829 781.883, 1945.368 773.940, 1943.758 772.330 C 1941.438 770.010, 1931.929 768.915, 1906 767.985 C 1880.480 767.070, 1868.358 765.663, 1853.652 761.910 C 1830.089 755.897, 1810.155 745.061, 1799.750 732.607 C 1793.054 724.593, 1794.228 724.381, 1813.604 730.106 C 1834.689 736.336, 1847.405 739.004, 1859.250 739.683 C 1874.360 740.550, 1873.953 739.565, 1853.500 725.755 C 1812.771 698.255, 1789.222 673.274, 1771.973 639.270 C 1763.850 623.255, 1765.326 622.196, 1779.104 634.155 C 1792.535 645.811, 1801.087 652.060, 1812.500 658.555 C 1841.839 675.251, 1881.847 689.109, 1913.514 693.544 C 1927.648 695.524, 1947.102 695.104, 1959.500 692.551 C 1976.995 688.949, 1991.254 682.535, 1993.057 677.458 C 1993.576 675.995, 1991.008 669.044, 1984.006 652.958 C 1972.694 626.973, 1968.590 615.852, 1965.939 604 C 1962.853 590.197, 1961.690 565.992, 1962.374 529.786 C 1963.324 479.528, 1965.181 462.724, 1972.191 440.994 C 1974.490 433.868, 1976.555 428.222, 1976.780 428.447 C 1977.006 428.672, 1978.260 441.601, 1979.567 457.178 C 1982.138 487.810, 1984.944 510.002, 1988.142 525 C 1992.961 547.595, 2013.299 589.911, 2040.067 633.037 C 2045.954 642.521, 2083.562 697.789, 2085.532 699.850 C 2085.715 700.042, 2089.674 692.392, 2094.329 682.850 C 2103.680 663.680, 2111.320 652.421, 2122.396 641.488 C 2129.599 634.379, 2135.231 630.768, 2137.662 631.701 C 2139.861 632.544, 2139.234 634.867, 2134.428 643.684 C 2131.914 648.296, 2128.747 655.317, 2127.390 659.285 C 2122.380 673.942, 2114.985 706.279, 2109.619 737 C 2092.617 834.341, 2092.996 895.114, 2110.942 949 C 2126.055 994.379, 2150.847 1025.689, 2185.050 1042.593 C 2208.726 1054.294, 2250.278 1056.217, 2275.908 1046.799 C 2281.469 1044.755, 2301.372 1034.039, 2300.754 1033.421 C 2300.576 1033.243, 2291.671 1032.370, 2280.965 1031.481 C 2248.962 1028.823, 2233.377 1024.952, 2213.910 1014.827 C 2201.437 1008.340, 2192.282 1001.331, 2176.257 986 L 2163.192 973.500 2165.063 947 C 2168.095 904.049, 2171.006 884.874, 2177.576 864.578 C 2186.530 836.919, 2202.076 817.498, 2223.317 807.435 C 2236.628 801.128, 2244.240 799.677, 2264.500 799.583 C 2280.369 799.510, 2283.503 799.774, 2290.970 801.814 C 2313.005 807.834, 2327.582 819.815, 2341.146 843.054 C 2344.641 849.042, 2347.725 853.954, 2348 853.970 C 2348.440 853.996, 2351.601 827.909, 2359.567 758.500 C 2364.908 711.959, 2365.983 678.003, 2362.601 662.632 C 2356.970 637.035, 2338.814 618.231, 2311.500 609.709 C 2294.420 604.380, 2282.228 602.721, 2240.063 599.993 C 2222.773 598.875, 2208.479 597.812, 2208.299 597.632 C 2207.727 597.061, 2238.207 589.181, 2245.500 588.014 C 2255.647 586.392, 2288.589 585.741, 2310 586.741 C 2320.175 587.216, 2328.627 587.529, 2328.783 587.436 C 2329.876 586.785, 2299.495 541.083, 2266.004 493 C 2241.537 457.871, 2215.263 419.046, 2200.019 395.494 C 2183.465 369.917, 2177.216 361.446, 2168.139 352.279 C 2156.054 340.074, 2144.111 333.771, 2125.569 329.816 C 2104.739 325.373, 2071.958 327.652, 2048.113 335.201 C 2036.028 339.027, 2030.626 339.383, 2030.198 336.381 C 2029.718 333.019, 2038.131 326.439, 2050.500 320.504 C 2070.423 310.943, 2085.333 307.114, 2113.272 304.382 C 2123.047 303.426, 2130.697 302.341, 2130.272 301.969 C 2129.848 301.598, 2124.066 298.768, 2117.424 295.681 C 2095.210 285.356, 2074.072 281.538, 2039 281.515 L 2015.500 281.500 2006.466 284.659 C 1980.123 293.869, 1963.483 304.906, 1932.500 333.718 C 1900.302 363.660, 1862.949 406.931, 1808.320 477.576 C 1775.315 520.257, 1744.525 554.566, 1736.194 557.947 C 1728.353 561.129, 1729.870 555.346, 1743.158 531.403 C 1751.198 516.914, 1754.425 509.496, 1753.405 507.846 C 1752.702 506.709, 1746.182 507.534, 1736 510.047 C 1718.171 514.447, 1698.645 515.284, 1678.064 512.530 C 1671.774 511.689, 1666.309 511, 1665.921 511 C 1665.532 511, 1667.899 517.412, 1671.180 525.250 C 1683.591 554.899, 1682.103 558.878, 1664.830 542.227 C 1643.450 521.616, 1618.558 473.852, 1584.566 388.210 C 1545.915 290.829, 1522.931 249.728, 1492.760 224.035 C 1467.339 202.387, 1433.038 193.506, 1384.983 196.129 M 1365.321 227.031 C 1353.899 228.184, 1346.119 230.477, 1334.333 236.165 C 1323.370 241.456, 1302.026 255.129, 1298.063 259.400 C 1292.667 265.216, 1298.662 265.027, 1328 258.459 C 1353.227 252.811, 1359.653 251.873, 1377 251.306 C 1396.923 250.655, 1408.824 252.389, 1433.500 259.538 C 1442.300 262.088, 1452.537 264.420, 1456.250 264.721 C 1462.534 265.231, 1463 265.130, 1463 263.251 C 1463 260.614, 1457.020 255.292, 1445.665 247.823 C 1433.777 240.004, 1426.854 236.547, 1415.935 232.979 C 1399.554 227.626, 1381.009 225.446, 1365.321 227.031 M 1013.880 352.979 C 991.595 357.018, 964.874 368.192, 946.502 381.152 C 934.565 389.573, 918.811 405.415, 911.667 416.181 C 904.808 426.518, 899.396 438.579, 897.479 447.797 C 890.430 481.694, 884.234 647.186, 886.877 731 C 888.260 774.850, 888.865 780.983, 893.583 799 C 898.659 818.388, 916.344 870.929, 933.972 919 C 955.878 978.736, 967.394 1011.444, 978.421 1045.247 C 989.640 1079.635, 998.946 1100.078, 1008 1110.220 C 1013.137 1115.974, 1018.734 1120.599, 1019.560 1119.773 C 1019.805 1119.528, 1019.086 1116.667, 1017.962 1113.414 C 1010.538 1091.923, 1000.052 1035.298, 1000.016 1016.500 C 999.970 992.956, 1009.684 970.936, 1028.028 953 C 1038.597 942.666, 1049.515 935.906, 1063.285 931.169 C 1073.127 927.783, 1074.048 927.652, 1088.500 927.577 C 1100.020 927.518, 1105.008 927.916, 1110 929.291 C 1117.982 931.491, 1130.229 936.721, 1137.819 941.169 C 1146.157 946.057, 1161.584 961.849, 1168.915 973 C 1180.781 991.050, 1202.482 1038.336, 1204.898 1051.409 C 1206.002 1057.376, 1208.472 1063, 1209.990 1063 C 1213.208 1063, 1216.979 1045.849, 1217.686 1028 C 1218.124 1016.946, 1217.854 1010.886, 1216.552 1002.500 C 1213.517 982.968, 1197.658 923.317, 1171.984 834.875 C 1164.859 810.332, 1157.894 785.582, 1156.507 779.875 C 1148.430 746.663, 1145.873 714.297, 1147.156 661.500 C 1147.984 627.452, 1149.190 609.938, 1156.452 526.500 C 1158.963 497.651, 1160.982 464.148, 1161.070 449.874 C 1161.151 436.657, 1161.064 436.070, 1158.169 430.334 C 1153.030 420.155, 1143.284 408.047, 1127.618 392.382 C 1104.050 368.813, 1090.393 359.879, 1069.500 354.361 C 1055.706 350.718, 1029.892 350.076, 1013.880 352.979 M 1259.500 352.614 C 1237.997 354.895, 1225.925 360.346, 1221.001 369.998 C 1218.878 374.159, 1215.652 388.995, 1214.047 401.974 C 1212.959 410.781, 1212.608 429, 1213.527 429 C 1213.816 429, 1225.179 423.640, 1238.777 417.090 C 1267.194 403.400, 1277.780 399.027, 1298 392.625 C 1329.114 382.774, 1360.804 376.983, 1403 373.437 C 1417.004 372.260, 1416.736 371.841, 1398.360 366.185 C 1375.350 359.101, 1362.294 356.718, 1331.500 353.982 C 1319.008 352.872, 1266.475 351.874, 1259.500 352.614 M 993 390.416 C 988.325 391.739, 981.569 393.927, 977.987 395.277 C 950.121 405.780, 925.337 426.492, 917.320 445.976 C 914.663 452.433, 914.246 459.774, 916.488 460.634 C 918.724 461.492, 925.912 456.863, 939.903 445.554 C 957.534 431.303, 967.128 424.797, 979.660 418.595 C 993.365 411.812, 1004.510 408.170, 1028.978 402.476 C 1048.427 397.951, 1051.302 396.902, 1049.420 395.020 C 1047.158 392.758, 1026.356 388.905, 1014 388.460 C 1002.973 388.062, 1000.498 388.292, 993 390.416 M 1387 401.670 C 1384.525 401.846, 1375.750 402.696, 1367.500 403.560 C 1327.066 407.794, 1280.842 422.071, 1247.738 440.552 C 1209.064 462.142, 1203.026 469.182, 1198.034 498.500 C 1196.098 509.868, 1195.384 518.274, 1191.957 570 C 1189.717 603.812, 1187.781 625.707, 1185.509 642.936 C 1184.679 649.226, 1184 655.013, 1184 655.796 C 1184 656.579, 1188.522 653.008, 1194.049 647.860 C 1228.963 615.342, 1253.401 599.265, 1291.872 583.508 C 1341.979 562.986, 1394.326 552.874, 1434.221 556.012 C 1467.714 558.645, 1492.554 566.638, 1517.901 582.936 C 1530.019 590.728, 1537.101 594.315, 1538.171 593.201 C 1540.065 591.230, 1543.306 531.438, 1543.414 496.500 C 1543.497 469.439, 1543.422 468.308, 1541.184 462.764 C 1537.602 453.897, 1531.434 445.338, 1521.535 435.500 C 1511.144 425.172, 1499.398 416.957, 1485.851 410.539 C 1475.036 405.416, 1467.784 403.534, 1453.144 402.050 C 1443.882 401.111, 1398.517 400.850, 1387 401.670 M 1393.500 582.611 C 1377.057 584.187, 1370.127 585.320, 1365.952 587.116 C 1356.566 591.154, 1359.006 594, 1372.799 595.101 C 1395.232 596.891, 1421.322 605.548, 1450.500 620.882 C 1482.187 637.536, 1496.935 649.091, 1524.401 678.791 L 1530.219 685.081 1529.832 659.291 C 1529.453 634.031, 1529.392 633.385, 1526.852 627.911 C 1521.840 617.110, 1507.148 605.241, 1486.773 595.532 C 1464.299 584.823, 1454.595 582.871, 1422 582.504 C 1408.525 582.352, 1395.700 582.400, 1393.500 582.611 M 693.393 617.088 C 678.096 619.647, 658.417 628.550, 643.853 639.501 C 633.817 647.046, 617.457 663.085, 613.127 669.622 C 611.407 672.218, 610 675.360, 610 676.604 C 610 682.054, 618.153 680.252, 639.988 669.977 C 664.700 658.347, 677.487 654.962, 696.338 655.056 L 707.500 655.112 687.500 664.861 C 658.554 678.970, 639.331 692.671, 623.882 710.203 C 611.405 724.362, 607.167 732.403, 604.055 747.824 C 597.747 779.080, 583.779 884.376, 585.385 888.561 C 586.881 892.460, 592.472 889, 610.744 872.867 C 636.421 850.194, 658.145 837.475, 673.250 836.270 C 684.428 835.378, 682.630 838.162, 659.593 857.410 C 623.717 887.387, 608.162 908.757, 602.524 935.815 C 598.261 956.275, 601.056 961.761, 660.943 1050.500 C 686.916 1088.987, 709.715 1121.413, 714.108 1126.116 C 715.590 1127.702, 717.297 1129, 717.901 1129 C 719.819 1129, 719.091 1122.212, 716.371 1114.731 C 705.818 1085.703, 703.885 1075.654, 705.873 1060.154 C 708.114 1042.676, 714.709 1029.128, 726.918 1016.917 C 735.065 1008.770, 744.904 1002.350, 754.510 998.916 C 762.979 995.888, 779.223 995.194, 788 997.486 C 808.057 1002.725, 826.487 1017.551, 846.807 1044.796 C 868.108 1073.355, 880 1098.021, 880 1113.643 C 880 1127.494, 865.329 1154.728, 849.334 1170.568 C 845.300 1174.563, 842 1178.319, 842 1178.916 C 842 1179.512, 843.037 1180, 844.304 1180 C 853.238 1180, 881.215 1150.350, 891.482 1130 C 897.449 1118.174, 898.504 1110.852, 898.469 1081.500 C 898.425 1045.513, 895.995 1033.666, 882.444 1003.363 C 857.654 947.925, 823.619 890.423, 793.447 853 C 781.824 838.584, 777.817 834.708, 770.959 831.249 C 766.960 829.232, 765.409 827.854, 765.161 826.099 C 764.831 823.770, 764.974 823.718, 770.161 824.255 C 773.097 824.559, 778.875 826.039, 783 827.543 C 794.135 831.604, 805.366 834.457, 807.297 833.716 C 809.490 832.875, 809.553 825.902, 807.516 809.470 C 804.383 784.202, 798.649 756.344, 792.806 738 C 788.591 724.768, 787.539 717.048, 789.841 716.242 C 791.965 715.499, 801.564 726.140, 814.716 743.819 L 826.857 760.138 827.539 755.590 C 828.882 746.631, 828.585 686.974, 827.157 679 C 825.842 671.655, 825.675 671.365, 819.097 664.967 C 804.106 650.387, 767.542 628.872, 746.309 622.137 C 728.568 616.510, 708.369 614.583, 693.393 617.088 M 1285.056 617.090 C 1277.787 618.516, 1266.870 624.294, 1248.207 636.595 C 1227.634 650.154, 1218.401 658.487, 1214.623 666.904 C 1210.933 675.128, 1209.594 689.175, 1210.324 712 C 1211.215 739.837, 1214.483 756.497, 1231.550 820.191 C 1256.270 912.451, 1262.517 935.986, 1270.912 968.500 C 1286.093 1027.297, 1287.571 1031.654, 1295.498 1041 L 1299.316 1045.500 1298.589 1042 C 1295.715 1028.151, 1293.423 984.901, 1294.393 962.834 C 1295.382 940.362, 1298.166 931.585, 1309.823 914.179 C 1325.269 891.118, 1347.575 878.983, 1380.007 875.999 C 1402.426 873.937, 1422.342 877.134, 1439.500 885.549 C 1457.967 894.607, 1470.297 908.130, 1482.895 933.144 C 1496.363 959.886, 1510.722 998.571, 1517.863 1027.352 L 1521.598 1042.403 1527.275 1027.452 C 1536.771 1002.442, 1540.281 986.285, 1541.948 959.919 C 1543.112 941.491, 1541.933 916.259, 1538.938 895.500 C 1532.894 853.625, 1515.570 755.515, 1508.923 725.516 C 1501.382 691.488, 1499.750 687.821, 1486.525 675.180 C 1474.992 664.155, 1460.767 654.657, 1440.500 644.450 C 1411.270 629.727, 1389.685 622.497, 1366.030 619.505 C 1342.584 616.539, 1295.090 615.123, 1285.056 617.090 M 2243 637.946 C 2237.775 638.983, 2229.900 640.700, 2225.500 641.762 L 2217.500 643.692 2225.400 647.358 C 2229.745 649.374, 2235.820 651.654, 2238.900 652.426 C 2252.736 655.891, 2279.296 658.775, 2305.500 659.657 C 2324.617 660.300, 2334.251 659.768, 2337.009 657.914 C 2338.269 657.067, 2338.125 656.648, 2336.078 655.206 C 2330.059 650.967, 2311.116 644.835, 2287.500 639.481 C 2271.561 635.867, 2256.149 635.335, 2243 637.946 M 1311.731 653.037 C 1301.697 654.725, 1280.662 664.105, 1267.694 672.675 C 1260.972 677.116, 1245.967 691.324, 1243.881 695.222 C 1242.675 697.475, 1243.141 697.388, 1273 689.776 C 1306.878 681.139, 1310.443 680.309, 1323.095 678.112 C 1340.872 675.025, 1356.730 673.153, 1379 671.512 C 1413.039 669.003, 1414.691 668.419, 1404.561 662.483 C 1398.645 659.016, 1383.833 655.415, 1367.826 653.553 C 1353.750 651.915, 1320.234 651.607, 1311.731 653.037 M 1393.500 713.562 C 1385.800 714.877, 1362.850 718.459, 1342.500 721.523 C 1270.583 732.352, 1258.324 734.775, 1254.594 738.897 C 1252.901 740.767, 1252.924 740.904, 1255.179 742.382 C 1258.435 744.515, 1267.828 746.765, 1278.500 747.969 C 1291.914 749.481, 1322.154 749.229, 1335.393 747.493 C 1354.782 744.951, 1379.063 737.079, 1399.236 726.793 C 1410.632 720.982, 1415.293 717.091, 1414.823 713.780 C 1414.378 710.642, 1410.814 710.606, 1393.500 713.562 M 1018.876 735.954 C 986.935 744.650, 974.695 749.329, 963.301 757.198 C 950.457 766.069, 930 787.301, 930 791.761 C 930 794.751, 940.737 791.192, 980.400 775.056 C 999.024 767.479, 1027.125 757.645, 1057.583 748.045 C 1070.295 744.039, 1075 741.857, 1075 739.969 C 1075 736.994, 1053.357 730.958, 1043.122 731.078 C 1038.522 731.132, 1031.119 732.621, 1018.876 735.954 M 2028.922 743.274 C 2015.163 752.546, 1996.153 798.193, 1980.519 859.500 C 1970.363 899.322, 1970.235 918.136, 1979.859 956.047 C 1982.459 966.291, 1993.228 1007.231, 1993.440 1007.679 C 1993.621 1008.062, 2053.148 1005.049, 2057.930 1004.415 C 2062.672 1003.786, 2063 1003.559, 2063 1000.910 C 2063 997.172, 2060.191 985.445, 2054.116 963.821 C 2045.084 931.670, 2040.274 905.487, 2037.918 875.637 C 2036.305 855.210, 2037.251 816.042, 2039.858 795.345 C 2042.694 772.824, 2043.531 755.571, 2042.050 750.135 C 2040.719 745.248, 2037.065 741, 2034.193 741 C 2033.150 741, 2030.778 742.023, 2028.922 743.274 M 2250.500 832.005 C 2232.954 835.188, 2221.574 844.306, 2212.728 862.269 C 2202.646 882.742, 2198.061 905.882, 2194.446 954.544 L 2193.774 963.587 2205.637 973.371 C 2224.599 989.009, 2237.923 995.828, 2258.682 1000.519 C 2280.030 1005.342, 2297.678 1004.795, 2309.714 998.935 C 2317.606 995.093, 2319.824 991.937, 2321.540 982.108 C 2325.056 961.968, 2325.758 913.466, 2322.880 889.500 C 2318.016 848.986, 2302.210 832.415, 2267.500 831.436 C 2260.900 831.250, 2253.250 831.506, 2250.500 832.005 M 2004.890 882.720 C 2002.964 891.427, 2002.505 896.384, 2002.503 908.500 C 2002.500 924.878, 2003.901 932.938, 2011.891 962.500 L 2015.674 976.500 2021.337 976.800 C 2024.452 976.965, 2027 976.897, 2027 976.650 C 2027 976.402, 2025.477 970.643, 2023.616 963.850 C 2016.811 939.013, 2012.321 914.740, 2009.503 887.560 C 2008.651 879.344, 2007.801 872.468, 2007.614 872.280 C 2007.427 872.093, 2006.201 876.791, 2004.890 882.720 M 1384.500 906.603 C 1353.183 910.876, 1334.349 925.863, 1324.306 954.500 C 1321.563 962.321, 1321.502 962.970, 1321.570 983.500 C 1321.701 1022.407, 1329.415 1071.792, 1337.812 1087.478 C 1343.811 1098.685, 1358.591 1108.986, 1372.900 1111.931 C 1394.275 1116.332, 1419.320 1112.377, 1442.116 1101.002 C 1452.638 1095.752, 1457.496 1092.391, 1469.219 1082.251 C 1493.210 1061.501, 1494.058 1052.582, 1476.897 1001.509 C 1459.395 949.420, 1443.721 923.740, 1423.500 914.024 C 1412.196 908.593, 1394.539 905.233, 1384.500 906.603 M 1076.225 962.455 C 1055.102 967.267, 1038.874 982.799, 1033.864 1003 C 1031.892 1010.950, 1032.179 1040.368, 1034.376 1055.500 C 1039.550 1091.147, 1050.873 1124.655, 1061.414 1135.518 C 1069.508 1143.858, 1084.912 1146.661, 1105.765 1143.587 C 1139.584 1138.602, 1172.025 1122.023, 1181.527 1104.868 C 1184.292 1099.875, 1184.494 1098.802, 1184.415 1089.500 C 1184.320 1078.379, 1182.966 1073.450, 1174.526 1053.500 C 1167.300 1036.419, 1148.646 999.366, 1142.851 990.586 C 1133.347 976.185, 1124.377 969.143, 1109 964.015 C 1100.563 961.201, 1084.985 960.460, 1076.225 962.455 M 762.487 1027.755 C 750.316 1032.070, 741.861 1039.489, 736.291 1050.738 C 732.733 1057.925, 732.712 1058.045, 733.287 1067.738 C 734.397 1086.428, 743.565 1113.317, 761.622 1150.843 C 769.673 1167.574, 771.676 1170.997, 773.411 1170.982 C 778.210 1170.940, 796.871 1167.865, 801.500 1166.354 C 818.324 1160.861, 839.090 1145.529, 847.653 1132.276 C 855.351 1120.362, 855.315 1109.588, 847.523 1093.500 C 837.362 1072.520, 805.804 1035.502, 792.500 1028.959 C 785.801 1025.664, 770.153 1025.036, 762.487 1027.755 M 1245.500 1188.128 C 1229.046 1189.193, 1207.622 1191.646, 1202.781 1193.021 C 1199.250 1194.024, 1198.953 1194.442, 1196.911 1201.288 C 1193.716 1211.998, 1183.926 1255.556, 1176.595 1291.679 C 1165.709 1345.316, 1156.017 1389.936, 1151.925 1405.250 C 1149.879 1412.908, 1146.398 1409.310, 1137.142 1389.972 C 1128.787 1372.516, 1108.850 1322.650, 1083.926 1256.866 L 1065.500 1208.232 1041 1208.661 C 1014.724 1209.121, 980.283 1210.707, 975.689 1211.668 C 968.396 1213.194, 967.845 1220.867, 971.897 1264.500 C 978.148 1331.814, 997.137 1571.436, 999.614 1614.260 C 1000.012 1621.132, 1000.823 1626.744, 1001.565 1627.760 C 1002.651 1629.249, 1004.976 1629.549, 1017.667 1629.838 C 1037.576 1630.292, 1074.138 1627.404, 1080.903 1624.843 L 1083.307 1623.933 1082.662 1610.477 C 1081.730 1591.046, 1078.842 1558.273, 1071.519 1484 C 1067.967 1447.975, 1064.377 1410.400, 1063.541 1400.500 C 1062.705 1390.600, 1061.764 1380.250, 1061.449 1377.500 C 1061.056 1374.065, 1061.200 1372.820, 1061.909 1373.521 C 1063.445 1375.039, 1073.756 1400.478, 1091.490 1446.500 C 1108.739 1491.262, 1122.852 1525.784, 1128.432 1536.865 C 1133.414 1546.758, 1134.885 1547.530, 1148.459 1547.371 C 1157.705 1547.262, 1185.402 1543.932, 1186.542 1542.791 C 1186.732 1542.601, 1191.858 1518.704, 1197.933 1489.687 C 1214.595 1410.097, 1223.689 1370.911, 1226.045 1368.555 C 1227.665 1366.935, 1228.824 1369.678, 1229.390 1376.468 C 1229.667 1379.786, 1230.385 1396.450, 1230.987 1413.500 C 1233.390 1481.615, 1241.337 1600.495, 1243.946 1607.357 C 1244.476 1608.753, 1246.083 1610.663, 1247.516 1611.602 C 1249.831 1613.120, 1252.196 1613.239, 1268.810 1612.674 C 1287.458 1612.040, 1309.805 1609.959, 1319.753 1607.929 C 1323.401 1607.185, 1325.357 1606.202, 1326.154 1604.713 C 1327.424 1602.339, 1326.738 1573.531, 1325.029 1557.500 C 1323.883 1546.746, 1301.289 1275.640, 1297.328 1225.106 L 1294.553 1189.711 1291.309 1188.356 C 1287.637 1186.821, 1267.266 1186.720, 1245.500 1188.128 M 878 1217.119 C 840.564 1218.688, 829.933 1220.735, 826.685 1227 C 825.133 1229.994, 824.960 1232.018, 825.485 1241 C 826.698 1261.727, 831.227 1317.784, 843.060 1458.500 C 853.606 1583.916, 856.546 1615.249, 859.758 1636.434 L 860.506 1641.368 867.003 1641.159 C 897.521 1640.176, 932.568 1637.838, 942.446 1636.126 L 946.500 1635.424 946.338 1618.962 C 946.160 1600.842, 944.179 1573.356, 937.513 1496.500 C 932.510 1438.827, 922.861 1319.634, 920.512 1286.500 C 918.706 1261.028, 915.040 1219.078, 914.459 1217.250 C 914.012 1215.839, 908.985 1215.821, 878 1217.119 M 645.500 1233.681 C 627.879 1235.201, 598.440 1238.227, 598.115 1238.552 C 596.336 1240.331, 616.993 1496.173, 631.114 1647.250 L 632.306 1660 641.403 1659.991 C 660.005 1659.972, 762.931 1651.682, 803.984 1646.895 C 813.600 1645.774, 822.103 1644.329, 822.880 1643.685 C 824.727 1642.151, 823.892 1615.508, 821.040 1585 C 819.934 1573.175, 819.023 1562.817, 819.015 1561.982 C 819.002 1560.630, 816.289 1560.653, 794.250 1562.191 C 780.638 1563.140, 758.915 1564.229, 745.977 1564.611 C 720.238 1565.370, 715.366 1564.759, 714.583 1560.672 C 714.354 1559.478, 712.994 1542.975, 711.561 1524 C 708.121 1478.454, 688.041 1238.136, 687.435 1235.250 C 686.963 1233.006, 686.911 1233, 668.231 1233.168 C 657.929 1233.261, 647.700 1233.491, 645.500 1233.681 M 474 1243.031 C 434.837 1246.982, 403.040 1263.379, 380.014 1291.500 C 359.273 1316.829, 345.145 1352.136, 338.999 1394 C 332.889 1435.619, 334.623 1484.807, 343.611 1524.899 C 354.607 1573.942, 375.864 1614.850, 404.208 1641.514 C 430.976 1666.695, 459.447 1677, 502.249 1677 C 524.767 1677, 544.344 1673.544, 562.316 1666.395 C 583.915 1657.804, 587.789 1652.908, 586.706 1635.572 C 586.065 1625.311, 581.740 1603.664, 576.554 1584.757 C 572.982 1571.735, 570.676 1566, 569.012 1566 C 568.497 1566, 565.347 1568.435, 562.011 1571.411 C 555.312 1577.388, 544.602 1582.440, 530.624 1586.216 C 518.526 1589.484, 499.319 1589.423, 489.124 1586.084 C 476.127 1581.827, 462.875 1571.495, 454.256 1558.897 C 450.041 1552.737, 442.762 1537.972, 440.129 1530.242 C 435.590 1516.917, 433.467 1496.801, 432.451 1457.500 C 431.721 1429.254, 433.132 1394.112, 435.432 1383.266 C 439.693 1363.170, 454.721 1342.182, 470.360 1334.488 C 487.228 1326.187, 507.662 1325.904, 541.713 1333.499 C 547.881 1334.875, 553.445 1336, 554.078 1336 C 554.935 1336, 555.106 1326.466, 554.747 1298.750 C 554.130 1251.073, 553.793 1249.738, 541.694 1247.039 C 527.433 1243.857, 488.599 1241.558, 474 1243.031 M 2004.675 1618.014 C 1983.552 1619.920, 1969.484 1624.158, 1947.903 1635.115 C 1926.717 1645.872, 1912.790 1656.218, 1895.947 1673.716 C 1872.895 1697.663, 1857.950 1725.168, 1850.413 1757.516 C 1847.894 1768.328, 1847.615 1771.358, 1847.561 1788.500 C 1847.512 1803.654, 1847.877 1809.119, 1849.361 1815.500 C 1854.579 1837.936, 1863.623 1855.227, 1878.120 1870.490 C 1889.070 1882.017, 1899.511 1889.382, 1916.500 1897.563 C 1952.805 1915.046, 2061.153 1954.990, 2095.371 1963.507 C 2105.336 1965.987, 2106.752 1966.113, 2112.371 1965.014 C 2128.118 1961.935, 2141.763 1954.306, 2154.500 1941.459 C 2178.046 1917.708, 2201.162 1883.467, 2220.210 1844.121 C 2225.636 1832.913, 2230.217 1823.913, 2230.390 1824.121 C 2230.951 1824.799, 2228.087 1853.234, 2226.423 1863.500 C 2223.317 1882.668, 2214.045 1908.230, 2204.199 1924.766 C 2201.995 1928.470, 2196.323 1936.675, 2191.596 1943 C 2180.123 1958.351, 2180.144 1961.940, 2191.677 1956.570 C 2205.239 1950.256, 2226.400 1933.206, 2238.146 1919.130 C 2262.218 1890.283, 2278.720 1853.573, 2285.650 1813.457 C 2287.787 1801.086, 2288.071 1769.299, 2286.149 1757.500 C 2283.332 1740.200, 2276.281 1716.643, 2266.867 1693.075 C 2260.657 1677.531, 2251.749 1660.014, 2248.029 1656.031 C 2245.399 1653.216, 2244.701 1653, 2238.209 1653 C 2231.521 1653, 2215.858 1655.420, 2213.307 1656.848 C 2212.461 1657.322, 2215.173 1663.149, 2222.229 1676.014 C 2247.094 1721.350, 2245.065 1725.805, 2213.037 1696.201 C 2183.396 1668.804, 2167.130 1657.510, 2132.291 1640.137 C 2103.287 1625.674, 2090.490 1621.305, 2070.500 1619.043 C 2057.794 1617.605, 2016.382 1616.958, 2004.675 1618.014 M 2002.327 1662.396 C 1994.074 1666.148, 1987.690 1675.814, 1969.096 1712.706 C 1950.531 1749.540, 1934.511 1775.645, 1915.525 1800 C 1898.385 1821.987, 1886 1841.020, 1886 1845.373 C 1886 1848.618, 1889.813 1854.533, 1895.146 1859.562 C 1922.138 1885.012, 1990.622 1908.646, 2023.810 1903.963 C 2055.485 1899.494, 2083.056 1879.726, 2103.271 1846.988 C 2112.153 1832.606, 2119.663 1813.400, 2123.601 1795 C 2126.144 1783.118, 2126.157 1761.091, 2123.626 1751.500 C 2117.669 1728.922, 2101.630 1708.421, 2077.500 1692.545 C 2061.851 1682.249, 2033.649 1667.623, 2021.500 1663.503 C 2014.450 1661.112, 2006.199 1660.636, 2002.327 1662.396 M 1775.500 1691.992 C 1768.350 1692.429, 1759.125 1693.286, 1755 1693.897 C 1746.289 1695.188, 1674.708 1701.144, 1598 1706.961 C 1468.294 1716.797, 1454.224 1718.267, 1442.822 1723.172 C 1435.947 1726.129, 1435.177 1728.137, 1433.990 1746.205 C 1432.339 1771.340, 1433.260 1771.167, 1422.601 1748.349 C 1408.780 1718.761, 1410.093 1720.999, 1406.565 1721.006 C 1404.879 1721.009, 1400.800 1721.454, 1397.500 1721.995 C 1386.035 1723.873, 1326.799 1728.775, 1186 1739.499 C 1082.024 1747.418, 974.478 1756.371, 969.209 1757.547 C 967.949 1757.829, 967.187 1758.494, 967.516 1759.027 C 967.845 1759.559, 972.476 1763.526, 977.807 1767.842 C 1037.008 1815.776, 1091.549 1838.984, 1165.452 1847.690 C 1192.969 1850.931, 1245.486 1849.907, 1283 1845.397 C 1305.163 1842.733, 1387.717 1829.617, 1388.735 1828.598 C 1388.907 1828.426, 1378.779 1823.025, 1366.229 1816.596 C 1344.495 1805.462, 1334.960 1799.560, 1332.626 1795.798 C 1331.217 1793.526, 1332.128 1792.815, 1337.494 1792.001 C 1348.994 1790.256, 1381.884 1795.089, 1415.681 1803.492 C 1435.568 1808.436, 1454.309 1813.703, 1538.500 1838.011 C 1629.877 1864.395, 1686.686 1873.417, 1741.255 1870.213 C 1759.372 1869.149, 1796.971 1865.362, 1797.818 1864.516 C 1797.999 1864.334, 1796.346 1857.732, 1794.145 1849.843 C 1788.124 1828.268, 1786.859 1820.389, 1786.267 1800.788 C 1785.087 1761.688, 1791.934 1730.266, 1807.868 1701.666 C 1811.161 1695.756, 1811.950 1693.550, 1811.081 1692.681 C 1809.640 1691.240, 1793.081 1690.919, 1775.500 1691.992 M 2009.686 1693.794 C 2008.793 1694.781, 2006.505 1699.843, 2004.602 1705.044 C 1991.132 1741.848, 1974.117 1771.798, 1944.158 1811.438 C 1926.010 1835.452, 1923.580 1840.970, 1928.551 1846.878 C 1931.768 1850.701, 1937.475 1853.716, 1952.427 1859.489 C 1977.439 1869.145, 1990.593 1872.046, 2009.500 1872.076 C 2029.698 1872.108, 2043.390 1867.374, 2054.557 1856.500 C 2070.151 1841.313, 2089.548 1802.738, 2093.995 1778.068 C 2097.950 1756.122, 2085.390 1734.466, 2056.915 1714.138 C 2030.044 1694.955, 2014.640 1688.320, 2009.686 1693.794" stroke="none" fill="#fafafa" fill-rule="evenodd"></path><path d="M 1369.500 135.107 C 1349.700 136.949, 1316.179 145.142, 1298.625 152.430 C 1250.908 172.241, 1206.598 224.765, 1186.490 285.350 C 1184.089 292.583, 1180.054 308.175, 1177.522 320 C 1171.472 348.264, 1172.638 345.487, 1167.928 342.839 C 1165.770 341.626, 1158.040 335.921, 1150.752 330.162 C 1128.182 312.326, 1111.629 302.523, 1095 297.144 C 1065.655 287.652, 1021.544 288.155, 981.179 298.441 C 914.198 315.509, 860.680 363.826, 840.492 425.455 C 832.905 448.615, 831.209 466, 829.952 533.500 C 829.014 583.843, 828.673 590, 826.827 590 C 826.310 590, 815.675 585.093, 803.194 579.096 C 776.330 566.188, 766.929 562.227, 753.500 558.157 C 736.688 553.061, 732.731 552.508, 713.500 552.561 C 693.265 552.618, 684.025 554.147, 665.337 560.533 C 620.500 575.853, 576.839 610.608, 559.537 644.753 C 551.945 659.734, 543.727 702.594, 535.523 770 C 526.983 840.164, 523.940 897.748, 527.518 921.500 C 532.875 957.066, 550.047 994.508, 583.077 1042.644 C 615.827 1090.371, 628.694 1110.748, 627.708 1113.320 C 627.352 1114.245, 623.950 1115.064, 617.339 1115.816 C 597.994 1118.015, 540.549 1123.033, 483.500 1127.508 C 359.429 1137.240, 306.152 1142.919, 290.814 1148.046 C 273.644 1153.787, 255.848 1165.102, 241.407 1179.463 C 230.182 1190.626, 223.694 1199.664, 216.244 1214.521 C 206.169 1234.611, 203.996 1245.762, 204.008 1277.322 C 204.016 1301.259, 204.492 1308.387, 213.523 1420 C 232.320 1652.309, 237.189 1698.600, 245.140 1720.573 C 255.571 1749.401, 283.008 1780.089, 310.334 1793.492 C 323.943 1800.167, 328.719 1801.159, 350 1801.731 C 370.004 1802.268, 384.430 1801.493, 476.500 1794.933 C 600.267 1786.114, 683.463 1779.360, 850.448 1764.572 L 877.396 1762.186 883.520 1767.843 C 886.888 1770.954, 898.387 1781.677, 909.072 1791.670 C 919.757 1801.664, 933.225 1813.768, 939 1818.569 C 1005.609 1873.940, 1065.872 1901.105, 1145 1911.426 C 1167.770 1914.396, 1216.633 1914.915, 1246.500 1912.504 C 1283.849 1909.489, 1321.446 1904.529, 1356.500 1897.991 C 1384.454 1892.778, 1402.584 1890.999, 1427.722 1891.004 C 1468.890 1891.012, 1506.920 1896.375, 1559.500 1909.587 C 1654.711 1933.511, 1694.217 1937.465, 1771.500 1930.803 C 1786.316 1929.525, 1805.054 1928.618, 1817.500 1928.574 C 1841.072 1928.491, 1837.267 1927.490, 1852.539 1937.791 C 1889.117 1962.465, 2033.441 2020.695, 2097.500 2036.625 C 2110.059 2039.748, 2134.200 2040.877, 2150 2039.080 C 2222.609 2030.822, 2287.178 1984.961, 2321.588 1917.210 C 2337.125 1886.620, 2347.123 1856.164, 2351.695 1825.500 C 2354.379 1807.504, 2354.110 1770.400, 2351.159 1751.571 C 2346.868 1724.187, 2338.469 1694.247, 2327.046 1665.616 C 2323.054 1655.609, 2322.196 1652.503, 2323.006 1650.989 C 2324.997 1647.268, 2333.004 1646.150, 2387.500 1641.987 C 2564.948 1628.429, 2686.807 1616.771, 2718 1610.367 C 2741.752 1605.491, 2778.886 1574.108, 2794.486 1545.726 C 2799.257 1537.047, 2803.497 1525.181, 2805.690 1514.372 C 2807.175 1507.048, 2807.487 1500.526, 2807.477 1477 C 2807.465 1447.444, 2807.135 1442.018, 2801.468 1378 C 2797.089 1328.546, 2790.007 1242.977, 2785.494 1185 C 2774.369 1042.089, 2770.654 1027.218, 2738.668 997.569 C 2716.090 976.640, 2704.106 969.210, 2685.500 964.605 C 2660.953 958.530, 2621.260 959.253, 2522 967.582 C 2444.339 974.099, 2433.506 974.968, 2411.077 976.484 C 2398.745 977.318, 2387.995 978, 2387.189 978 C 2385.226 978, 2385.995 970.980, 2390.531 947.500 C 2413.882 826.616, 2425.234 735.109, 2423.703 680.105 C 2422.814 648.181, 2419.102 629.780, 2408.705 605.749 C 2397.234 579.240, 2385.999 561.027, 2320.644 463 C 2293.692 422.575, 2261.331 373.750, 2248.730 354.500 C 2211.887 298.216, 2197.212 278.585, 2182.521 265.940 C 2134.597 224.686, 2065.393 207.989, 2000.500 222.022 C 1943.615 234.323, 1912.195 258.495, 1812.043 367.002 C 1798.591 381.576, 1776.610 404.595, 1763.196 418.157 C 1736.309 445.339, 1734.934 446.330, 1719.792 449.425 C 1709.622 451.503, 1692.816 451.497, 1686.699 449.413 C 1679.268 446.881, 1673.621 439.784, 1664.784 421.870 C 1651.405 394.746, 1635.715 356.882, 1622.987 321 C 1614.582 297.306, 1609.390 284.745, 1601.442 268.884 C 1575.208 216.524, 1540.347 176.772, 1501.739 155.191 C 1473.702 139.519, 1416.110 130.772, 1369.500 135.107 M 1379.500 196.020 C 1348.170 198.799, 1320.600 206.808, 1303.594 218.069 C 1295.579 223.376, 1283.947 234.927, 1275.594 245.875 C 1256.778 270.535, 1240.940 305.179, 1240.628 322.358 C 1240.504 329.222, 1240.586 329.475, 1243.393 330.840 C 1245.937 332.077, 1248.470 331.966, 1264.393 329.925 C 1301.950 325.112, 1336.948 327.953, 1384 339.636 C 1428.090 350.583, 1471.663 368.112, 1502.860 387.454 C 1511.204 392.627, 1523.719 402.158, 1535.594 412.382 L 1539.688 415.907 1540.344 397.793 C 1540.705 387.830, 1541.035 376.039, 1541.077 371.590 L 1541.155 363.500 1546.164 374 C 1562.961 409.207, 1569.469 434.359, 1573.074 478 C 1573.688 485.425, 1574.423 525.362, 1574.709 566.750 C 1574.995 608.138, 1575.515 641.974, 1575.864 641.943 C 1577.176 641.825, 1590.996 624.120, 1596.905 614.987 C 1600.282 609.769, 1605.966 599.840, 1609.537 592.923 C 1613.107 586.006, 1617.357 579.074, 1618.980 577.519 L 1621.932 574.691 1623.036 577.595 C 1626.863 587.659, 1623.881 634.750, 1618.441 650.169 C 1614.611 661.023, 1602.356 682.908, 1588.016 704.500 C 1567.419 735.515, 1566.526 746.261, 1578.457 819.500 C 1586.390 868.192, 1588.709 890.434, 1589.931 929.513 C 1590.802 957.382, 1591.844 964, 1595.360 964 C 1596.165 964, 1602.007 961.780, 1608.344 959.067 C 1638.716 946.062, 1686.900 929.352, 1728.500 917.397 C 1773.847 904.364, 1799.782 894.777, 1835 878.025 C 1857.631 867.261, 1871.727 861.394, 1872.677 862.344 C 1875.542 865.208, 1843.830 894.828, 1812.608 918.452 C 1796.914 930.327, 1792.392 933.249, 1776.723 941.646 C 1757.442 951.978, 1736.497 964.741, 1725.557 972.824 C 1713.440 981.778, 1698.621 996.624, 1690.660 1007.785 C 1684.657 1016.202, 1676 1030.728, 1676 1032.383 C 1676 1034.630, 1765.516 1028.952, 1872.500 1019.918 C 1914.055 1016.409, 1931.952 1014.448, 1933.126 1013.274 C 1934.541 1011.859, 1923.344 963.018, 1915.180 935 C 1912.493 925.775, 1912.322 925.491, 1909.280 925.192 C 1905.503 924.821, 1901.063 926.986, 1886.703 936.203 C 1880.765 940.015, 1872.628 944.902, 1868.622 947.062 C 1857.638 952.987, 1846 956.634, 1846 954.150 C 1846 952.327, 1852.253 944.204, 1870.184 922.733 C 1900.074 886.941, 1912.703 867.886, 1923.276 842.623 C 1932.959 819.485, 1944.968 781.764, 1944.993 774.411 C 1944.997 773.141, 1944.007 771.868, 1942.469 771.168 C 1938.684 769.443, 1924.092 768.019, 1910 767.998 C 1860.995 767.925, 1822.091 755.818, 1802.061 734.407 C 1798.728 730.843, 1796 727.443, 1796 726.852 C 1796 725.385, 1800.231 726.269, 1816.201 731.071 C 1834.446 736.557, 1852.060 740, 1861.876 740 C 1874.477 740, 1873.684 738.860, 1850 722.924 C 1821.398 703.679, 1799.514 682.481, 1782.976 658 C 1777.849 650.411, 1767 629.705, 1767 627.509 C 1767 624.335, 1768.137 625.094, 1784 638.858 C 1796.044 649.309, 1808.072 656.997, 1826.500 666.023 C 1864.131 684.456, 1903.323 695, 1934.202 695 C 1959.724 695, 1986.796 687.346, 1992.599 678.489 C 1994.169 676.093, 1994.116 675.669, 1991.507 669.736 C 1973.932 629.775, 1967.755 613.255, 1964.869 598.500 C 1963.820 593.135, 1963.500 579.589, 1963.500 540.500 C 1963.500 476.150, 1964.696 463.700, 1973.300 438.500 L 1976.714 428.500 1977.364 434.500 C 1977.722 437.800, 1978.691 449.050, 1979.519 459.500 C 1982.717 499.893, 1987.112 526.392, 1993.449 543.500 C 2000.744 563.192, 2022.438 605.113, 2039.732 632.936 C 2047.619 645.626, 2085.091 700, 2085.949 700 C 2086.282 700, 2089.467 693.619, 2093.027 685.821 C 2096.587 678.022, 2102.049 667.784, 2105.165 663.071 C 2118.549 642.822, 2135.295 627.815, 2138.579 633.128 C 2138.962 633.748, 2136.787 639.035, 2133.745 644.878 C 2130.703 650.720, 2127.062 659.325, 2125.655 664 C 2115.118 699.014, 2103.836 762.029, 2098.441 816 C 2096.435 836.068, 2096.937 882.165, 2099.346 899 C 2105.449 941.668, 2119.199 978.390, 2138.784 1004.331 C 2155.470 1026.430, 2179.734 1043.532, 2202 1048.886 C 2226.909 1054.876, 2257.458 1054.137, 2275.985 1047.098 C 2281.521 1044.994, 2302.154 1033.820, 2301.573 1033.240 C 2301.383 1033.050, 2292.964 1032.235, 2282.864 1031.429 C 2258.602 1029.493, 2247.926 1027.649, 2233.653 1022.925 C 2212.466 1015.913, 2197.255 1005.942, 2175.272 984.655 L 2163.751 973.500 2164.426 961.500 C 2166.817 919.014, 2169.571 895.925, 2174.614 876.093 C 2182.524 844.982, 2197.031 822.662, 2216.876 811.072 C 2239.711 797.736, 2275.095 795.189, 2299.920 805.094 C 2318.416 812.473, 2329.739 823.481, 2344.054 848 C 2346.462 852.125, 2348.550 854.825, 2348.694 854 C 2349.323 850.393, 2361.110 747.872, 2362.663 732.500 C 2363.770 721.542, 2364.379 706.970, 2364.374 691.500 C 2364.368 670.141, 2364.135 666.658, 2362.249 659.846 C 2355.946 637.073, 2340.861 620.493, 2318.644 611.922 C 2309.648 608.451, 2293.817 604.673, 2281.500 603.057 C 2274.985 602.202, 2220.275 598.227, 2211 597.934 C 2206.647 597.797, 2235.050 590.075, 2245.755 588.485 C 2260.960 586.227, 2280.743 585.681, 2305.999 586.820 C 2318.374 587.378, 2328.656 587.678, 2328.849 587.485 C 2329.839 586.494, 2294.992 534.055, 2258.416 481.500 C 2240.743 456.104, 2216.329 419.838, 2190.762 381 C 2170.316 349.941, 2156.828 338.288, 2133.503 331.529 C 2108.974 324.421, 2075.548 326.125, 2043.337 336.125 C 2032.974 339.343, 2030 339.393, 2030 336.351 C 2030 328.781, 2064.485 312.272, 2090.090 307.585 C 2096.907 306.337, 2124.841 303.174, 2131 302.953 C 2133.224 302.873, 2115.703 294.142, 2106.693 290.840 C 2086.215 283.336, 2043.570 278.342, 2022.500 280.982 C 2007.185 282.900, 1986.912 290.953, 1971.656 301.179 C 1934.521 326.071, 1881.652 382.435, 1817.994 465 C 1775.070 520.673, 1747.955 551.394, 1736.631 557.184 C 1734.260 558.396, 1732.404 558.804, 1731.837 558.237 C 1730.476 556.876, 1734.020 548.191, 1741.115 535.500 C 1749.010 521.378, 1754 511.030, 1754 508.778 C 1754 506.290, 1749.768 506.455, 1737.500 509.419 C 1717.390 514.279, 1699.059 515.244, 1679 512.500 C 1673.225 511.710, 1667.756 511.049, 1666.846 511.032 C 1665.516 511.006, 1666.471 514.150, 1671.733 527.123 C 1678.275 543.250, 1680.484 552, 1678.014 552 C 1676.050 552, 1667.901 545.646, 1662.392 539.820 C 1642.204 518.469, 1617.310 469.924, 1585.309 389.500 C 1567.481 344.695, 1558.693 324.293, 1547.836 302.500 C 1507.818 222.174, 1474.678 197.327, 1405.170 195.537 C 1396.552 195.315, 1385 195.532, 1379.500 196.020 M 1358.729 228.038 C 1351.573 229.241, 1341.569 232.688, 1333.636 236.683 C 1318.200 244.457, 1298.976 257.308, 1296.855 261.271 C 1295.784 263.271, 1295.929 263.301, 1303.631 262.682 C 1307.959 262.334, 1316 260.956, 1321.500 259.619 C 1348.737 252.999, 1362.937 250.969, 1382.179 250.944 C 1398.662 250.923, 1412.681 253.224, 1434.500 259.532 C 1443.300 262.076, 1453.313 264.408, 1456.750 264.715 C 1462.272 265.209, 1463 265.068, 1463 263.505 C 1463 261.086, 1457.356 255.963, 1447.074 249.050 C 1424.102 233.603, 1402.607 226.891, 1376.843 227.118 C 1369.504 227.182, 1361.353 227.596, 1358.729 228.038 M 1025.500 351.101 C 987.752 355.038, 950.711 372.837, 925.406 399.197 C 907.787 417.550, 898.585 435.741, 895.563 458.191 C 886.880 522.703, 882.826 736.911, 889.455 781.022 C 892.093 798.584, 906.507 844.140, 928.204 903.500 C 957.321 983.157, 969.997 1019.190, 980.445 1052 C 990.132 1082.423, 1000.495 1103.347, 1011.250 1114.198 C 1016.428 1119.423, 1020 1121.447, 1020 1119.157 C 1020 1118.693, 1019.082 1115.655, 1017.960 1112.407 C 1014.844 1103.389, 1010.452 1085.239, 1007.093 1067.500 C 997.921 1019.064, 998.273 1001.543, 1008.864 979.500 C 1020.608 955.056, 1041.759 937.469, 1068.605 929.825 C 1078.205 927.092, 1099.004 926.606, 1108 928.906 C 1133.131 935.329, 1153.569 950.244, 1168.674 973.184 C 1183.004 994.946, 1203.039 1039.571, 1205.487 1055.179 C 1205.804 1057.202, 1206.949 1059.902, 1208.031 1061.179 C 1209.979 1063.477, 1210.014 1063.481, 1211.530 1061.517 C 1217.473 1053.821, 1220.183 1021.442, 1216.595 1001 C 1212.450 977.385, 1194.819 912.298, 1162.958 803 C 1149.704 757.532, 1146.342 729.061, 1147.310 670.500 C 1147.926 633.239, 1148.977 615.949, 1154.483 552.500 C 1158.921 501.359, 1161.006 470.376, 1161.281 451.480 L 1161.500 436.461 1158.213 429.980 C 1152.931 419.569, 1142.539 406.482, 1128.028 391.972 C 1100.047 363.991, 1081.429 354.078, 1051.144 351.039 C 1039.650 349.886, 1037.086 349.892, 1025.500 351.101 M 1256.500 352.666 C 1240.643 354.604, 1232.524 357.633, 1225.278 364.311 C 1221.882 367.442, 1220.556 369.676, 1219.001 374.890 C 1213.682 392.721, 1210.284 429, 1213.932 429 C 1214.394 429, 1224.162 424.462, 1235.636 418.915 C 1273.262 400.729, 1290.424 394.220, 1320.828 386.606 C 1345.890 380.329, 1373.698 376.040, 1406.277 373.425 C 1411.105 373.038, 1415.244 372.415, 1415.474 372.042 C 1416.121 370.995, 1383.745 361.201, 1372.500 359.042 C 1360.931 356.819, 1340.526 354.454, 1320.500 353.015 C 1307.480 352.079, 1263.277 351.838, 1256.500 352.666 M 994.500 390.444 C 959.694 399.515, 929.614 420.504, 919.042 443.096 C 915.104 451.513, 914.011 458.683, 916.521 459.647 C 919.314 460.718, 925.497 456.877, 941.160 444.337 C 975.233 417.058, 987.585 411.414, 1038 400.087 C 1048.936 397.630, 1051.323 396.532, 1049 395.030 C 1047.452 394.029, 1033.999 390.859, 1023.566 389.036 C 1014.208 387.402, 1004.339 387.880, 994.500 390.444 M 1394.461 401.099 C 1355.212 403.056, 1320.520 409.947, 1286.028 422.640 C 1262.394 431.337, 1226.668 450.991, 1215.063 461.680 C 1199.999 475.555, 1196.750 488.709, 1193.004 551 C 1191.146 581.884, 1188.011 620.025, 1185.912 637.293 C 1184.789 646.529, 1184.012 654.719, 1184.185 655.494 C 1184.377 656.354, 1189.560 652.214, 1197.500 644.858 C 1214.684 628.938, 1223.846 621.592, 1239.478 611.196 C 1274.272 588.057, 1327.732 567.709, 1375.508 559.421 C 1393.774 556.252, 1426.560 555.020, 1442.543 556.902 C 1471.524 560.314, 1494.941 568.433, 1516.854 582.665 C 1526.536 588.953, 1535.739 594, 1537.524 594 C 1539.357 594, 1541.009 574.746, 1543.075 529.286 C 1544.665 494.291, 1544.004 469.150, 1541.314 462.362 C 1534.026 443.975, 1509.971 421.355, 1485.519 409.896 C 1474.264 404.622, 1462.892 402.335, 1441.500 401.045 C 1422.800 399.917, 1418.065 399.922, 1394.461 401.099 M 1399.062 582.120 C 1374.204 583.542, 1362.017 586.185, 1360.355 590.516 C 1359.262 593.366, 1361.521 594.163, 1374.646 595.558 C 1396.521 597.882, 1416.480 604.380, 1443.981 618.133 C 1479.824 636.056, 1498.329 650.010, 1523.328 677.961 L 1530 685.421 1530 662.894 C 1530 630.035, 1528.783 625.571, 1516.796 614.470 C 1509.492 607.705, 1500.783 601.893, 1489.500 596.252 C 1472.529 587.767, 1456.390 583.605, 1434.278 582.011 C 1419.256 580.928, 1419.939 580.926, 1399.062 582.120 M 689.500 617.600 C 666.239 622.791, 646.855 634.337, 625.169 655.921 C 612.959 668.072, 607.771 676.199, 610.488 678.916 C 612.865 681.294, 620.823 679.075, 637.168 671.479 C 664.586 658.737, 674.385 655.960, 694 655.374 C 705.091 655.042, 707.054 655.187, 705 656.185 C 703.625 656.853, 695.212 660.865, 686.304 665.101 C 677.396 669.338, 666.146 675.374, 661.304 678.515 C 635.599 695.189, 613.465 718.450, 607.089 735.491 C 605.937 738.569, 603.902 747.031, 602.567 754.294 C 597.569 781.470, 586.915 859.260, 585.415 879.523 C 584.280 894.856, 585.995 894.498, 608.962 874.600 C 617.138 867.516, 627.803 858.857, 632.664 855.358 C 642.513 848.266, 661.002 838.760, 668.193 837.090 C 674.609 835.600, 680 835.685, 680 837.277 C 680 839.036, 668.686 849.862, 655.500 860.718 C 625.655 885.292, 608.373 909.331, 602.574 934.339 C 597.753 955.123, 599.710 959.202, 652.061 1037.500 C 697.048 1104.783, 714.114 1128.500, 717.543 1128.500 C 720.670 1128.500, 719.728 1122.969, 713.945 1107.372 C 707.638 1090.362, 705.915 1082.437, 705.827 1070.049 C 705.649 1044.823, 716.267 1023.187, 735.593 1009.397 C 762.675 990.071, 790.579 991.668, 818.514 1014.140 C 839.306 1030.866, 868.694 1072.599, 876.512 1096.500 C 877.411 1099.250, 878.648 1104.933, 879.260 1109.130 C 880.313 1116.357, 880.224 1117.214, 877.570 1125.375 C 872.595 1140.669, 859.771 1160.603, 847.327 1172.389 C 843.847 1175.684, 841 1178.692, 841 1179.074 C 841 1179.455, 841.881 1179.997, 842.958 1180.279 C 846.604 1181.232, 853.461 1176.602, 864.055 1166.032 C 881.498 1148.627, 892.957 1131.506, 896.480 1117.585 C 901.591 1097.386, 900.085 1054.319, 893.467 1031.484 C 887.081 1009.446, 862.223 958.100, 839.737 920.500 C 811.533 873.340, 781.255 833.954, 770.795 830.820 C 766.809 829.626, 764.365 826.836, 765.582 824.868 C 766.683 823.087, 774.457 824.661, 788.500 829.510 C 795.650 831.978, 803.253 833.999, 805.395 833.999 L 809.291 834 808.719 821.750 C 807.752 801.064, 799.938 759.580, 792.642 736.407 C 786.795 717.836, 786.703 714.530, 792.120 717.730 C 795.850 719.933, 804.774 730.531, 817.595 747.984 L 827.500 761.467 828.302 743.484 C 829.353 719.919, 828.519 684.307, 826.727 676.243 C 825.048 668.690, 823.815 667.277, 809.500 656.504 C 783.525 636.957, 761.144 625.483, 736.008 618.828 C 725.596 616.071, 699.445 615.380, 689.500 617.600 M 1282.007 617.529 C 1274.786 619.572, 1266.820 624.008, 1247.911 636.515 C 1223.592 652.601, 1216.635 659.443, 1212.849 671 C 1211.062 676.452, 1210.643 680.667, 1210.245 697.138 C 1209.340 734.609, 1212.212 749.997, 1237.464 843 C 1242.169 860.325, 1253.690 903.750, 1263.067 939.500 C 1284.963 1022.973, 1284.472 1021.232, 1288.482 1029.743 C 1291.754 1036.688, 1297.524 1045, 1299.072 1045 C 1299.478 1045, 1299.218 1042.638, 1298.495 1039.750 C 1296.607 1032.211, 1295.999 1024.587, 1295.108 997.268 C 1294.194 969.234, 1295.080 947.678, 1297.487 939.398 C 1301.306 926.259, 1310.696 911.043, 1321.490 900.500 C 1338.449 883.936, 1361.829 875.916, 1393 875.972 C 1422.247 876.025, 1441.330 882.972, 1459.521 900.191 C 1472.355 912.340, 1479.752 924.376, 1492.074 953.161 C 1503.699 980.318, 1513.632 1009.340, 1518.508 1030.392 C 1520.365 1038.413, 1521.536 1041.794, 1522.103 1040.780 C 1524.170 1037.087, 1533.102 1013.189, 1535.024 1006.211 C 1541.398 983.065, 1544.127 952.272, 1542.211 925.124 C 1540.823 905.449, 1539.329 894.851, 1530.462 841.765 C 1515.251 750.689, 1505.701 704.438, 1498.955 689.170 C 1496.048 682.592, 1481.375 668.747, 1467.586 659.572 C 1445.653 644.978, 1411.570 629.322, 1389.500 623.702 C 1369.825 618.693, 1353.692 617.113, 1315.500 616.456 C 1292.142 616.054, 1286.589 616.232, 1282.007 617.529 M 2242.500 638.446 C 2224.457 642.076, 2218.999 643.357, 2219.010 643.956 C 2219.034 645.221, 2237.140 651.913, 2244.500 653.378 C 2266.560 657.769, 2315.743 661.184, 2329.373 659.271 C 2333.652 658.671, 2337.424 657.909, 2337.754 657.579 C 2340.460 654.874, 2312.419 644.983, 2286.162 639.381 C 2269.038 635.728, 2257.260 635.475, 2242.500 638.446 M 1313.757 652.968 C 1300.036 655.469, 1276.484 666.255, 1263.500 675.984 C 1255.984 681.616, 1243.330 694.663, 1244.372 695.705 C 1245.138 696.472, 1258.952 693.376, 1283 687.049 C 1318.031 677.832, 1339.730 674.201, 1376 671.489 C 1397.911 669.850, 1408.778 668.555, 1409.881 667.452 C 1411.463 665.870, 1399.865 659.945, 1390.500 657.551 C 1378.114 654.384, 1363.256 652.864, 1341 652.486 C 1328.625 652.275, 1316.366 652.492, 1313.757 652.968 M 1401 712.595 C 1392.402 714.175, 1364.141 718.618, 1312.500 726.509 C 1266.664 733.512, 1253.131 736.718, 1254.241 740.309 C 1254.876 742.364, 1261.672 745.099, 1270.246 746.750 C 1282.634 749.135, 1327.037 749.091, 1339.997 746.681 C 1371.140 740.889, 1415 722.118, 1415 714.581 C 1415 712.715, 1412.789 710.990, 1410.550 711.108 C 1409.422 711.168, 1405.125 711.837, 1401 712.595 M 1023.500 735.084 C 983.642 745.555, 970.034 751.344, 954.276 764.530 C 940.202 776.308, 928.167 790.749, 930.978 792.486 C 932.367 793.345, 947.450 788.109, 967.251 779.896 C 996.119 767.922, 1023.742 757.967, 1048.676 750.553 C 1065.892 745.434, 1075.449 741.535, 1074.510 740.016 C 1072.517 736.791, 1052.342 730.949, 1043.622 731.072 C 1040.805 731.112, 1031.750 732.917, 1023.500 735.084 M 2025.005 746.751 C 2013.363 758.723, 1999.844 790.511, 1985.985 838.500 C 1978.495 864.435, 1975.104 879.202, 1973.281 893.835 C 1971.854 905.293, 1971.792 908.881, 1972.840 919.335 C 1974.323 934.117, 1975.853 941.207, 1985.686 978.852 L 1993.352 1008.203 2005.926 1007.588 C 2066.716 1004.611, 2064.301 1004.939, 2063.370 999.782 C 2062.372 994.255, 2058.045 977.210, 2054.029 962.991 C 2046.741 937.181, 2042.322 914.637, 2038.840 885.500 C 2038.014 878.590, 2037.548 863.531, 2037.588 845 C 2037.640 820.832, 2038.049 812.337, 2039.854 798 C 2041.066 788.375, 2042.334 773.965, 2042.672 765.977 C 2043.208 753.294, 2043.063 751.014, 2041.523 747.977 C 2036.874 738.813, 2033.004 738.526, 2025.005 746.751 M 2245.100 833.048 C 2235.378 835.594, 2230.632 838.501, 2223.166 846.481 C 2218.734 851.220, 2215.605 855.946, 2212.041 863.287 C 2202.280 883.395, 2198.257 902.987, 2194.873 946.911 L 2193.608 963.322 2198.468 967.721 C 2209.355 977.578, 2220.012 985.329, 2229 989.926 C 2258.440 1004.985, 2296.623 1008.516, 2312.722 997.667 C 2320.875 992.173, 2321.992 988.426, 2324.091 959.500 C 2325.357 942.057, 2324.756 900.580, 2323.055 888 C 2320.559 869.534, 2314.625 853.888, 2306.969 845.582 C 2301.798 839.973, 2291.234 834.548, 2281.500 832.504 C 2271.459 830.396, 2254.244 830.653, 2245.100 833.048 M 1376 907.485 C 1344.614 914.556, 1324.119 938.056, 1321.051 970.489 C 1319.181 990.251, 1325.455 1048.516, 1332.084 1072.955 C 1339.105 1098.837, 1356.566 1111.888, 1386.574 1113.680 C 1417.543 1115.529, 1449.003 1102.508, 1475.007 1077.079 C 1492.394 1060.075, 1492.999 1050.428, 1479.303 1008.526 C 1464.126 962.093, 1452.852 939.139, 1437.879 924.189 C 1430.919 917.240, 1419.997 911.187, 1409.500 908.462 C 1400.751 906.191, 1383.921 905.700, 1376 907.485 M 1074.638 962.521 C 1064.268 965.146, 1056.285 969.679, 1048.492 977.368 C 1040.924 984.834, 1037.410 990.589, 1034.338 1000.543 C 1031.523 1009.667, 1031.802 1042.725, 1034.845 1060.500 C 1040.764 1095.075, 1050.806 1123.878, 1060.886 1135.190 C 1067.583 1142.706, 1073.210 1144.440, 1091 1144.470 C 1107.281 1144.497, 1116 1143.038, 1132.651 1137.498 C 1157.530 1129.223, 1177.499 1115.279, 1183.117 1102.259 C 1185.637 1096.419, 1185.793 1086.190, 1183.495 1077.500 C 1180.757 1067.149, 1173.234 1049.372, 1160.872 1024.047 C 1140.216 981.729, 1131.650 971.520, 1110.733 964.289 C 1101.504 961.099, 1083.700 960.227, 1074.638 962.521 M 768.500 1026.094 C 755.414 1028.031, 742.299 1037.856, 736.165 1050.316 C 733.446 1055.840, 733 1057.825, 733 1064.415 C 733 1083.724, 743.969 1115.939, 764.557 1157.095 L 771.858 1171.691 782.679 1170.315 C 805.801 1167.374, 820.912 1160.001, 837.634 1143.500 C 849.021 1132.263, 852.694 1126.224, 853.638 1117.185 C 855.005 1104.111, 846.123 1086.139, 825.824 1060.902 C 815.918 1048.588, 801.877 1034.179, 796.500 1030.812 C 789.067 1026.157, 779.246 1024.502, 768.500 1026.094 M 2639 1077.703 C 2629.358 1078.287, 2588.972 1081.813, 2539.188 1086.419 C 2512.617 1088.877, 2473.746 1092.140, 2452.809 1093.671 L 2414.743 1096.454 2415.253 1116.977 C 2415.588 1130.422, 2416.709 1145.087, 2418.504 1159.500 C 2420.011 1171.600, 2421.361 1181.635, 2421.505 1181.800 C 2421.648 1181.964, 2433.181 1181.192, 2447.133 1180.084 C 2461.085 1178.976, 2477.482 1177.769, 2483.571 1177.403 L 2494.643 1176.738 2496.302 1188.619 C 2498.986 1207.842, 2502.649 1248.576, 2508.475 1324 C 2514.407 1400.792, 2521.069 1484.418, 2522.167 1495.876 L 2523.354 1508.252 2543.927 1507.590 C 2578.177 1506.488, 2600.631 1504.500, 2608.904 1501.839 L 2612.308 1500.743 2611.683 1476.122 C 2610.849 1443.251, 2608.337 1405.487, 2601.496 1323 C 2591.807 1206.174, 2590.437 1176.887, 2594.406 1171.459 C 2596.624 1168.426, 2605.887 1166.928, 2628.277 1165.983 C 2640.254 1165.477, 2651.758 1164.604, 2653.842 1164.043 C 2658.074 1162.903, 2661.334 1159.907, 2662.933 1155.685 C 2666.001 1147.588, 2661.085 1098.357, 2655.794 1084.189 C 2653.746 1078.705, 2651.265 1076.797, 2646.685 1077.185 C 2645.483 1077.287, 2642.025 1077.520, 2639 1077.703 M 2298.500 1098.700 C 2249.828 1103.121, 2208.228 1134.578, 2192.967 1178.500 C 2181.626 1211.139, 2184.604 1251.674, 2200.680 1283.500 C 2213.051 1307.990, 2233.418 1325.803, 2285.185 1357.408 C 2308.929 1371.906, 2325.916 1387.021, 2331.700 1398.797 C 2334.105 1403.697, 2334.498 1405.698, 2334.486 1413 C 2334.474 1420.250, 2334.083 1422.235, 2331.825 1426.500 C 2327.797 1434.108, 2322.367 1439.788, 2316.134 1442.914 C 2296.657 1452.681, 2266.742 1451.941, 2232.697 1440.848 C 2217.768 1435.984, 2217.542 1436.048, 2215.985 1445.557 C 2215.450 1448.826, 2215.009 1466.879, 2215.006 1485.676 L 2215 1519.852 2225.712 1523.990 C 2246.036 1531.840, 2258.843 1533.459, 2294.913 1532.737 C 2328.264 1532.070, 2345.412 1529.277, 2359.500 1522.218 C 2373.847 1515.030, 2392.164 1499.343, 2403.515 1484.523 C 2419.462 1463.704, 2428.494 1439.316, 2429.636 1414 C 2431.472 1373.284, 2413.939 1335.803, 2379.743 1307.340 C 2368.002 1297.568, 2359.347 1291.838, 2339.866 1280.941 C 2283.572 1249.452, 2267.348 1229.578, 2278.338 1205.572 C 2281.950 1197.683, 2287.864 1191.790, 2296.282 1187.694 C 2310.620 1180.717, 2323.976 1180.164, 2350.941 1185.429 C 2377.292 1190.574, 2379.361 1190.730, 2382.290 1187.801 C 2384.680 1185.411, 2384.709 1185.139, 2385.254 1160.443 C 2385.625 1143.611, 2386.384 1131.999, 2387.586 1124.734 C 2389.349 1114.078, 2389.347 1113.941, 2387.342 1111.234 C 2383.631 1106.223, 2367.255 1101.309, 2346.789 1099.065 C 2337.820 1098.081, 2307.805 1097.854, 2298.500 1098.700 M 2002.500 1128.070 C 1970.854 1129.013, 1963.878 1130.461, 1960.627 1136.759 C 1958.757 1140.383, 1958.466 1142.325, 1940.999 1267.500 C 1932.711 1326.900, 1921.236 1408.350, 1915.501 1448.500 C 1904.065 1528.544, 1902.243 1542.307, 1901.798 1552 L 1901.500 1558.500 1911 1558.813 C 1922.402 1559.189, 1961.521 1556.368, 1971.930 1554.419 C 1988.801 1551.260, 1991.665 1545.961, 1996.479 1509 C 1997.876 1498.275, 1999.722 1487.600, 2000.581 1485.278 C 2003.572 1477.199, 2009.998 1474.051, 2027.731 1471.976 C 2043.583 1470.122, 2083.444 1467.239, 2084.156 1467.895 C 2084.517 1468.228, 2088.193 1481.141, 2092.326 1496.591 C 2102.517 1534.696, 2104.756 1541.799, 2106.943 1542.970 C 2110.295 1544.764, 2166.755 1539.749, 2187.250 1535.837 C 2194.232 1534.505, 2194.185 1534.814, 2189.945 1518.358 C 2182.493 1489.431, 2179.584 1480.054, 2127.329 1316.500 C 2103.957 1243.350, 2080.971 1171.350, 2076.248 1156.500 C 2071.525 1141.650, 2067.400 1129.219, 2067.080 1128.876 C 2066.109 1127.832, 2026.905 1127.343, 2002.500 1128.070 M 1808.500 1142.069 C 1803 1142.572, 1783.200 1144.348, 1764.500 1146.015 C 1688.232 1152.814, 1647.349 1157.251, 1645.692 1158.908 C 1644.120 1160.480, 1646.905 1204.151, 1654.500 1297 C 1656.952 1326.975, 1661.214 1380.300, 1663.972 1415.500 C 1671.732 1514.562, 1676.474 1564.971, 1678.836 1573.500 L 1679.666 1576.500 1696.583 1576.318 C 1705.996 1576.216, 1734.791 1574.351, 1761.500 1572.112 C 1787.900 1569.899, 1818.950 1567.596, 1830.500 1566.994 C 1868.961 1564.988, 1876.025 1563.695, 1878.083 1558.282 C 1880.855 1550.992, 1875.835 1501.980, 1870.502 1484.250 C 1868.640 1478.062, 1871.447 1478.458, 1843.767 1480.482 C 1805.338 1483.292, 1761.779 1486.113, 1761.531 1485.807 C 1761.394 1485.638, 1760.309 1478.075, 1759.121 1469 C 1756.314 1447.563, 1755.005 1429.054, 1755.002 1410.750 L 1755 1396 1771.750 1395.995 C 1804.556 1395.986, 1839.583 1392.469, 1845.505 1388.589 C 1848.986 1386.308, 1849.495 1382.991, 1848.120 1371.536 C 1846.264 1356.071, 1845.061 1336.852, 1845.029 1322.149 L 1845 1308.797 1838.250 1309.419 C 1820.845 1311.021, 1772.297 1314.112, 1762 1314.274 C 1749.570 1314.468, 1746.335 1313.570, 1745.599 1309.721 C 1745.366 1308.500, 1744.181 1294.580, 1742.967 1278.788 C 1740.776 1250.280, 1740.866 1240.933, 1743.365 1237.515 C 1745.275 1234.903, 1754.030 1233.082, 1770 1231.975 C 1807.510 1229.374, 1814.479 1228.704, 1828.363 1226.367 C 1836.538 1224.991, 1844.193 1223.497, 1845.373 1223.048 L 1847.521 1222.232 1846.318 1198.866 C 1845.056 1174.355, 1843.302 1151.425, 1842.330 1146.720 C 1842.014 1145.191, 1840.802 1143.429, 1839.637 1142.806 C 1836.831 1141.304, 1820.958 1140.928, 1808.500 1142.069 M 1431 1174.100 C 1415.398 1175.031, 1371.239 1179.479, 1359.500 1181.301 L 1351.500 1182.542 1351.756 1192.521 C 1352.076 1205.017, 1356.343 1260.746, 1364.005 1352.500 C 1370.442 1429.575, 1376.315 1505.271, 1378.009 1533 C 1379.970 1565.103, 1382.713 1589.484, 1385.055 1595.645 C 1387.326 1601.618, 1398.862 1602.329, 1439.178 1598.980 C 1507.441 1593.309, 1542.883 1586.659, 1565.447 1575.287 C 1580.227 1567.839, 1595.929 1553.468, 1606.189 1538 C 1620.782 1515.998, 1626.004 1498.233, 1625.996 1470.619 C 1625.986 1436.099, 1616.490 1411.147, 1594.899 1388.908 C 1583.695 1377.367, 1576.273 1372.687, 1565.750 1370.526 C 1563.984 1370.164, 1563 1369.321, 1563 1368.171 C 1563 1367.186, 1566.999 1361.743, 1571.888 1356.075 C 1584.773 1341.134, 1591.711 1328.269, 1596.066 1311.242 C 1606.506 1270.429, 1593.605 1224.075, 1564.289 1197.061 C 1555.319 1188.797, 1545.399 1182.537, 1537.254 1180.002 C 1518.213 1174.076, 1473.235 1171.577, 1431 1174.100 M 1268.500 1186.601 C 1265.750 1186.801, 1255.400 1187.453, 1245.500 1188.050 C 1216.356 1189.810, 1198 1192.675, 1198 1195.465 C 1198 1195.777, 1196.467 1201.987, 1194.594 1209.266 C 1189.776 1227.985, 1183.416 1256.969, 1173.478 1305.500 C 1165.386 1345.017, 1154.289 1395.945, 1151.968 1404.214 C 1151.395 1406.256, 1150.464 1408.213, 1149.900 1408.562 C 1144.802 1411.713, 1128.534 1374.032, 1081.964 1251.203 L 1065.549 1207.907 1036.524 1208.501 C 1020.561 1208.828, 1000.308 1209.541, 991.518 1210.085 C 974.321 1211.150, 971.753 1211.946, 969.858 1216.802 C 968.386 1220.576, 969.308 1241.234, 972.365 1273 C 976.688 1317.928, 994.782 1545.415, 999.116 1609.333 C 1000.658 1632.076, 998.983 1630.571, 1022.463 1630.311 C 1039.913 1630.118, 1068.258 1627.860, 1077.901 1625.896 L 1083.302 1624.796 1082.694 1609.648 C 1081.929 1590.591, 1079.372 1561.083, 1072.500 1492 C 1064.906 1415.657, 1061.837 1381.470, 1062.194 1377.184 C 1062.454 1374.054, 1064.327 1378.083, 1074.661 1404 C 1081.349 1420.775, 1090.520 1444.175, 1095.040 1456 C 1110.385 1496.146, 1126.912 1535.879, 1131.054 1542.586 C 1134.761 1548.587, 1143.703 1549.327, 1169.864 1545.799 C 1184.274 1543.855, 1186.330 1543.347, 1187.077 1541.546 C 1187.544 1540.421, 1191.794 1520.825, 1196.522 1498 C 1214.793 1409.797, 1224.580 1368, 1226.964 1368 C 1228.614 1368, 1229.118 1373.182, 1230.033 1399.500 C 1232.044 1457.395, 1238.815 1568.144, 1242.107 1596.983 C 1243.480 1609.010, 1244.815 1611.720, 1249.752 1612.510 C 1251.814 1612.840, 1254.382 1613.293, 1255.461 1613.517 C 1260.630 1614.588, 1312.515 1610.131, 1321.761 1607.821 C 1325.060 1606.997, 1326.167 1606.184, 1326.660 1604.220 C 1327.592 1600.504, 1326.300 1566.924, 1324.535 1549 C 1322.625 1529.611, 1305.471 1323.973, 1300.051 1255.500 C 1294.509 1185.480, 1295.027 1189.769, 1291.947 1188.299 C 1289.140 1186.959, 1276.349 1186.033, 1268.500 1186.601 M 873 1217.111 C 848.449 1218.182, 837.534 1219.560, 832 1222.284 C 826.600 1224.943, 825.034 1227.751, 825.015 1234.813 C 824.996 1241.720, 828.064 1282.700, 833.002 1341.500 C 835.173 1367.350, 840.799 1434.400, 845.504 1490.500 C 850.209 1546.600, 854.510 1596.775, 855.062 1602 C 856.655 1617.079, 860.090 1640.435, 860.827 1641.192 C 861.762 1642.152, 917.662 1639.285, 933.464 1637.465 C 940.594 1636.644, 946.810 1635.590, 947.277 1635.123 C 948.733 1633.667, 945.146 1581.726, 937.497 1493.500 C 933.019 1441.854, 923.798 1327.943, 920.094 1278.500 C 918.981 1263.650, 917.307 1243.513, 916.374 1233.750 L 914.677 1216 903.088 1216.152 C 896.715 1216.235, 883.175 1216.667, 873 1217.111 M 657 1232.691 C 649.245 1233.073, 607.207 1236.782, 601.479 1237.591 L 597.458 1238.158 598.695 1258.829 C 601.137 1299.608, 610.305 1413.685, 621.533 1543 C 629.606 1635.981, 631.956 1659.351, 633.318 1660.219 C 634.619 1661.048, 640.025 1660.790, 682 1657.891 C 730.120 1654.569, 810.596 1647.144, 820 1645.159 L 823.500 1644.421 823.772 1630.960 C 824 1619.635, 819.898 1561.565, 818.792 1560.458 C 818.625 1560.292, 805.891 1561.053, 790.494 1562.150 C 775.097 1563.247, 752.507 1564.224, 740.293 1564.322 C 721.015 1564.477, 717.872 1564.287, 716.461 1562.882 C 715.150 1561.577, 714.368 1555.300, 712.413 1530.382 C 711.081 1513.397, 707.314 1467.550, 704.043 1428.500 C 690.193 1263.160, 687.693 1233.494, 687.599 1233.387 C 687.255 1232.996, 662.339 1232.429, 657 1232.691 M 471.352 1242.950 C 439.262 1246.664, 412.975 1258.643, 391.140 1279.500 C 361.223 1308.078, 343.974 1348.876, 336.811 1408 C 334.837 1424.290, 335.137 1471.229, 337.328 1489 C 345.968 1559.081, 372.096 1615.300, 411.415 1648.409 C 436.784 1669.772, 464.882 1677.935, 508.778 1676.698 C 530.702 1676.080, 541.323 1674.360, 556.500 1668.968 C 574.127 1662.707, 583.756 1656.299, 586.069 1649.291 C 589.291 1639.527, 581.494 1594.692, 572.323 1570.250 C 570.274 1564.789, 568.578 1564.830, 562.679 1570.483 C 549.085 1583.509, 516.357 1591.917, 496 1587.613 C 472.386 1582.621, 452.684 1563.157, 441.717 1533.987 C 434.767 1515.501, 433.500 1501.398, 433.500 1442.500 C 433.500 1386.965, 433.872 1383.273, 440.974 1368.294 C 459.154 1329.954, 485.588 1320.985, 542.430 1333.869 L 555.179 1336.759 554.740 1298.629 C 554.450 1273.531, 553.902 1259.258, 553.135 1256.866 C 551.193 1250.809, 548.526 1248.279, 542.788 1247.048 C 526.494 1243.554, 486.139 1241.239, 471.352 1242.950 M 2019.607 1250.500 C 2019.219 1255.450, 2018.037 1266.250, 2016.980 1274.500 C 2012.719 1307.775, 2006.023 1377.190, 2006.007 1388.250 L 2006 1393 2015.250 1392.983 C 2025.571 1392.963, 2040.679 1391.577, 2048.937 1389.891 C 2052.635 1389.136, 2055.308 1387.846, 2057.298 1385.856 C 2060.043 1383.111, 2060.180 1382.598, 2059.540 1377.478 C 2057.237 1359.038, 2029.782 1262.134, 2022.149 1245.500 L 2020.313 1241.500 2019.607 1250.500 M 1453.064 1252.330 C 1447.105 1253.902, 1446.735 1255.527, 1447.458 1277 C 1448.489 1307.615, 1451.727 1336.408, 1454.640 1340.853 C 1456.145 1343.150, 1456.603 1343.244, 1463.862 1342.730 C 1472.880 1342.092, 1487.918 1337.455, 1496.460 1332.678 C 1503.367 1328.815, 1506.065 1324.513, 1508.168 1314.008 C 1509.873 1305.492, 1509.835 1286.956, 1508.099 1280 C 1504.447 1265.370, 1495.128 1255.536, 1481.715 1252.158 C 1475.892 1250.692, 1458.891 1250.794, 1453.064 1252.330 M 1459.011 1418.750 C 1459.018 1420.263, 1460.141 1433.425, 1461.508 1448 C 1462.875 1462.575, 1464.279 1481.925, 1464.629 1491 C 1465.396 1510.921, 1466.173 1513.431, 1472.066 1515.018 C 1481.528 1517.566, 1505.710 1512.574, 1518.690 1505.394 C 1530.272 1498.987, 1533.428 1492.026, 1534.655 1470.183 C 1535.995 1446.313, 1529.942 1430.430, 1516.501 1422.553 C 1507.983 1417.561, 1498.772 1416, 1477.840 1416 L 1459 1416 1459.011 1418.750 M 2005 1617.603 C 1985.162 1619.366, 1971.045 1623.481, 1950.500 1633.486 C 1928.857 1644.027, 1913.916 1655.065, 1895.500 1674.121 C 1874.434 1695.918, 1859.391 1722.336, 1852.015 1750.484 C 1848.038 1765.664, 1846.932 1774.145, 1846.940 1789.406 C 1846.955 1822.942, 1858.106 1850.937, 1880.350 1873.284 C 1895.971 1888.978, 1908.427 1895.762, 1957.500 1915.300 C 2019.087 1939.820, 2087.883 1963.456, 2103.817 1965.570 C 2112.787 1966.760, 2127.019 1962.234, 2139.474 1954.231 C 2155.821 1943.728, 2181.217 1913.024, 2202.526 1878 C 2207.271 1870.201, 2227.211 1831.434, 2229.273 1826 C 2231.027 1821.377, 2228.003 1854.246, 2225.455 1867.500 C 2220.247 1894.588, 2208.708 1920.233, 2191.577 1942.795 C 2186.859 1949.007, 2183 1954.483, 2183 1954.963 C 2183 1955.443, 2182.727 1956.548, 2182.393 1957.418 C 2181.385 1960.045, 2187.120 1959.356, 2193.293 1956.109 C 2221.582 1941.228, 2247.798 1912.783, 2264.822 1878.500 C 2279.390 1849.163, 2286.628 1821.143, 2287.709 1789.896 C 2288.575 1764.879, 2286.015 1748.381, 2276.914 1720.314 C 2268.427 1694.140, 2255.375 1664.450, 2248.973 1656.750 L 2245.854 1653 2237.763 1653 C 2229.611 1653, 2212 1655.792, 2212 1657.084 C 2212 1657.467, 2215.206 1663.567, 2219.124 1670.640 C 2234.829 1698.992, 2240.488 1711.912, 2238.203 1714.197 C 2236.588 1715.812, 2228.775 1710.323, 2216.500 1698.951 C 2184.291 1669.113, 2168.202 1657.694, 2134.602 1640.823 C 2106.863 1626.895, 2091.611 1621.455, 2073.500 1619.031 C 2065.419 1617.950, 2013.320 1616.863, 2005 1617.603 M 2003.625 1662.419 C 1995.006 1665.602, 1988.928 1674.131, 1973.995 1704 C 1952.491 1747.012, 1936.769 1772.727, 1913.468 1803 C 1901.499 1818.549, 1894.251 1829.017, 1889.008 1838.323 C 1885.933 1843.781, 1885.802 1844.395, 1886.921 1848.130 C 1889.325 1856.153, 1905.815 1869.453, 1925.608 1879.332 C 1964.987 1898.986, 2004.320 1907.736, 2030.043 1902.565 C 2072.298 1894.071, 2107.780 1855.209, 2121.503 1802.391 C 2128.684 1774.753, 2126.451 1751.014, 2114.694 1730.005 C 2108.378 1718.717, 2091.896 1702.561, 2076.042 1692.115 C 2063.312 1683.727, 2034.757 1668.701, 2023.486 1664.459 C 2015.108 1661.305, 2008.485 1660.625, 2003.625 1662.419 M 1776.500 1691.650 C 1773.200 1691.839, 1762.175 1692.892, 1752 1693.991 C 1736.125 1695.704, 1692.302 1699.370, 1614.500 1705.493 C 1604.050 1706.316, 1574.350 1708.575, 1548.500 1710.513 C 1458.151 1717.287, 1441.447 1719.809, 1436.451 1727.434 C 1435.186 1729.366, 1434.518 1733.533, 1433.911 1743.277 C 1433.459 1750.550, 1432.780 1758.975, 1432.404 1762 L 1431.720 1767.500 1429.208 1762 C 1426.273 1755.573, 1409.829 1720.583, 1409.621 1720.324 C 1409.544 1720.226, 1402.735 1721.001, 1394.490 1722.045 C 1376.928 1724.269, 1333.080 1727.965, 1241 1734.982 C 1146.303 1742.199, 1066.786 1748.529, 1020.500 1752.534 C 967.620 1757.110, 967 1757.174, 967 1758.017 C 967 1759.758, 982.529 1772.622, 998.882 1784.429 C 1048.879 1820.526, 1099.100 1839.902, 1162.500 1847.555 C 1180.784 1849.762, 1222.491 1850.535, 1245 1849.084 C 1265.910 1847.737, 1291.058 1845.030, 1311 1841.980 C 1326.171 1839.659, 1382.944 1830.293, 1387.375 1829.379 C 1389.941 1828.850, 1388.486 1827.870, 1373.875 1820.290 C 1347.338 1806.522, 1339.343 1801.956, 1335.330 1798.281 C 1331.640 1794.901, 1331.593 1794.770, 1333.520 1793.304 C 1336.400 1791.114, 1358.542 1792.188, 1377.500 1795.436 C 1404.500 1800.062, 1431.127 1807.168, 1545 1840.137 C 1624.741 1863.225, 1679.199 1872.088, 1732.500 1870.653 C 1753.707 1870.082, 1796.207 1866.127, 1797.753 1864.580 C 1798.086 1864.247, 1796.493 1857.343, 1794.214 1849.238 C 1788.732 1829.747, 1787.012 1819.458, 1786.314 1802 C 1785.635 1785.016, 1787.059 1767.759, 1790.604 1750 C 1794.703 1729.464, 1800.235 1714.882, 1810.598 1697.293 C 1813.635 1692.138, 1812.113 1691.516, 1796.203 1691.403 C 1788.666 1691.350, 1779.800 1691.462, 1776.500 1691.650 M 2010.231 1693.644 C 2008.590 1695.302, 2006.227 1699.856, 2004.598 1704.500 C 1992.536 1738.896, 1975.527 1769.150, 1946.131 1808.500 C 1938.325 1818.950, 1930.549 1830.295, 1928.851 1833.712 C 1923.915 1843.642, 1925.762 1847.923, 1937.500 1853.761 C 1944.773 1857.378, 1971.765 1866.963, 1980.204 1868.926 C 2013.928 1876.768, 2040.726 1871.864, 2056.345 1854.994 C 2075.118 1834.717, 2095 1790.913, 2095 1769.829 C 2095 1753.932, 2084.969 1736.391, 2067.474 1721.694 C 2052.068 1708.752, 2025.577 1692.936, 2016.779 1691.427 C 2013.567 1690.876, 2012.671 1691.179, 2010.231 1693.644" stroke="none" fill="#040404" fill-rule="evenodd"></path></svg>