<?xml version="1.0" standalone="no"?>
<!DOCTYPE svg PUBLIC "-//W3C//DTD SVG 20010904//EN"
 "http://www.w3.org/TR/2001/REC-SVG-20010904/DTD/svg10.dtd">
<svg version="1.0" xmlns="http://www.w3.org/2000/svg"
 width="600.000000pt" height="434.000000pt" viewBox="0 0 600.000000 434.000000"
 preserveAspectRatio="xMidYMid meet">
<g transform="translate(0.000000,434.000000) scale(0.100000,-0.100000)"
fill="#000000" stroke="none">
<path d="M2720 4068 c-31 -4 -83 -17 -115 -29 -112 -41 -219 -180 -247 -324
-7 -33 -13 -62 -14 -64 -2 -2 -23 13 -47 33 -69 56 -121 76 -208 76 -203 0
-367 -115 -415 -292 -9 -33 -14 -101 -14 -180 0 -71 -2 -128 -5 -128 -2 0 -30
13 -62 29 -81 41 -138 54 -199 46 -109 -13 -235 -99 -278 -189 -28 -58 -71
-419 -64 -526 7 -86 45 -170 144 -308 36 -52 63 -96 60 -99 -3 -3 -146 -16
-318 -29 -195 -15 -330 -29 -356 -38 -58 -21 -108 -61 -137 -110 -42 -73 -45
-103 -30 -289 8 -95 23 -287 35 -427 11 -140 27 -278 35 -305 17 -61 72 -128
129 -158 32 -17 57 -21 111 -20 59 1 585 40 790 59 33 3 101 9 150 13 l90 8
71 -67 c204 -192 400 -258 687 -232 73 7 161 19 197 27 118 26 247 19 400 -20
191 -50 283 -59 437 -45 107 9 128 9 142 -3 55 -50 446 -205 536 -214 168 -16
338 83 419 245 85 169 86 324 2 523 -6 14 6 17 86 23 435 33 690 58 722 71 49
21 113 80 137 128 30 58 32 114 14 312 -9 99 -25 289 -35 422 -21 273 -29 303
-100 366 -84 77 -116 80 -485 48 -115 -10 -211 -17 -213 -15 -2 1 6 46 17 101
36 179 64 410 59 502 -5 113 -29 163 -189 399 -68 101 -150 225 -182 275 -33
51 -75 109 -94 129 -84 87 -234 132 -360 109 -131 -24 -191 -68 -403 -299 -68
-74 -133 -140 -145 -148 -12 -8 -41 -15 -64 -16 -35 -1 -47 3 -62 23 -19 26
-76 156 -108 252 -51 148 -149 276 -249 323 -64 30 -180 44 -272 32z m195
-135 c94 -31 159 -124 248 -353 64 -165 124 -284 163 -321 37 -36 42 -30 19
24 l-15 36 48 -6 c26 -3 65 0 87 6 21 6 41 9 43 6 3 -2 -8 -25 -23 -50 -15
-26 -25 -49 -22 -51 11 -11 75 58 172 185 141 185 267 314 340 347 50 23 67
26 134 22 46 -3 92 -12 116 -24 l40 -19 -61 -6 c-59 -5 -144 -42 -144 -62 0
-5 6 -7 13 -4 57 22 131 29 180 18 61 -13 92 -42 147 -131 19 -30 75 -113 125
-185 50 -71 101 -146 112 -165 l22 -35 -76 3 c-44 2 -95 -2 -122 -10 l-46 -13
95 -6 c111 -6 163 -27 197 -78 29 -42 30 -102 6 -294 l-16 -138 -19 33 c-31
54 -80 81 -146 81 -126 0 -188 -82 -199 -263 l-6 -86 33 -32 c49 -50 107 -76
180 -82 l65 -5 -35 -20 c-50 -28 -151 -27 -206 3 -128 66 -191 249 -165 472
17 147 47 287 66 317 9 13 15 27 12 29 -10 11 -62 -44 -82 -88 l-23 -49 -55
79 c-59 84 -117 192 -137 255 -6 20 -15 77 -19 125 l-7 87 -15 -45 c-9 -30
-14 -89 -14 -175 0 -136 -2 -128 62 -273 8 -18 -58 -42 -120 -42 -91 0 -237
55 -300 114 -37 34 -41 33 -21 -6 30 -59 86 -120 147 -159 56 -37 58 -39 30
-39 -16 0 -52 7 -79 15 -62 19 -60 19 -40 -4 36 -40 116 -66 204 -66 52 0 82
-4 82 -11 0 -22 -33 -121 -57 -169 -14 -27 -46 -75 -72 -105 -81 -96 -80 -94
-51 -86 14 4 44 21 68 37 29 20 44 25 47 17 12 -36 45 -171 42 -174 -5 -6
-510 -44 -515 -39 -2 2 12 26 32 54 36 49 81 82 186 137 51 27 185 142 176
151 -2 2 -40 -14 -85 -36 -44 -23 -131 -55 -192 -71 -91 -25 -199 -63 -276
-97 -10 -4 -13 15 -13 75 0 44 -9 133 -20 197 -29 170 -28 183 25 260 24 36
49 82 54 102 12 44 15 143 4 143 -5 0 -16 -17 -25 -38 -10 -20 -29 -50 -42
-67 l-25 -30 -1 180 c0 188 -10 252 -49 339 l-19 41 -1 -53 -1 -54 -31 27
c-112 94 -373 169 -511 147 -52 -8 -58 -7 -58 8 0 56 67 172 122 211 67 48
221 64 313 32z m-737 -315 c53 -27 137 -116 145 -154 2 -15 -4 -122 -15 -238
-23 -254 -20 -367 16 -486 14 -47 47 -160 72 -252 40 -145 45 -174 39 -223 -3
-30 -11 -53 -16 -50 -5 4 -9 13 -9 22 0 9 -18 54 -40 99 -43 89 -77 122 -143
144 -108 34 -226 -55 -227 -172 0 -37 22 -156 36 -193 7 -18 6 -19 -10 -6 -24
20 -50 74 -71 146 -9 32 -50 147 -90 255 -40 108 -79 225 -85 261 -17 91 -4
610 16 681 42 141 250 231 382 166z m602 -4 l55 -18 -70 -7 c-96 -9 -187 -34
-265 -72 -36 -18 -68 -33 -72 -35 -9 -4 2 98 14 120 4 10 23 22 41 28 48 14
233 5 297 -16z m171 -85 c46 -16 96 -54 121 -93 18 -28 19 -43 14 -155 -3 -68
-7 -125 -9 -128 -3 -2 -22 8 -42 22 -89 60 -218 71 -359 30 -113 -33 -189 -72
-256 -131 l-53 -49 6 50 c4 28 9 100 13 160 8 149 15 168 74 204 65 40 110 59
195 81 80 22 243 26 296 9z m-13 -364 c29 -9 68 -30 87 -46 33 -29 35 -35 35
-90 l0 -59 -40 44 c-59 64 -205 136 -277 136 -38 0 -26 19 15 23 83 8 131 6
180 -8z m-1370 -103 c39 -24 76 -52 82 -62 6 -11 9 -57 8 -101 l-3 -81 -34 46
c-42 56 -55 59 -37 7 18 -48 41 -190 33 -198 -3 -3 -24 2 -47 11 -22 9 -40 11
-40 6 0 -6 4 -10 9 -10 25 0 127 -145 188 -266 59 -119 66 -139 71 -207 3 -45
0 -89 -8 -112 -13 -39 -81 -115 -102 -115 -9 1 -7 5 3 13 30 23 69 90 69 119
0 37 -27 90 -80 157 -63 79 -132 101 -198 61 -66 -40 -89 -120 -57 -197 17
-41 19 -57 6 -48 -5 3 -60 80 -121 172 -105 156 -112 169 -107 205 7 53 47
110 112 161 30 23 50 43 45 45 -23 8 -84 -23 -135 -70 -43 -39 -55 -46 -55
-31 0 34 31 257 41 294 12 46 81 112 152 145 l52 24 -39 0 c-23 0 -62 -12 -97
-30 -69 -35 -80 -21 -26 32 93 92 194 102 315 30z m1264 13 c77 -31 140 -73
164 -109 14 -23 37 -135 80 -401 18 -107 11 -206 -20 -277 l-13 -33 -7 30
c-15 65 -59 176 -86 219 -38 59 -90 86 -166 86 -79 0 -137 -29 -170 -86 -23
-39 -26 -54 -25 -133 1 -49 4 -98 7 -108 5 -17 5 -17 -9 0 -9 10 -21 42 -27
70 -7 29 -35 135 -62 237 -74 272 -78 288 -78 366 0 79 4 86 95 144 49 31 51
32 150 27 79 -3 114 -10 167 -32z m1252 -232 c4 -9 2 -52 -4 -96 -14 -101 -5
-219 26 -326 14 -46 23 -85 21 -87 -1 -2 -34 -5 -72 -6 l-68 -3 -24 90 c-28
107 -26 133 19 283 40 130 84 193 102 145z m506 -176 c44 -22 60 -70 60 -185
0 -57 -5 -112 -10 -122 -24 -45 -149 -32 -215 22 l-38 32 6 70 c6 84 30 149
65 176 29 23 93 26 132 7z m-1744 -153 c42 -20 74 -72 108 -176 36 -106 34
-119 -20 -166 -77 -69 -199 -79 -248 -22 -18 21 -26 50 -35 117 -15 122 -14
148 9 192 32 63 117 88 186 55z m-598 -114 c26 -16 44 -44 79 -117 50 -105 55
-133 27 -165 -48 -54 -184 -87 -226 -54 -42 32 -80 215 -58 281 23 69 111 96
178 55z m-616 -158 c62 -70 84 -115 73 -148 -14 -39 -76 -85 -123 -91 l-39 -5
-32 66 c-34 73 -52 140 -44 165 13 37 46 61 84 61 32 0 43 -7 81 -48z m3691
-130 c12 -98 10 -102 -60 -102 -32 0 -64 -4 -72 -9 -11 -7 -9 -60 14 -331 15
-177 23 -326 18 -330 -4 -5 -46 -10 -92 -12 l-84 -3 -3 30 c-2 17 -12 152 -24
300 -11 149 -23 284 -26 302 l-5 31 -73 -5 -73 -6 -6 48 c-4 26 -7 65 -7 85
l0 38 98 7 c53 4 156 13 227 20 72 7 137 12 145 11 11 -1 17 -21 23 -74z
m-567 18 c21 -8 25 -15 20 -33 -3 -12 -6 -48 -6 -81 0 -66 11 -61 -92 -41 -71
14 -128 -19 -128 -74 0 -36 42 -75 130 -122 121 -64 180 -150 180 -259 0 -90
-61 -184 -145 -225 -49 -24 -202 -28 -252 -6 l-33 13 0 85 c0 75 2 84 16 79
87 -34 177 -32 206 4 42 52 14 101 -93 164 -110 65 -154 111 -175 183 -42 145
28 279 166 318 58 16 157 13 206 -5z m-558 -245 c35 -110 93 -291 129 -403 36
-112 62 -206 59 -209 -6 -6 -167 -22 -174 -18 -2 2 -12 36 -23 77 l-20 75 -52
-4 c-118 -9 -115 -7 -123 -71 -12 -99 -11 -98 -105 -105 -45 -4 -84 -5 -86 -3
-2 2 5 64 16 137 11 74 36 251 56 394 20 143 38 274 41 292 4 29 8 32 47 36
23 2 71 3 106 3 l65 -1 64 -200z m-515 168 c3 -5 6 -42 8 -83 l4 -74 -35 -7
c-19 -4 -63 -9 -97 -10 -34 -1 -67 -5 -73 -9 -8 -5 -10 -26 -6 -61 3 -30 5
-64 6 -77 0 -23 0 -23 100 -16 l100 7 0 -44 c1 -24 3 -60 6 -80 5 -35 4 -36
-33 -42 -21 -4 -64 -7 -95 -7 l-58 0 0 -44 c0 -24 3 -64 6 -90 l7 -47 101 7
c56 3 105 7 111 8 10 1 29 -139 21 -160 -4 -9 -23 -14 -58 -14 -29 -1 -116 -7
-193 -14 -77 -7 -143 -11 -146 -7 -3 3 -14 103 -23 221 -9 118 -24 304 -33
412 -9 109 -14 200 -12 202 3 4 285 30 361 35 15 0 29 -2 31 -6z m-595 -77
c121 -63 150 -249 55 -348 -21 -22 -23 -28 -10 -28 27 0 84 -57 102 -103 27
-66 23 -156 -9 -210 -56 -96 -114 -122 -309 -140 -123 -11 -140 -11 -147 3 -4
8 -11 67 -14 130 -4 63 -18 245 -32 404 -13 159 -23 290 -22 291 2 2 48 8 103
13 123 13 245 7 283 -12z m-498 -18 c0 -16 46 -569 59 -718 6 -58 7 -108 3
-111 -4 -4 -42 -9 -85 -12 -73 -5 -77 -4 -81 16 -6 30 -26 359 -26 426 0 30
-3 51 -7 47 -4 -3 -23 -84 -43 -179 l-36 -172 -49 -7 c-35 -5 -53 -3 -61 5 -6
7 -40 87 -75 179 -35 92 -65 166 -66 164 -1 -1 9 -114 23 -250 14 -136 23
-250 20 -253 -3 -4 -42 -8 -86 -11 -70 -4 -80 -2 -80 12 0 27 -50 664 -59 745
-6 56 -4 74 6 78 7 3 51 6 98 6 l86 2 38 -100 c96 -253 125 -318 133 -299 4
11 26 109 48 219 22 110 44 203 48 207 7 7 60 12 150 16 28 1 42 -2 42 -10z
m-756 -100 c3 -29 8 -93 11 -143 4 -49 17 -213 30 -364 14 -151 22 -277 20
-280 -3 -2 -43 -7 -89 -9 l-85 -4 -5 33 c-3 19 -8 66 -11 104 -3 39 -17 200
-30 359 -14 159 -25 302 -25 317 0 30 9 33 132 37 l47 2 5 -52z m-432 -303
c15 -176 27 -326 27 -334 1 -11 20 -12 105 -7 l104 7 7 -81 c4 -45 5 -84 2
-87 -7 -6 -376 -37 -382 -32 -3 4 -62 695 -67 794 l-3 50 60 6 c33 3 73 6 90
5 l30 -1 27 -320z m-309 290 c14 -6 17 -20 17 -92 l0 -85 -27 6 c-108 25 -161
9 -197 -60 -18 -33 -21 -57 -21 -164 0 -78 5 -140 14 -165 33 -98 99 -139 185
-115 25 7 51 19 57 26 6 8 15 14 19 14 3 0 14 -36 24 -81 20 -93 17 -99 -50
-125 -55 -21 -144 -23 -207 -5 -140 41 -237 224 -237 449 0 268 126 422 335
408 39 -2 78 -7 88 -11z m3149 -772 c83 -39 125 -67 188 -127 57 -54 63 -45
21 31 l-28 51 29 6 c17 3 35 3 40 0 19 -12 67 -131 79 -198 27 -145 -48 -323
-167 -396 -44 -28 -52 -21 -20 17 37 44 67 120 72 183 l5 55 -26 -54 c-36 -77
-110 -177 -153 -206 -20 -14 -51 -25 -69 -25 -36 0 -355 117 -408 150 -204
126 -114 451 148 536 26 9 75 13 132 11 76 -2 100 -7 157 -34z m-626 -135
c-42 -67 -57 -197 -32 -280 l13 -46 -51 -6 c-144 -17 -262 -2 -486 64 -221 65
-274 78 -341 86 -75 8 -73 -4 7 -44 l55 -28 -145 -24 c-282 -45 -475 -10 -648
120 -32 24 -57 45 -55 46 2 2 181 17 398 34 217 16 415 32 441 35 l47 6 23
-48 22 -48 4 47 c4 56 -29 49 357 78 149 12 277 22 285 24 8 2 39 4 68 5 52 1
52 1 38 -21z"/>
<path d="M2689 3877 c-39 -15 -103 -57 -96 -63 2 -3 33 2 68 11 85 20 135 19
209 -4 72 -23 76 -10 8 32 -54 34 -135 44 -189 24z"/>
<path d="M4465 3060 l-30 -7 30 -13 c38 -16 224 -27 210 -12 -13 14 -122 42
-155 41 -14 -1 -38 -5 -55 -9z"/>
<path d="M1972 3555 c-78 -24 -142 -83 -142 -130 0 -12 13 -6 48 23 61 52 101
71 176 87 52 11 57 13 34 19 -61 14 -75 14 -116 1z"/>
<path d="M2022 2864 c-29 -7 -65 -20 -80 -28 -31 -16 -88 -73 -81 -81 3 -2 40
11 84 30 43 18 107 41 141 51 35 9 64 20 64 24 0 7 -52 21 -69 19 -3 0 -30 -7
-59 -15z"/>
<path d="M2610 3031 c-43 -14 -84 -38 -105 -61 l-20 -23 25 5 c14 3 52 13 85
22 33 9 100 20 149 23 86 6 88 6 60 21 -33 17 -156 26 -194 13z"/>
<path d="M2725 2903 c-49 -7 -121 -18 -158 -24 -45 -7 -65 -15 -59 -21 16 -16
124 -21 183 -9 60 13 139 48 139 62 0 5 -3 8 -7 8 -5 -1 -48 -8 -98 -16z"/>
<path d="M4040 1855 c-1 -16 -3 -41 -5 -55 -9 -59 -26 -242 -23 -245 2 -2 27
0 56 2 39 4 52 9 52 22 -1 36 -79 304 -80 276z"/>
<path d="M2897 1834 c-8 -8 3 -166 12 -176 10 -12 85 10 98 28 7 10 13 39 13
64 0 58 -29 90 -81 90 -20 0 -38 -3 -42 -6z"/>
<path d="M2923 1443 c4 -38 7 -83 7 -100 0 -30 3 -33 29 -33 41 0 90 19 101
40 6 10 10 39 10 65 0 66 -31 95 -101 95 l-52 0 6 -67z"/>
<path d="M3940 918 c-28 -58 -75 -136 -110 -178 -33 -41 -59 -82 -58 -90 10
-51 191 -128 276 -116 92 12 171 96 197 210 25 107 -19 181 -145 244 -99 50
-102 49 -160 -70z m152 11 c69 -44 98 -83 98 -128 0 -50 -53 -155 -92 -183
-39 -28 -106 -29 -174 -3 -91 34 -91 32 -26 117 50 64 92 141 115 211 9 24 23
22 79 -14z"/>
</g>
</svg>
