<?xml version="1.0" standalone="no"?>
<!DOCTYPE svg PUBLIC "-//W3C//DTD SVG 20010904//EN"
 "http://www.w3.org/TR/2001/REC-SVG-20010904/DTD/svg10.dtd">
<svg version="1.0" xmlns="http://www.w3.org/2000/svg"
 width="600.000000pt" height="600.000000pt" viewBox="0 0 600.000000 600.000000"
 preserveAspectRatio="xMidYMid meet">
 <style>
   path { fill: #000000; }
 </style>
<g transform="translate(0.000000,600.000000) scale(0.050000,-0.050000)"
 stroke="none">
<path d="M5370 11768 c-22 -5 -112 -23 -200 -40 -494 -95 -814 -425 -1007
-1036 -35 -109 -63 -210 -63 -225 0 -41 -16 -34 -117 50 -674 561 -1822 172
-1993 -676 -15 -72 -37 -275 -49 -451 -26 -358 -40 -490 -51 -490 -4 0 -49 28
-99 61 -431 291 -1010 225 -1391 -160 -246 -249 -297 -418 -370 -1249 -54
-598 -36 -776 109 -1084 109 -234 594 -1000 769 -1214 92 -114 129 -228 331
-1017 327 -1277 611 -1884 1121 -2399 738 -744 1534 -971 2720 -778 742 121
1002 121 1454 0 637 -171 1152 -221 1620 -158 l160 21 143 -92 c349 -226 1214
-556 1549 -590 965 -100 1704 851 1484 1909 -102 491 -279 811 -942 1706 -854
1154 -1068 1562 -1278 2434 -160 661 -136 914 134 1449 166 328 175 313 175
-300 2 -1199 410 -1797 1227 -1799 617 -1 886 307 1034 1186 281 1657 247
1853 -510 2924 -101 143 -277 409 -391 590 -469 749 -714 921 -1307 920 -520
-1 -717 -122 -1399 -857 -771 -830 -912 -820 -1254 87 -264 698 -454 960 -824
1138 -238 114 -617 182 -785 140z m398 -408 c380 -97 600 -329 781 -823 346
-946 598 -1211 1054 -1109 272 60 320 101 1147 952 385 397 488 466 743 498
421 52 691 -93 975 -526 80 -122 223 -339 317 -482 94 -143 225 -336 292 -430
390 -545 384 -533 222 -498 -139 30 -354 14 -450 -34 -133 -66 -110 -82 135
-92 589 -25 707 -229 606 -1046 -56 -452 -71 -504 -117 -417 -123 236 -485
325 -724 177 -221 -137 -321 -377 -394 -947 -21 -164 437 -443 727 -443 126 0
124 -24 -6 -80 -304 -131 -719 13 -913 316 -265 414 -281 1437 -33 2096 28 74
45 140 38 146 -20 19 -207 -199 -260 -304 -60 -115 -51 -120 -238 128 -283
377 -420 731 -462 1203 -29 324 -99 89 -96 -325 1 -319 44 -514 166 -756 102
-205 104 -196 -62 -248 -411 -127 -875 -10 -1231 313 -149 134 -139 68 22
-146 210 -278 603 -463 985 -463 l129 0 -51 -101 c-28 -55 -93 -201 -143 -325
-187 -457 -301 -650 -509 -859 -83 -83 -121 -135 -101 -135 55 1 202 76 335
171 146 104 130 122 167 -174 121 -954 481 -1714 1400 -2951 777 -1047 910
-1320 911 -1866 0 -803 -575 -1311 -1267 -1119 -380 105 -1073 399 -1248 529
-505 375 -276 1260 407 1576 494 228 1127 84 1603 -363 109 -103 133 -63 53
91 -208 404 -673 665 -1184 666 l-176 0 36 63 c20 35 97 113 171 174 160 132
166 153 43 136 -151 -21 -322 -125 -504 -307 -91 -91 -204 -185 -250 -208
-602 -304 -956 -1053 -768 -1627 41 -126 54 -120 -243 -128 -454 -13 -1046
100 -1693 324 -451 156 -723 209 -910 177 -136 -23 -112 -46 147 -138 285
-101 282 -98 149 -116 -58 -7 -241 -35 -406 -62 -1078 -176 -1684 -29 -2372
577 -487 429 -789 1068 -1125 2378 l-105 412 203 -10 c456 -23 858 254 960
660 17 70 5 76 152 -78 550 -577 1445 -488 1788 178 69 135 71 135 138 48 29
-38 106 -107 171 -155 l119 -87 -226 -230 c-318 -325 -512 -582 -658 -871
-112 -224 -87 -251 61 -65 240 303 662 720 956 946 l142 109 178 -12 c556 -37
1070 312 1219 827 51 179 42 172 449 315 541 190 815 333 1039 543 148 138
124 146 -112 41 -207 -93 -364 -147 -914 -314 -186 -57 -349 -107 -362 -112
-19 -8 -28 55 -37 246 -7 141 -32 364 -55 496 -141 798 -142 828 -36 947 141
159 277 496 277 688 0 102 -17 87 -128 -110 -51 -91 -128 -206 -171 -255 l-78
-90 9 80 c98 961 74 1352 -106 1715 -65 132 -72 121 -56 -89 l15 -185 -68 54
c-516 414 -1170 615 -1701 524 l-140 -24 12 59 c111 555 678 900 1240 756z
m-2184 -1036 c157 -77 291 -215 380 -393 70 -138 71 -190 6 -991 -61 -761 -27
-1034 257 -2021 174 -605 185 -667 154 -841 -30 -168 -43 -171 -90 -23 -210
670 -723 937 -1095 571 -211 -207 -244 -490 -107 -911 50 -154 40 -167 -48
-60 -165 201 -560 1251 -682 1815 -117 542 -90 2046 44 2403 160 429 761 658
1181 451z m1616 48 c163 -27 354 -81 384 -109 8 -7 -51 -15 -130 -18 -293 -11
-670 -117 -951 -267 -182 -97 -171 -99 -155 35 26 224 50 283 122 307 233 77
474 94 730 52z m762 -371 c149 -46 408 -217 442 -292 23 -50 -4 -716 -30 -741
-7 -7 -52 10 -100 39 -511 299 -1254 186 -1893 -287 l-167 -124 12 107 c7 59
17 188 24 287 27 424 54 628 87 657 354 312 1183 493 1625 354z m48 -1091
c321 -129 339 -155 298 -425 l-10 -64 -167 127 c-242 186 -540 316 -785 345
-239 28 -14 86 304 79 187 -5 241 -14 360 -62z m-4491 -231 c250 -133 380
-312 381 -522 0 -184 39 -512 88 -752 46 -221 44 -257 -11 -192 -55 67 -322
247 -366 247 -31 0 -1 -55 86 -157 420 -489 709 -1236 634 -1637 l-15 -75
-102 198 c-235 458 -566 659 -848 514 -207 -106 -270 -326 -186 -653 22 -86
37 -160 34 -163 -4 -4 -107 144 -228 328 -648 979 -643 963 -566 1811 55 609
88 734 232 894 221 244 582 311 867 159z m3821 20 c261 -43 644 -244 823 -432
72 -77 72 -77 84 -297 6 -121 29 -323 52 -450 127 -708 135 -1119 26 -1400
-23 -59 -21 -64 -85 209 -132 570 -499 874 -896 742 -359 -119 -512 -476 -426
-996 38 -233 -88 28 -168 345 -29 116 -89 327 -133 470 -44 143 -92 305 -107
360 -15 55 -51 186 -79 290 -129 474 -148 829 -50 921 223 208 587 298 959
238z m5876 -1332 c134 -97 173 -307 141 -754 -17 -247 -27 -266 -148 -284
-188 -28 -437 52 -594 191 l-78 70 23 140 c71 423 179 631 350 677 82 22 251
0 306 -40z m-5500 -505 c206 -106 383 -504 391 -879 l3 -167 -70 -58 c-211
-177 -674 -206 -829 -51 -109 109 -165 801 -78 963 114 212 376 298 583 192z
m-2002 -283 c193 -73 466 -592 466 -886 0 -204 -420 -387 -705 -308 -132 37
-323 652 -275 886 51 245 294 390 514 308z m-2021 -440 c181 -88 467 -551 467
-757 0 -158 -479 -298 -576 -167 -115 153 -264 553 -264 704 0 198 188 309
373 220z"/>
<path d="M7251 5297 c-1007 -449 -1663 -1457 -1625 -2497 16 -422 75 -587 103
-285 42 455 102 723 240 1068 220 546 595 1025 1179 1507 344 283 329 269 282
269 -22 0 -103 -28 -179 -62z"/>
<path d="M9278 2576 c-18 -14 -53 -80 -78 -146 -117 -305 -309 -625 -513 -855
-165 -185 54 -419 473 -507 606 -126 1153 506 895 1033 -128 263 -649 581
-777 475z m258 -240 c434 -214 523 -598 212 -910 -228 -227 -622 -244 -877
-38 l-60 47 70 78 c176 194 350 482 450 742 30 80 60 145 65 145 5 0 68 -29
140 -64z"/>
<path d="M3067 8059 c-182 -36 -390 -190 -457 -339 -51 -113 -28 -118 101 -21
218 164 441 241 702 241 220 0 153 78 -103 120 -134 22 -128 22 -243 -1z"/>
<path d="M837 7349 c-120 -37 -263 -180 -306 -305 -55 -162 -23 -168 120 -22
115 118 226 188 396 249 67 24 124 53 128 64 16 49 -194 58 -338 14z"/>
<path d="M5584 8187 c-164 -68 -463 -127 -710 -140 -262 -14 -308 -27 -230
-69 213 -114 570 -100 813 32 173 94 277 239 127 177z"/>
</g>
</svg>
