<?xml version="1.0" standalone="no"?>
<!DOCTYPE svg PUBLIC "-//W3C//DTD SVG 20010904//EN"
 "http://www.w3.org/TR/2001/REC-SVG-20010904/DTD/svg10.dtd">
<svg version="1.0" xmlns="http://www.w3.org/2000/svg"
 width="1024.000000pt" height="1024.000000pt" viewBox="0 0 1024.000000 1024.000000"
 preserveAspectRatio="xMidYMid meet">

<g transform="translate(0.000000,1024.000000) scale(0.100000,-0.100000)"
fill="#ffffffb8" stroke="none">
<path d="M3520 9503 c-75 -14 -166 -48 -232 -88 -86 -52 -205 -163 -234 -220
-11 -22 -35 -69 -54 -105 -57 -110 -100 -246 -110 -350 -5 -52 -13 -117 -18
-145 -12 -83 3 -359 27 -462 70 -307 248 -514 511 -593 64 -19 90 -22 180 -17
87 4 122 11 204 41 54 19 116 47 138 62 48 34 160 151 193 204 42 66 92 200
114 304 12 55 24 102 26 106 9 15 5 360 -5 458 -16 156 -61 316 -121 440 -45
91 -65 119 -131 185 -43 42 -84 77 -92 77 -7 0 -21 10 -32 21 -23 26 -71 47
-144 64 -65 15 -184 25 -220 18z m160 -373 c39 -20 150 -133 150 -153 0 -7 12
-34 26 -62 29 -59 49 -161 64 -324 14 -170 0 -296 -48 -437 -46 -133 -91 -199
-170 -252 -51 -33 -63 -37 -122 -37 -116 0 -211 67 -279 195 -55 105 -86 286
-77 443 13 210 75 424 158 544 30 45 59 63 142 94 57 20 100 17 156 -11z"/>
<path d="M2070 9479 c-30 -5 -66 -17 -80 -27 -31 -23 -132 -160 -166 -225 -25
-48 -88 -146 -143 -222 -16 -22 -39 -60 -51 -84 -12 -25 -42 -72 -66 -105 -55
-76 -180 -262 -217 -324 -16 -26 -41 -60 -57 -77 -25 -27 -58 -80 -113 -178
-14 -26 -16 -46 -11 -112 3 -44 11 -93 18 -110 26 -62 11 -60 460 -65 l411 -5
1 -165 c0 -209 -2 -197 37 -220 27 -17 50 -20 145 -20 l114 0 29 31 c24 26 29
40 30 83 4 233 6 296 11 302 4 3 42 7 85 8 97 3 119 14 134 69 11 42 7 186 -6
220 -12 28 -60 48 -123 49 -31 1 -67 5 -79 9 l-22 8 -1 418 c0 230 -1 473 -3
540 -2 120 -2 122 -32 152 -16 17 -45 35 -65 40 -57 15 -181 20 -240 10z m-2
-826 c-4 -240 -8 -337 -17 -346 -16 -16 -441 -18 -441 -2 0 12 37 71 163 261
55 81 115 177 135 213 54 99 142 222 154 215 7 -5 9 -113 6 -341z"/>
<path d="M5225 9461 c-47 -28 -114 -120 -215 -295 -20 -34 -59 -95 -86 -136
-28 -41 -59 -91 -69 -110 -10 -19 -40 -66 -67 -105 -65 -94 -164 -241 -213
-319 -22 -35 -52 -81 -67 -102 -36 -52 -58 -141 -58 -234 0 -103 14 -146 53
-170 30 -19 53 -20 410 -20 208 0 382 -2 388 -5 5 -4 9 -84 9 -184 0 -234 -7
-225 160 -229 203 -6 202 -7 201 210 -1 84 3 167 7 183 l8 30 97 5 c55 3 101
10 108 17 15 15 28 89 28 163 2 108 -52 159 -166 160 -38 0 -65 5 -70 13 -4 6
-8 248 -8 537 -1 477 -2 528 -18 557 -9 18 -26 37 -36 43 -12 6 -93 10 -193
10 -151 0 -177 -2 -203 -19z m93 -788 c-4 -232 -9 -348 -16 -355 -11 -11 -428
-22 -444 -11 -10 5 29 78 85 160 57 84 123 190 187 298 89 150 170 266 182
259 7 -5 9 -109 6 -351z"/>
<path d="M6715 7885 c-153 -25 -243 -60 -370 -145 -22 -15 -62 -39 -90 -53
-27 -14 -70 -41 -95 -61 -25 -19 -77 -59 -116 -88 -39 -29 -113 -93 -165 -141
-88 -84 -103 -93 -254 -164 -88 -41 -185 -83 -215 -94 -30 -11 -71 -31 -91
-45 -21 -14 -70 -39 -111 -55 -172 -70 -230 -130 -303 -310 -27 -67 -61 -140
-75 -163 -24 -37 -48 -91 -125 -276 -15 -36 -61 -159 -102 -275 -40 -115 -103
-271 -138 -345 -35 -75 -89 -208 -120 -295 -31 -88 -70 -183 -86 -211 -41 -73
-136 -317 -153 -394 -38 -177 -57 -271 -65 -335 -5 -38 -20 -105 -35 -147 -26
-78 -223 -491 -257 -539 -19 -27 -23 -37 -88 -223 -23 -65 -56 -148 -72 -185
-17 -36 -46 -109 -64 -161 -18 -52 -51 -140 -73 -195 -22 -55 -77 -210 -122
-345 -45 -135 -102 -303 -127 -375 -25 -71 -53 -159 -63 -195 -23 -83 -47
-140 -63 -145 -10 -4 -123 -16 -293 -32 -50 -5 -52 -4 -58 24 -11 54 -39 877
-29 886 8 9 42 -11 92 -55 24 -21 56 -41 70 -45 14 -3 66 -26 115 -50 75 -36
99 -43 149 -43 54 0 62 3 93 34 27 27 34 42 34 71 0 58 -31 96 -111 141 -39
21 -90 55 -113 74 -22 20 -59 47 -82 62 -47 30 -176 179 -219 252 -24 42 -30
64 -36 149 -3 55 -4 110 0 123 l6 24 35 -33 c19 -19 58 -59 87 -90 70 -75 218
-151 298 -151 43 -1 58 4 79 23 73 68 29 154 -129 251 -97 59 -245 217 -308
329 -54 96 -67 148 -67 260 l0 76 98 -99 c76 -77 110 -103 156 -123 101 -42
187 -28 202 32 14 56 -10 90 -134 193 -29 24 -61 60 -71 80 -11 20 -45 66 -76
102 -31 36 -64 78 -72 95 -9 16 -30 51 -48 76 -17 25 -47 83 -65 128 -36 87
-83 141 -122 141 -41 0 -84 -38 -112 -99 -14 -32 -26 -64 -26 -70 0 -6 -22
-47 -49 -90 -28 -44 -56 -94 -64 -113 -8 -18 -30 -54 -50 -79 -19 -26 -40 -56
-46 -67 -10 -19 -160 -156 -246 -226 -70 -57 -82 -127 -29 -177 67 -63 185 -9
357 164 147 148 165 148 133 2 -42 -194 -271 -464 -521 -615 -92 -56 -115 -80
-115 -123 0 -54 24 -92 67 -105 35 -10 50 -9 109 9 38 12 85 29 104 39 56 28
208 151 284 228 70 71 86 79 86 40 0 -40 -42 -194 -62 -228 -11 -19 -30 -51
-40 -70 -11 -19 -30 -46 -42 -60 -13 -14 -37 -45 -54 -70 -35 -51 -211 -223
-297 -290 -32 -25 -88 -63 -124 -85 -103 -64 -127 -142 -66 -212 48 -56 169
-30 272 58 24 22 50 39 57 39 19 0 129 91 233 192 53 52 97 87 103 83 7 -5 9
-28 6 -69 -3 -33 -8 -151 -11 -261 -3 -110 -10 -299 -15 -420 -6 -121 -12
-246 -13 -279 l-2 -59 -95 -49 c-52 -27 -120 -56 -150 -65 -71 -20 -143 -56
-205 -102 -27 -21 -70 -50 -95 -66 -132 -83 -193 -161 -246 -319 -40 -116 -28
-189 39 -240 65 -50 96 -52 577 -50 361 1 1907 1 2745 0 154 0 336 0 1105 1
58 0 269 0 470 0 547 0 2537 3 2760 4 263 1 324 16 377 92 23 34 27 50 31 144
5 120 -11 250 -84 668 -9 50 -20 124 -24 165 -5 41 -23 141 -40 221 -16 81
-30 164 -30 185 -1 42 -19 128 -69 317 -30 115 -31 126 -32 340 0 122 -1 236
-1 252 0 17 3 507 6 1090 6 931 5 1073 -9 1163 -28 191 -73 250 -235 315 -93
37 -134 44 -315 57 -177 12 -267 24 -337 46 -52 17 -44 2 -113 204 -20 58 -49
148 -65 200 -16 52 -52 139 -79 195 -32 63 -62 144 -82 220 -17 66 -37 143
-45 170 -8 28 -21 79 -30 114 -20 83 -33 107 -86 158 -49 47 -325 203 -436
247 -40 15 -94 43 -120 62 -26 18 -96 60 -157 94 -60 33 -149 93 -197 133
-126 106 -224 130 -403 102z m63 -226 c26 -9 32 -17 37 -52 10 -75 36 -639 35
-756 -2 -106 -4 -117 -31 -169 -17 -30 -56 -89 -87 -130 -31 -42 -78 -104
-104 -139 -66 -86 -105 -159 -119 -218 -7 -33 -12 -171 -13 -395 -1 -335 -2
-346 -23 -380 -12 -19 -31 -64 -43 -99 -26 -78 -51 -127 -101 -204 -22 -32
-39 -61 -39 -64 0 -4 -18 -29 -40 -58 -108 -140 -132 -234 -110 -435 11 -104
11 -122 -5 -176 -26 -89 -99 -238 -149 -302 -45 -58 -100 -186 -129 -297 -20
-76 -46 -342 -45 -460 0 -49 0 -124 -1 -165 l-1 -76 -59 -79 c-33 -44 -105
-134 -159 -200 -55 -66 -108 -138 -119 -160 -11 -22 -36 -105 -56 -185 -68
-273 -76 -305 -116 -443 -22 -75 -49 -179 -61 -230 -11 -50 -29 -117 -38 -147
l-17 -55 -105 -3 c-163 -6 -349 16 -450 51 -47 16 -109 36 -138 43 -29 8 -63
20 -75 28 -12 7 -44 19 -72 25 -127 31 -123 28 -129 69 -13 81 -26 496 -17
505 6 6 28 -6 61 -36 56 -50 164 -97 240 -105 65 -6 100 23 100 83 0 48 -9 58
-133 148 -80 57 -183 170 -233 252 -34 57 -71 196 -57 218 3 5 33 -18 66 -50
86 -81 155 -124 207 -126 37 -1 46 3 76 35 28 31 33 43 28 70 -6 35 -37 67
-170 178 -42 35 -174 194 -174 210 0 5 -13 37 -29 72 -16 35 -34 80 -40 100
-26 80 -78 111 -120 69 -10 -10 -31 -56 -46 -102 -47 -144 -181 -324 -299
-402 -22 -15 -41 -25 -43 -24 -1 2 23 70 53 152 31 83 71 193 89 245 78 221
164 418 231 530 47 78 156 318 182 400 29 93 38 136 86 405 27 149 49 208 158
427 43 87 82 175 86 195 5 21 21 67 35 103 14 36 30 82 37 103 6 20 34 77 61
127 28 49 58 117 68 152 10 35 30 90 43 123 14 33 36 96 48 140 13 44 49 136
80 205 31 69 63 141 70 160 7 19 22 48 33 63 11 16 39 76 63 134 51 124 94
195 136 225 17 12 81 46 142 76 61 29 118 60 126 67 8 7 56 30 105 50 50 21
130 57 179 82 l89 44 30 -28 c41 -39 107 -181 118 -256 13 -93 11 -264 -5
-337 -22 -101 -106 -280 -177 -375 -37 -51 -104 -166 -139 -240 -23 -50 -40
-160 -50 -335 -7 -124 -11 -146 -55 -275 -63 -187 -96 -243 -221 -377 -139
-150 -157 -177 -158 -238 -1 -38 4 -54 22 -73 54 -57 125 -42 176 36 18 29 71
90 117 137 98 98 186 237 219 345 12 39 36 111 52 160 25 75 31 116 38 247 12
208 25 276 62 335 17 26 39 63 49 80 10 18 38 57 62 86 68 83 170 302 200 427
38 159 41 267 10 403 -28 126 -46 174 -115 299 -26 48 -48 91 -48 95 0 13 99
107 141 134 20 13 75 54 124 91 130 98 267 177 354 203 91 27 99 28 139 14z
m381 -153 c40 -26 84 -52 97 -57 14 -5 57 -31 97 -57 86 -58 138 -86 226 -119
36 -13 75 -33 86 -43 11 -10 45 -30 75 -45 95 -48 141 -84 160 -129 10 -22 32
-102 50 -176 47 -200 75 -281 123 -367 42 -74 107 -242 107 -276 0 -9 16 -59
36 -112 19 -52 33 -103 30 -113 -5 -13 -34 -22 -138 -41 -179 -32 -261 -49
-338 -72 -36 -10 -78 -19 -95 -20 -41 -3 -215 19 -299 37 -114 25 -180 5 -215
-64 -33 -66 -38 -119 -51 -547 -25 -787 -38 -1063 -52 -1088 -20 -37 -130
-167 -205 -241 -39 -39 -86 -89 -103 -110 -17 -22 -61 -72 -97 -110 -135 -145
-177 -231 -193 -397 -5 -56 -14 -117 -19 -137 -5 -21 -12 -69 -15 -109 -3 -39
-15 -100 -26 -135 -11 -34 -20 -77 -20 -93 0 -51 -31 -91 -125 -165 -49 -39
-124 -103 -166 -143 -42 -40 -98 -90 -124 -112 -57 -46 -92 -117 -123 -245
-22 -91 -38 -194 -34 -223 1 -10 -7 -50 -18 -90 -26 -92 -27 -188 -2 -209 28
-24 53 -29 88 -18 36 12 64 48 64 82 0 13 7 48 15 78 9 30 22 106 30 168 8 63
16 121 19 130 47 165 41 153 118 217 40 33 99 85 133 116 33 31 81 70 108 88
57 39 153 133 172 170 39 77 84 307 125 651 8 59 16 84 42 121 36 51 296 326
337 357 l26 19 -2 -186 c-2 -295 -12 -730 -24 -1056 -12 -363 -6 -343 -162
-500 -126 -127 -164 -191 -202 -341 -13 -52 -26 -98 -29 -102 -10 -16 -45
-207 -68 -364 -21 -148 -25 -161 -46 -169 -13 -5 -116 -9 -228 -9 l-205 0 -73
30 c-40 17 -120 64 -177 105 -57 41 -126 85 -154 98 -27 14 -89 43 -136 66
-47 23 -102 44 -122 48 -47 7 -52 15 -39 66 6 23 21 87 32 142 12 55 33 133
46 174 13 40 24 85 24 99 0 14 9 55 19 91 11 36 36 136 56 221 19 85 40 171
45 192 12 42 81 141 150 213 50 53 162 205 203 277 20 35 27 67 37 175 7 73 9
148 6 169 -10 52 13 334 35 432 22 96 40 134 103 217 25 33 46 64 46 68 0 4
18 38 40 75 37 60 100 237 113 315 2 15 0 67 -6 115 -20 179 -6 236 99 393
103 156 136 218 179 334 20 55 41 111 48 125 9 18 12 126 14 375 1 314 3 355
20 397 18 48 76 126 169 227 56 61 135 186 161 254 20 53 23 335 4 447 -7 41
-14 120 -16 175 -2 55 -7 156 -11 224 l-6 124 38 -30 c22 -17 72 -51 113 -77z
m1243 -1725 c174 -23 271 -32 374 -37 160 -7 326 -36 369 -65 43 -30 65 -87
75 -199 10 -113 0 -2015 -15 -2785 -2 -126 -4 -247 -5 -267 0 -27 -9 -47 -32
-74 -42 -47 -92 -69 -193 -84 -182 -27 -430 -82 -494 -109 -146 -64 -222 -85
-311 -85 l-86 -1 -88 52 c-48 29 -90 53 -93 53 -3 0 -51 20 -107 44 -112 49
-238 77 -420 94 -59 6 -113 15 -118 20 -12 12 -11 417 2 877 5 182 10 449 11
595 1 146 3 290 4 320 1 30 5 154 8 275 4 121 9 281 12 355 3 74 10 281 15
460 8 299 21 460 39 489 5 8 32 6 102 -9 139 -30 240 -29 384 4 129 30 422 83
467 85 15 1 60 -3 100 -8z m-4442 -2987 c0 -47 -12 -72 -79 -165 -66 -93 -181
-202 -281 -269 -82 -55 -100 -76 -100 -122 0 -52 32 -72 114 -72 73 0 138 27
246 103 40 28 79 51 85 51 10 0 12 -36 9 -152 -5 -153 -21 -365 -30 -379 -2
-4 -17 -4 -33 1 -16 4 -89 11 -163 15 -97 5 -156 14 -218 32 -47 14 -111 33
-143 42 -44 12 -56 19 -51 31 4 8 13 42 21 75 7 33 39 134 69 225 31 91 71
217 89 280 55 189 68 221 85 210 8 -5 37 -10 65 -10 64 0 127 32 220 110 62
52 71 57 83 42 6 -9 12 -30 12 -48z m5395 -670 c8 -49 21 -120 29 -159 9 -38
16 -83 16 -100 0 -16 9 -66 19 -110 11 -44 27 -132 36 -195 9 -63 23 -149 31
-191 20 -108 19 -196 -3 -208 -22 -11 -714 -25 -728 -14 -5 4 -40 67 -76 138
-36 72 -88 173 -115 225 -27 53 -60 123 -74 155 -17 42 -47 83 -99 138 -41 42
-72 79 -70 81 15 15 318 116 379 126 41 7 86 17 100 22 14 5 81 18 150 28 200
31 262 53 350 128 19 17 36 29 38 27 2 -1 9 -43 17 -91z m-2065 -4 c36 -5 114
-14 173 -20 155 -15 194 -28 372 -123 119 -63 181 -104 244 -158 153 -133 219
-211 250 -293 11 -30 54 -122 96 -205 41 -83 75 -158 75 -166 0 -13 -98 -15
-867 -12 l-868 3 3 55 c2 30 11 92 18 139 8 47 19 117 25 157 5 39 16 91 25
114 8 24 21 73 29 110 21 103 52 152 181 285 132 137 122 132 244 114z m-3995
-447 c50 -11 114 -30 143 -42 29 -12 72 -26 95 -31 35 -9 323 -32 392 -32 11
0 43 -4 70 -9 28 -5 100 -13 160 -18 105 -8 191 -30 385 -97 131 -46 163 -54
250 -64 52 -6 158 -16 235 -21 145 -10 297 -44 415 -93 59 -24 204 -105 198
-111 -5 -5 -515 -14 -768 -14 -124 1 -819 2 -1545 4 -1603 3 -1501 1 -1508 19
-19 48 48 134 167 214 110 75 138 91 191 108 28 9 89 36 136 60 86 43 165 66
269 79 30 4 80 12 110 20 94 22 190 36 310 44 143 11 182 9 295 -16z"/>
<path d="M4906 5187 c-16 -16 -30 -53 -45 -118 -38 -161 -111 -400 -143 -464
-17 -33 -45 -80 -63 -105 -84 -117 -114 -182 -134 -290 -10 -58 -22 -150 -25
-205 -4 -55 -14 -145 -23 -200 -21 -135 -20 -165 7 -187 28 -23 82 -23 103 0
24 26 54 162 67 302 24 266 44 337 135 465 23 33 56 88 73 121 31 61 90 250
111 354 6 30 18 91 27 135 27 127 29 173 8 196 -24 26 -70 24 -98 -4z"/>
<path d="M7746 5445 c-90 -54 -182 -122 -205 -151 -12 -15 -21 -38 -21 -51 0
-30 51 -83 80 -83 23 0 76 24 103 48 16 14 17 2 17 -245 0 -300 -4 -288 91
-288 98 0 93 -22 97 399 l4 363 -27 21 c-39 31 -72 27 -139 -13z"/>
<path d="M8204 5173 c-55 -7 -89 -68 -72 -130 16 -62 28 -63 408 -63 362 0
385 3 410 49 18 35 12 88 -14 118 l-24 28 -339 1 c-186 0 -352 -1 -369 -3z"/>
<path d="M7664 4446 c-85 -40 -166 -158 -150 -220 11 -45 101 -73 138 -43 8 6
27 33 42 59 60 106 172 64 138 -51 -14 -46 -62 -112 -201 -274 -55 -65 -105
-126 -111 -137 -19 -35 -12 -99 13 -124 24 -23 26 -24 244 -22 258 1 263 3
263 86 0 69 -15 78 -140 86 -58 4 -107 8 -109 10 -2 2 23 35 55 74 156 188
197 277 175 381 -14 62 -31 96 -68 131 -73 69 -194 88 -289 44z"/>
<path d="M8244 4150 c-12 -5 -29 -19 -38 -32 -19 -26 -21 -96 -3 -119 28 -37
49 -39 384 -39 303 0 330 1 352 18 31 23 43 66 31 112 -17 64 -19 65 -380 67
-179 1 -335 -2 -346 -7z"/>
<path d="M7687 3366 c-73 -27 -151 -104 -163 -162 -9 -46 26 -84 78 -84 35 0
46 6 88 50 40 41 54 50 83 50 27 0 41 -7 57 -27 45 -58 -3 -146 -86 -159 -52
-7 -60 -16 -68 -74 -9 -65 6 -81 80 -87 69 -5 96 -20 114 -63 11 -27 11 -36
-3 -65 -20 -43 -69 -69 -110 -61 -20 4 -48 25 -77 56 -48 52 -79 62 -121 40
-29 -16 -51 -67 -44 -100 9 -42 78 -115 133 -141 65 -32 168 -32 237 -1 98 45
163 133 172 232 5 51 2 67 -21 115 -15 30 -38 63 -50 72 l-22 17 33 49 c27 40
33 59 33 102 0 107 -50 186 -145 231 -57 27 -138 31 -198 10z"/>
<path d="M8254 3070 c-33 -13 -54 -50 -54 -96 0 -52 23 -82 70 -93 19 -4 173
-5 341 -2 282 6 309 8 328 25 47 43 34 137 -23 161 -36 15 -625 19 -662 5z"/>
<path d="M2745 7236 c-5 -2 -47 -14 -92 -26 -77 -21 -88 -28 -151 -89 -140
-135 -199 -351 -162 -591 31 -195 194 -370 374 -401 139 -23 259 6 362 90 102
82 153 180 182 346 14 81 14 101 -1 215 -14 102 -23 138 -51 196 -71 143 -226
249 -378 259 -40 3 -77 3 -83 1z m109 -228 c59 -18 128 -90 155 -163 60 -161
23 -373 -81 -460 -42 -35 -72 -46 -129 -47 -145 -1 -262 175 -244 366 10 108
39 188 88 241 62 68 128 87 211 63z"/>
<path d="M1310 7200 c-19 -19 -20 -33 -20 -524 l0 -505 22 -15 c30 -21 156
-22 184 -2 18 14 19 30 21 308 1 161 2 299 3 307 0 17 56 -52 81 -100 17 -34
88 -149 178 -291 20 -31 58 -93 85 -138 28 -45 58 -85 67 -91 10 -5 53 -9 97
-9 64 0 85 4 103 19 l24 19 -2 314 c-1 172 -2 397 -3 501 0 177 -1 188 -21
208 -19 19 -30 21 -96 17 -115 -8 -108 14 -106 -341 l2 -302 -22 26 c-13 14
-101 150 -196 302 -95 152 -184 286 -198 297 -37 29 -174 29 -203 0z"/>
<path d="M3563 7212 c-223 -3 -213 3 -216 -111 -3 -105 5 -111 159 -111 68 0
125 -4 129 -9 3 -6 7 -191 9 -412 5 -467 -6 -429 116 -429 118 0 110 -32 110
421 0 211 3 394 6 407 6 21 10 22 139 22 160 0 160 0 160 106 0 112 2 111
-230 115 -104 2 -277 3 -382 1z"/>
<path d="M1840 5851 c-41 -14 -68 -34 -107 -75 -70 -75 -88 -133 -88 -281 0
-100 3 -116 29 -172 32 -69 95 -135 154 -160 53 -23 177 -22 222 1 118 62 173
149 186 300 14 163 -56 319 -171 378 -58 30 -155 34 -225 9z m184 -166 c91
-91 82 -315 -16 -375 -104 -63 -212 31 -213 185 0 133 61 225 150 225 37 0 50
-6 79 -35z"/>
<path d="M3714 5862 c-65 -6 -64 -5 -65 -362 0 -177 2 -325 5 -328 12 -12 83
-17 170 -12 198 12 310 110 337 296 25 167 -44 305 -183 369 -57 26 -188 44
-264 37z m206 -177 c37 -19 69 -58 80 -96 26 -90 -1 -197 -60 -239 -33 -23
-117 -42 -126 -28 -8 12 -15 369 -7 380 6 12 79 0 113 -17z"/>
<path d="M1155 5836 c-13 -20 -15 -66 -11 -341 2 -175 8 -321 13 -325 13 -12
107 -21 121 -12 21 14 31 76 26 167 -4 57 -1 85 7 90 6 4 50 7 97 7 48 0 92 4
99 10 19 15 17 112 -3 129 -9 7 -50 14 -97 16 -114 6 -111 4 -104 65 4 28 12
55 19 60 7 4 63 8 123 8 61 0 115 4 121 8 17 11 24 79 12 112 l-10 30 -199 0
c-197 0 -199 0 -214 -24z"/>
<path d="M2365 5837 c-12 -19 -15 -65 -16 -254 -1 -250 5 -288 50 -350 109
-150 404 -105 456 70 20 66 22 526 3 545 -16 16 -113 16 -126 0 -6 -8 -12
-106 -14 -243 -3 -192 -7 -235 -21 -262 -20 -38 -44 -53 -87 -53 -42 0 -100
56 -101 97 -1 15 -2 122 -4 237 -3 237 -2 236 -82 236 -34 0 -46 -5 -58 -23z"/>
<path d="M2996 5851 c-4 -5 -7 -156 -8 -335 -1 -250 2 -329 12 -341 16 -19
115 -21 127 -2 4 6 10 97 13 201 l5 189 49 -89 c28 -49 69 -118 92 -154 23
-36 53 -85 66 -110 l25 -45 66 -3 c58 -3 67 0 77 18 14 27 3 649 -12 668 -15
18 -103 16 -118 -3 -10 -12 -13 -64 -12 -195 0 -99 -3 -180 -7 -180 -7 0 -117
178 -201 324 l-36 61 -66 3 c-36 2 -69 -2 -72 -7z"/>
</g>
</svg>
