<?xml version="1.0" standalone="no"?>
<!DOCTYPE svg PUBLIC "-//W3C//DTD SVG 20010904//EN"
 "http://www.w3.org/TR/2001/REC-SVG-20010904/DTD/svg10.dtd">
<svg version="1.0" xmlns="http://www.w3.org/2000/svg"
 width="512.000000pt" height="512.000000pt" viewBox="0 0 512.000000 512.000000"
 preserveAspectRatio="xMidYMid meet">

<g transform="translate(0.000000,512.000000) scale(0.100000,-0.100000)"
fill="#ffffffb8" stroke="none">
<path d="M1179 5110 c-153 -10 -303 -33 -396 -61 -367 -113 -652 -423 -733
-796 -44 -205 -45 -237 -45 -1693 0 -1456 1 -1488 45 -1693 44 -200 142 -378
291 -526 192 -193 396 -284 724 -323 160 -19 2830 -19 2990 0 328 39 532 130
724 323 193 192 284 396 323 724 19 160 19 2830 0 2990 -39 328 -130 532 -323
724 -187 188 -387 279 -704 322 -107 14 -2674 22 -2896 9z m2291 -880 c3 -5
28 -11 55 -15 28 -4 73 -18 101 -31 28 -13 58 -24 67 -24 10 0 17 -4 17 -9 0
-5 14 -12 30 -16 17 -4 30 -10 30 -15 0 -4 11 -11 25 -14 14 -4 25 -11 25 -16
0 -6 7 -10 15 -10 8 0 15 -4 15 -8 0 -5 10 -14 23 -19 25 -13 87 -64 132 -109
65 -67 105 -114 105 -123 0 -5 4 -11 8 -13 4 -1 18 -20 31 -40 12 -21 27 -38
32 -38 5 0 9 -6 9 -13 0 -7 18 -48 40 -92 22 -44 40 -89 40 -100 0 -12 5 -26
11 -32 11 -11 25 -82 39 -208 10 -87 2 -292 -11 -301 -5 -3 -9 -24 -9 -47 0
-23 -7 -55 -15 -71 -8 -15 -15 -34 -15 -41 0 -8 -6 -26 -14 -42 -8 -15 -29
-57 -46 -93 -34 -71 -49 -97 -67 -118 -7 -7 -13 -17 -13 -21 0 -4 -16 -24 -35
-44 -19 -20 -35 -38 -35 -41 0 -6 -90 -96 -97 -96 -2 0 -14 -10 -26 -23 -21
-21 -88 -69 -132 -93 -11 -6 -46 -25 -77 -42 -31 -18 -66 -32 -77 -32 -12 0
-21 -4 -21 -9 0 -5 -18 -11 -40 -15 -22 -3 -40 -11 -40 -16 0 -6 -13 -10 -30
-10 -16 0 -55 -7 -87 -15 -34 -9 -102 -15 -168 -15 l-110 0 -1 -195 c-1 -129
-5 -199 -13 -208 -6 -8 -14 -35 -17 -61 -4 -26 -11 -49 -15 -52 -5 -3 -9 -18
-9 -33 0 -15 -7 -36 -15 -47 -8 -10 -15 -29 -15 -41 0 -13 -3 -23 -7 -23 -5 0
-19 -25 -32 -55 -14 -30 -28 -55 -32 -55 -4 0 -9 -8 -13 -17 -5 -18 -26 -53
-36 -63 -10 -10 -31 -45 -36 -62 -4 -10 -13 -18 -20 -18 -8 0 -14 -4 -14 -9 0
-12 -138 -151 -150 -151 -5 0 -10 -4 -10 -8 0 -10 -111 -90 -162 -117 -21 -11
-38 -23 -38 -27 0 -5 -9 -8 -20 -8 -11 0 -20 -4 -20 -9 0 -5 -14 -13 -32 -16
-17 -4 -51 -18 -76 -31 -25 -13 -57 -24 -71 -24 -15 0 -32 -5 -38 -11 -18 -18
-134 -31 -317 -36 -110 -2 -173 0 -180 7 -5 5 -30 10 -54 10 -45 0 -124 21
-174 46 -14 8 -36 14 -47 14 -12 0 -21 5 -21 10 0 6 -9 10 -19 10 -21 0 -76
27 -99 47 -7 7 -20 13 -28 13 -8 0 -14 4 -14 9 0 5 -8 11 -17 15 -25 8 -53 27
-79 53 -11 13 -26 23 -31 23 -11 0 -193 178 -193 190 0 4 -13 23 -30 41 -16
19 -37 49 -45 67 -9 17 -20 32 -25 32 -6 0 -10 9 -10 19 0 11 -5 23 -10 26 -9
5 -32 52 -59 120 -5 11 -16 37 -25 58 -9 21 -16 46 -16 57 0 10 -4 21 -9 24
-4 3 -11 35 -14 71 -3 36 -11 74 -17 84 -13 25 -13 324 0 337 5 5 12 42 16 82
4 40 11 75 15 78 5 3 9 15 9 28 0 12 7 31 15 42 8 10 15 29 15 42 0 12 4 22 9
22 5 0 13 14 16 32 4 17 16 45 26 62 10 17 22 38 26 46 4 8 13 21 20 28 7 7
13 20 13 28 0 8 5 14 10 14 6 0 10 7 10 15 0 8 5 15 10 15 6 0 15 11 20 25 5
14 14 25 20 25 5 0 10 5 10 11 0 6 23 33 50 59 27 26 50 53 50 59 0 6 5 11 10
11 6 0 27 15 46 34 19 19 67 56 107 82 40 26 74 51 77 54 3 4 17 10 32 14 16
3 28 11 28 16 0 6 11 10 25 10 14 0 25 4 25 8 0 11 67 39 113 47 20 4 40 11
43 16 3 5 17 9 32 9 15 0 45 6 67 14 54 18 258 28 380 18 55 -5 101 -8 101 -8
1 1 6 57 12 126 14 169 21 198 97 372 8 20 20 40 25 43 6 3 10 14 10 25 0 10
7 20 15 24 8 3 15 15 15 26 0 11 5 20 10 20 6 0 10 4 10 10 0 9 8 19 95 115
25 28 45 53 45 58 0 4 6 7 13 7 7 0 31 17 53 39 23 21 50 42 62 45 12 4 22 12
22 17 0 5 7 9 15 9 8 0 15 4 15 10 0 10 80 50 99 50 6 0 11 5 11 10 0 6 9 10
19 10 11 0 22 4 25 9 8 12 91 38 149 46 26 4 47 11 47 16 0 18 418 17 430 -1z"/>
<path d="M3105 3713 c-76 -24 -139 -56 -181 -92 -13 -11 -26 -21 -29 -21 -7 0
-65 -58 -65 -65 0 -3 -10 -16 -22 -28 -13 -12 -31 -40 -42 -62 -10 -22 -25
-52 -32 -67 -8 -14 -14 -35 -14 -45 0 -10 -5 -24 -11 -30 -23 -23 2 -322 29
-343 10 -7 42 -70 42 -81 0 -6 11 -20 25 -33 14 -13 25 -26 25 -29 0 -10 59
-67 69 -67 5 0 11 -6 14 -14 7 -19 167 -96 199 -96 15 0 30 -4 33 -10 3 -6 52
-10 110 -10 58 0 107 4 110 10 3 6 18 10 33 10 46 0 173 70 230 127 18 18 37
33 42 33 6 0 10 7 10 15 0 8 3 15 8 15 4 0 16 15 26 33 74 126 85 164 93 311
3 56 1 92 -6 99 -6 6 -11 27 -11 47 0 20 -7 45 -15 56 -8 10 -15 25 -15 32 0
7 -11 28 -25 46 -14 18 -25 37 -25 42 0 5 -18 26 -40 47 -22 20 -40 42 -40 47
0 6 -6 10 -14 10 -8 0 -16 4 -18 8 -5 13 -98 72 -114 72 -7 0 -14 5 -14 10 0
6 -11 10 -24 10 -13 0 -40 7 -59 15 -48 20 -214 19 -282 -2z"/>
<path d="M1830 2662 c-41 -1 -79 -7 -85 -11 -5 -5 -27 -11 -47 -15 -21 -4 -38
-11 -38 -16 0 -6 -7 -10 -15 -10 -18 0 -89 -32 -93 -42 -2 -5 -8 -8 -13 -8
-10 0 -24 -10 -60 -42 -10 -10 -21 -18 -24 -18 -10 0 -65 -60 -65 -70 0 -6 -6
-10 -12 -10 -14 0 -118 -162 -118 -183 0 -7 -7 -22 -15 -33 -8 -10 -15 -30
-15 -44 0 -15 -6 -32 -12 -39 -10 -9 -13 -59 -13 -181 0 -122 3 -172 13 -182
6 -6 12 -22 12 -35 0 -13 4 -31 10 -41 5 -9 18 -37 30 -62 28 -61 40 -81 80
-131 62 -77 142 -149 193 -172 20 -10 37 -22 37 -27 0 -6 9 -10 21 -10 11 0
27 -7 35 -15 9 -8 29 -15 45 -15 16 0 29 -4 29 -10 0 -5 13 -10 29 -10 16 0
48 -7 71 -15 23 -8 71 -15 105 -15 56 0 91 7 201 41 17 5 40 9 51 9 12 0 28 7
37 15 8 8 24 15 36 15 11 0 23 6 26 14 3 8 16 17 30 20 13 4 34 16 45 27 26
26 89 38 89 17 0 -8 11 -24 25 -34 14 -10 25 -24 25 -31 0 -7 7 -13 15 -13 8
0 15 -4 15 -10 0 -15 85 -50 108 -43 12 3 22 9 22 14 0 5 7 9 15 9 8 0 15 5
15 11 0 6 18 28 40 50 22 22 40 44 40 50 0 5 11 27 25 47 26 38 33 82 14 82
-18 0 -112 102 -134 144 -18 36 -20 60 -21 295 0 166 -5 268 -12 291 -7 19
-12 49 -12 67 0 17 -4 35 -10 38 -5 3 -10 17 -10 30 0 13 -7 30 -15 39 -8 8
-15 20 -15 26 0 16 -99 110 -116 110 -8 0 -14 4 -14 9 0 5 -13 12 -30 16 -16
4 -30 11 -30 16 0 5 -9 9 -21 9 -11 0 -33 6 -47 14 -25 13 -86 32 -177 55 -47
12 -188 18 -295 13z m205 -328 c63 -21 119 -47 123 -56 2 -5 8 -8 12 -8 12 0
100 -88 100 -100 0 -5 4 -10 8 -10 5 0 16 -19 26 -42 10 -24 25 -57 33 -75 26
-57 2 -293 -29 -293 -5 0 -8 -7 -8 -15 0 -43 -130 -167 -197 -189 -16 -5 -39
-14 -52 -20 -32 -15 -234 -13 -239 2 -2 7 -13 12 -25 12 -21 0 -74 31 -128 75
-41 33 -103 126 -122 181 -18 55 -24 228 -8 238 5 3 12 18 15 33 8 36 38 93
48 93 5 0 8 5 8 11 0 13 87 99 100 99 4 0 10 3 12 8 2 4 19 14 38 23 112 51
198 61 285 33z"/>
</g>
</svg>
