<svg xmlns="http://www.w3.org/2000/svg" viewBox="0 0 1000 500" opacity="0.16">
  <g fill="none" stroke="#c6b89e" stroke-width="1.2" stroke-linecap="round" stroke-linejoin="round">
    <!-- Peak 1: Top Center (concentric waves expanding downwards) -->
    <path d="M440,0 C460,30 540,30 560,0" />
    <path d="M420,0 C450,50 550,50 580,0" />
    <path d="M400,0 C440,70 560,70 600,0" />
    <path d="M380,0 C420,90 580,90 620,0" stroke-dasharray="5 5" />
    <path d="M360,0 C400,110 600,110 640,0" />
    <path d="M340,0 C380,130 620,130 660,0" />
    <path d="M320,0 C360,150 640,150 680,0" />

    <!-- Peak 2: Upper Right (Center at 800, 100) -->
    <path d="M760,100 C770,80 830,80 840,100 C850,120 850,140 840,150 C830,160 770,160 760,150 Z" />
    <path d="M740,100 C755,60 845,60 860,100 C875,140 875,170 860,190 C845,210 755,210 740,190 Z" />
    <path d="M720,100 C740,40 860,40 880,100 C900,160 900,200 880,230 C860,260 740,260 720,230 Z" stroke-dasharray="5 5" />
    <path d="M700,100 C725,20 875,20 900,100 C925,180 925,230 900,270 C875,310 725,310 700,270 Z" />

    <!-- Peak 3: Bottom Left (Center at 100, 400) -->
    <path d="M60,400 C70,380 130,380 140,400 C150,420 150,440 140,450 C130,460 70,460 60,450 Z" />
    <path d="M40,400 C55,360 145,360 160,400 C175,440 175,470 160,490 C145,510 55,510 40,490 Z" stroke-dasharray="5 5" />
    <path d="M20,400 C40,340 160,340 180,400 C200,460 200,500 180,530" />
    <path d="M0,400 C25,320 175,320 200,400" />

    <!-- Peak 4: Bottom Center-Right (Center at 600, 420) -->
    <path d="M560,420 C570,400 630,400 640,420 C650,440 650,460 640,470 C630,480 570,480 560,470 Z" />
    <path d="M540,420 C555,380 645,380 660,420 C675,460 675,490 660,510 C645,530 555,530 540,510 Z" />
    <path d="M520,420 C540,360 660,360 680,420 C700,480 700,520 680,550" stroke-dasharray="5 5" />
    <path d="M500,420 C525,340 675,340 700,420" />

    <!-- Flowing Lines from Left to Right (wavy and natural) -->
    <path d="M-50,150 C100,180 200,100 300,160 S500,320 600,280 S800,150 1050,180" />
    <path d="M-50,180 C100,210 200,130 300,190 S500,350 600,310 S800,180 1050,210" stroke-dasharray="5 5" />
    <path d="M-50,210 C100,240 200,160 300,220 S500,380 600,340 S800,210 1050,240" />
    
    <!-- Flowing lines wrapping around Left Hill -->
    <path d="M-50,260 C80,310 150,240 220,310 S380,420 480,380 S700,260 1050,300" />
    <path d="M-50,290 C80,340 150,270 220,340 S380,450 480,410 S700,290 1050,330" />
    <path d="M-50,320 C80,370 150,300 220,370 S380,480 480,440 S700,320 1050,360" stroke-dasharray="5 5" />
    <path d="M-50,350 C80,400 150,330 220,400 S380,510 480,470 S700,350 1050,390" />

    <!-- Top Left Corner -->
    <path d="M-50,50 C0,30 30,10 50,-50" />
    <path d="M-50,80 C10,60 50,30 80,-50" />
    <path d="M-50,110 C20,90 70,50 110,-50" stroke-dasharray="5 5" />
    <path d="M-50,140 C30,120 90,70 140,-50" />

    <!-- Bottom Right Corner -->
    <path d="M900,550 C920,480 970,460 1050,420" />
    <path d="M870,550 C900,460 960,430 1050,380" stroke-dasharray="5 5" />
    <path d="M840,550 C880,440 950,400 1050,340" />
  </g>
</svg>
