<svg xmlns="http://www.w3.org/2000/svg" width="800" height="800" viewBox="0 0 800 800" opacity="0.1">
  <g fill="none" stroke="currentColor" stroke-width="1.5">
    <path d="M-100 100 C 100 50, 300 200, 500 100 S 800 200, 900 100" />
    <path d="M-100 120 C 150 70, 250 250, 550 150 S 750 250, 900 150" />
    <path d="M-100 140 C 200 90, 200 300, 600 200 S 700 300, 900 200" />
    <path d="M-100 200 C 100 150, 300 350, 500 250 S 800 400, 900 250" />
    <path d="M-100 250 C 150 200, 250 450, 550 300 S 750 500, 900 350" />
    <path d="M-100 300 C 200 250, 200 550, 600 400 S 700 600, 900 450" />
    <path d="M-100 400 C 100 350, 300 600, 500 450 S 800 700, 900 500" />
    <path d="M-100 450 C 150 400, 250 700, 550 550 S 750 800, 900 600" />
    <path d="M-100 500 C 200 450, 200 800, 600 650 S 700 900, 900 700" />
    <path d="M-100 600 C 100 550, 300 850, 500 700 S 800 950, 900 750" />
    <path d="M-100 650 C 150 600, 250 950, 550 800 S 750 1050, 900 850" />
    <path d="M-100 700 C 200 650, 200 1050, 600 900 S 700 1150, 900 950" />

    <!-- Concentric curves simulating peaks/depressions -->
    <path d="M 600 200 Q 650 150 700 200 Q 650 250 600 200" />
    <path d="M 580 200 Q 650 120 720 200 Q 650 280 580 200" />
    <path d="M 560 200 Q 650 90 740 200 Q 650 310 560 200" />

    <path d="M 200 600 Q 250 550 300 600 Q 250 650 200 600" />
    <path d="M 170 600 Q 250 510 330 600 Q 250 690 170 600" />
    <path d="M 140 600 Q 250 470 360 600 Q 250 730 140 600" />
  </g>
</svg>
