<?xml version="1.0" standalone="no"?>
<!DOCTYPE svg PUBLIC "-//W3C//DTD SVG 20010904//EN"
 "http://www.w3.org/TR/2001/REC-SVG-20010904/DTD/svg10.dtd">
<svg version="1.0" xmlns="http://www.w3.org/2000/svg"
 width="512.000000pt" height="512.000000pt" viewBox="0 0 512.000000 512.000000"
 preserveAspectRatio="xMidYMid meet">

<g transform="translate(0.000000,512.000000) scale(0.100000,-0.100000)"
fill="#1b1f3b" stroke="none">
<path d="M2365 4120 c-38 -16 -76 -30 -83 -30 -16 0 -119 -61 -172 -101 -19
-14 -52 -32 -73 -40 -21 -7 -68 -38 -105 -67 -37 -30 -79 -60 -93 -67 -57 -30
-156 -173 -184 -265 -4 -14 -18 -49 -31 -78 -13 -29 -24 -58 -24 -64 0 -7 -20
-73 -45 -148 -63 -191 -109 -344 -129 -425 -9 -38 -23 -95 -32 -125 -9 -30
-20 -73 -24 -95 -24 -123 -83 -303 -113 -342 -20 -27 -37 -10 -84 85 -81 161
-97 182 -138 182 -44 0 -65 -21 -109 -107 -30 -61 -96 -144 -178 -226 -33 -33
-36 -69 -8 -97 33 -33 64 -25 135 35 72 61 73 60 53 -38 -12 -58 -14 -61 -155
-197 -123 -119 -143 -142 -143 -169 0 -34 22 -51 66 -51 30 0 99 48 164 114
24 25 48 46 53 46 6 0 6 -28 2 -67 -11 -100 -42 -143 -199 -271 -86 -71 -105
-99 -88 -136 24 -54 96 -37 186 45 45 42 71 59 83 55 17 -7 16 -31 -3 -421 -6
-127 1 -152 55 -190 54 -38 14 -36 861 -35 371 0 801 -4 955 -10 550 -22 1276
-12 1385 18 146 40 185 104 160 262 -7 41 -16 110 -20 153 -4 42 -13 98 -19
125 -6 26 -15 85 -21 131 -12 102 -39 158 -99 211 -97 83 -87 65 -134 235 -49
173 -58 214 -67 317 -15 178 -36 215 -217 380 -71 65 -67 51 -83 283 -6 88
-17 205 -25 260 -8 55 -19 146 -25 202 -11 117 -38 199 -78 234 -41 39 -121
93 -182 125 -30 15 -89 48 -130 73 -41 25 -113 65 -160 89 -47 24 -94 52 -105
62 -11 10 -37 24 -59 31 -21 8 -63 35 -92 61 -67 59 -100 68 -244 74 -110 4
-118 3 -185 -26z m300 -126 c17 -10 61 -44 99 -74 l68 -55 -7 -95 c-3 -52 -11
-126 -17 -165 -10 -68 -11 -70 -87 -145 -42 -42 -108 -105 -148 -139 -39 -34
-76 -74 -81 -89 -14 -35 -32 -151 -36 -227 -6 -113 -36 -350 -52 -405 -21 -74
-121 -262 -205 -386 -38 -55 -75 -117 -84 -137 -19 -46 -19 -139 -1 -192 36
-101 59 -211 59 -278 1 -113 -23 -515 -34 -582 -6 -33 -16 -63 -22 -67 -21
-13 -422 -9 -435 4 -12 12 -18 178 -6 178 4 0 22 -14 41 -30 44 -39 108 -43
124 -6 15 32 -5 68 -71 131 -58 55 -80 97 -80 150 0 37 15 47 24 17 12 -36 54
-66 93 -65 73 2 70 32 -19 211 -64 128 -77 147 -107 159 -46 20 -71 7 -106
-54 -26 -44 -68 -101 -152 -205 -84 -102 12 -166 101 -68 20 22 38 40 41 40 3
0 5 -20 5 -43 0 -35 -8 -55 -39 -98 -21 -30 -57 -69 -80 -87 -51 -41 -77 -87
-60 -108 15 -18 77 -18 109 1 45 25 50 20 50 -49 0 -36 -5 -68 -10 -71 -6 -4
-115 -6 -243 -5 -192 0 -234 3 -247 16 -13 12 -15 51 -13 241 2 125 7 231 12
236 5 5 36 -10 74 -36 88 -60 130 -74 162 -53 17 11 25 26 25 46 0 24 -19 47
-106 132 -122 118 -158 176 -156 252 0 26 3 51 6 53 3 3 31 -21 63 -53 102
-103 174 -139 219 -109 35 23 27 61 -28 126 -41 49 -41 50 -26 82 53 110 71
171 62 206 -7 29 -5 44 12 76 19 38 116 327 130 390 15 66 38 70 152 21 94
-40 129 -62 142 -87 12 -21 34 -135 50 -252 11 -78 43 -175 63 -188 5 -4 21
-4 35 0 37 10 44 48 21 120 -10 33 -21 84 -24 113 -3 29 -10 82 -15 118 -5 36
-11 79 -14 96 -9 68 -54 107 -201 174 -150 69 -140 60 -139 111 0 43 67 289
104 382 11 27 35 102 55 169 36 120 88 235 142 316 36 52 117 121 181 152 46
23 172 96 222 129 25 17 139 66 175 75 11 3 61 4 110 2 67 -2 98 -8 120 -22z
m346 -211 c25 -16 54 -33 65 -40 57 -36 104 -60 146 -76 26 -10 62 -29 80 -42
18 -14 56 -40 84 -59 28 -19 54 -43 58 -52 11 -29 34 -194 51 -374 3 -30 10
-104 16 -165 6 -60 10 -147 8 -193 l-4 -82 -162 -155 c-89 -86 -170 -170 -181
-188 -12 -19 -28 -84 -41 -162 -12 -71 -24 -141 -27 -155 -3 -14 -7 -47 -9
-73 -2 -45 -10 -69 -52 -167 -19 -45 -83 -127 -155 -199 -229 -229 -252 -275
-293 -593 -3 -25 -12 -51 -19 -57 -9 -8 -66 -11 -167 -9 -180 3 -167 -8 -151
138 15 127 34 447 33 540 -1 84 -10 130 -52 274 -16 54 -29 108 -29 119 0 24
40 107 52 107 4 0 16 17 27 38 11 21 40 63 64 93 25 31 62 87 82 125 20 38 43
80 51 94 8 14 14 32 14 41 0 9 7 34 16 55 9 22 18 77 20 124 3 47 9 119 14
160 5 41 12 122 16 180 3 66 12 119 22 141 11 23 68 82 154 159 119 105 139
127 148 163 6 23 15 53 20 67 5 14 12 68 15 120 9 146 11 148 86 103z m660
-1267 c140 -118 136 -114 149 -196 7 -41 16 -118 20 -170 8 -106 25 -184 76
-345 29 -92 40 -115 71 -142 20 -18 42 -33 48 -33 14 0 58 -46 74 -77 6 -12
11 -38 11 -58 0 -31 14 -141 50 -381 13 -84 7 -117 -23 -133 -52 -27 -168 -43
-354 -47 -177 -4 -193 -3 -201 13 -5 10 -7 64 -4 120 l5 103 48 -36 c56 -41
109 -54 128 -30 24 28 3 69 -69 139 -38 37 -76 80 -84 96 -18 34 -32 111 -21
111 5 0 34 -25 66 -56 55 -51 62 -55 101 -52 39 3 43 6 46 31 3 22 -8 39 -56
90 -33 34 -77 91 -97 127 -55 95 -81 120 -126 120 -34 0 -39 -4 -67 -52 -17
-29 -63 -91 -104 -137 -103 -117 -107 -125 -84 -150 35 -39 72 -26 158 57 26
25 50 43 54 39 12 -12 -18 -107 -48 -149 -17 -24 -63 -75 -104 -113 -75 -71
-91 -104 -62 -133 25 -25 63 -13 130 42 36 30 68 53 71 50 2 -3 3 -53 1 -112
-2 -58 -4 -110 -4 -114 0 -4 -161 -7 -357 -7 -291 0 -362 3 -377 14 -17 13
-18 23 -12 112 9 127 30 218 63 268 15 22 80 94 145 159 65 66 118 124 118
128 0 5 19 30 43 56 70 76 96 160 128 412 6 47 19 119 30 160 17 69 23 79 77
130 99 93 236 200 258 200 11 0 49 -24 85 -54z m-2535 -378 c15 -24 30 -44 34
-46 36 -14 41 -27 28 -75 -6 -26 -17 -47 -23 -47 -18 1 -72 64 -84 99 -12 38
-15 94 -4 104 13 14 23 6 49 -35z"/>
</g>
</svg>
