<?xml version="1.0" standalone="no"?>
<!DOCTYPE svg PUBLIC "-//W3C//DTD SVG 20010904//EN"
 "http://www.w3.org/TR/2001/REC-SVG-20010904/DTD/svg10.dtd">
<svg version="1.0" xmlns="http://www.w3.org/2000/svg"
 width="512.000000pt" height="512.000000pt" viewBox="0 0 512.000000 512.000000"
 preserveAspectRatio="xMidYMid meet">

<g transform="translate(0.000000,512.000000) scale(0.100000,-0.100000)"
fill="#ffffffb8" stroke="none">
<path d="M2790 4481 c-115 -35 -232 -137 -275 -237 -27 -64 -27 -67 -17 -158
20 -179 100 -273 288 -342 67 -24 142 -31 159 -16 6 5 33 17 60 27 115 41 187
110 240 229 55 125 22 284 -82 393 -68 70 -173 113 -275 112 -40 0 -84 -4 -98
-8z m220 -169 c25 -15 60 -49 78 -76 28 -43 32 -56 32 -115 0 -42 -7 -80 -19
-107 -34 -74 -133 -134 -223 -134 -87 0 -193 65 -224 139 -17 40 -18 146 -1
183 20 47 95 117 135 127 20 5 46 12 57 15 41 10 121 -5 165 -32z"/>
<path d="M2754 3604 c-30 -29 -300 -174 -325 -174 -17 0 -149 -80 -149 -90 0
-12 133 -75 150 -72 43 10 317 140 376 179 28 19 60 46 71 62 21 28 50 108 42
115 -2 2 -33 5 -69 8 -62 3 -67 2 -96 -28z"/>
<path d="M2149 3233 c-57 -61 -85 -103 -114 -176 -26 -66 -26 -71 -14 -135 17
-95 54 -199 84 -238 42 -55 56 -58 135 -33 39 13 70 25 70 28 0 4 -16 17 -35
30 -52 35 -104 136 -112 214 -8 90 7 125 88 209 38 39 69 72 69 73 0 2 -12 6
-26 9 -15 4 -41 18 -59 32 -17 13 -36 24 -41 24 -6 0 -26 -17 -45 -37z"/>
<path d="M2331 2581 l-73 -28 50 -37 c28 -20 77 -48 109 -61 78 -32 368 -180
416 -213 29 -19 77 -74 113 -130 5 -8 137 24 141 34 5 12 -54 104 -99 155 -38
44 -130 107 -204 140 -38 17 -127 59 -199 94 -71 35 -141 66 -155 69 -14 3
-57 -7 -99 -23z"/>
<path d="M3025 2026 l-50 -11 3 -73 c2 -47 -3 -94 -13 -130 -25 -84 -122 -211
-192 -251 -16 -9 -14 -14 26 -48 72 -62 66 -62 141 14 122 125 206 334 186
466 -8 53 -11 54 -101 33z"/>
<path d="M2640 1480 c-17 -10 -162 -78 -290 -136 -47 -21 -111 -55 -143 -76
-33 -20 -68 -40 -79 -43 -33 -11 -15 -29 59 -58 l70 -28 49 29 c27 15 108 55
179 87 72 32 137 64 145 70 8 7 31 18 50 25 19 8 50 23 67 35 l33 22 -28 24
c-31 29 -78 59 -89 58 -4 0 -15 -4 -23 -9z"/>
<path d="M1968 1083 c-26 -27 -65 -73 -87 -103 -35 -46 -41 -62 -41 -102 0
-42 3 -50 24 -59 42 -19 72 -3 120 64 24 34 73 90 109 124 l64 62 -63 31 c-34
16 -67 30 -71 30 -5 0 -30 -21 -55 -47z"/>
</g>
</svg>
