<svg xmlns="http://www.w3.org/2000/svg" width="24" height="24" viewBox="0 0 24 24" fill="none" stroke="currentColor" stroke-width="2" stroke-linecap="round" stroke-linejoin="round">
  <g transform="translate(4, 23) scale(0.0039, -0.0039)">
    <path vector-effect="non-scaling-stroke" d="M2235 5481 c-171 -33 -284 -72 -424 -147 -201 -107 -303 -200 -596 -544 -110 -129 -294 -345 -410 -480 -278 -325 -282 -329 -358 -446 -383 -584 -387 -1225 -13 -1857 152 -257 282 -422 925 -1182 282 -332 306 -359 413 -454 120 -107 243 -182 368 -223 89 -30 105 -32 240 -32 167 -1 226 11 359 74 235 112 434 348 526 623 14 42 53 193 86 335 33 141 71 302 85 357 13 55 35 145 48 200 44 184 154 637 246 1010 148 607 198 816 214 895 85 421 3 832 -240 1202 -81 123 -288 335 -404 414 -174 119 -348 198 -528 240 -151 36 -393 42 -537 15z"/>
    <path vector-effect="non-scaling-stroke" d="M2380 4519 c-164 -31 -320 -150 -394 -298 -111 -222 -69 -470 108 -647 122 -121 251 -171 421 -161 205 11 383 133 471 322 73 157 71 312 -6 481 -40 89 -158 206 -252 252 -112 54 -236 73 -348 51z"/>
    <path vector-effect="non-scaling-stroke" d="M1435 3282 c-157 -54 -273 -183 -306 -340 -14 -70 -6 -199 17 -267 30 -85 63 -136 240 -362 178 -228 281 -364 455 -598 132 -178 206 -252 295 -296 63 -31 76 -34 159 -34 78 0 97 4 140 27 95 50 163 147 184 263 25 132 7 395 -43 666 -66 351 -164 487 -561 772 -141 102 -229 151 -311 172 -78 20 -206 19 -269 -3z"/>
  </g>
</svg>