<svg version="1.0" xmlns="http://www.w3.org/2000/svg" width="600.000000pt" height="600.000000pt" viewBox="0 0 600.000000 600.000000" preserveAspectRatio="xMidYMid meet" style="width: 498px; height: auto;"> <g transform="translate(0.000000,600.000000) scale(0.100000,-0.100000)" fill="#000000" stroke="none" class="">  <path d="M4145 5293 c-269 -42 -541 -210 -683 -421 -49 -73 -372 -619 -372 -629 0 -5 71 -79 158 -166 l158 -158 118 203 c276 474 300 511 362 573 265 263 709 209 898 -108 151 -254 81 -592 -156 -760 -58 -41 -598 -361 -677 -402 l-34 -17 159 -159 c87 -87 163 -159 167 -159 8 0 207 116 510 297 278 167 445 377 519 653 33 126 33 388 0 510 -96 350 -370 625 -717 720 -79 22 -330 36 -410 23z" class=""></path> <path d="M1960 4959 c-98 -39 -159 -175 -116 -257 18 -33 2232 -2245 2263 -2261 114 -58 277 74 258 208 -6 45 -24 63 -1128 1170 -658 658 -1135 1129 -1154 1137 -37 16 -87 17 -123 3z" class=""></path>  <path d="M2295 3835 c-53 -19 -120 -91 -135 -144 -25 -95 -62 -52 758 -874 449 -450 763 -757 786 -769 141 -73 321 107 248 248 -12 23 -319 337 -769 786 -834 833 -784 790 -888 753z" class=""></path> <path d="M1885 3432 c-103 -50 -155 -167 -111 -250 18 -33 2232 -2245 2263 -2261 115 -58 278 74 258 208 -6 45 -24 63 -1118 1159 -612 612 -1124 1122 -1139 1133 -40 29 -105 34 -153 11z" class=""></path> <path d="M1446 2731 c-164 -97 -334 -205 -377 -239 -150 -120 -274 -311 -336 -517 -38 -128 -40 -394 -5 -525 95 -348 372 -627 717 -722 120 -33 393 -33 515 0 233 63 458 221 587 412 44 66 363 608 363 617 0 5 -71 79 -159 167 l-158 158 -38 -69 c-95 -170 -360 -613 -394 -658 -167 -222 -503 -284 -750 -138 -315 188 -368 633 -106 897 62 62 99 86 573 362 l203 118 -158 158 c-87 87 -162 158 -168 157 -5 0 -145 -80 -309 -178z" class=""></path>  </g> </svg>