<svg version="1.0" xmlns="http://www.w3.org/2000/svg"  width="408.000000pt" height="562.000000pt" viewBox="0 0 408.000000 562.000000"  preserveAspectRatio="xMidYMid meet"> <g transform="translate(0.000000,562.000000) scale(0.100000,-0.100000)" fill="#000000" stroke="none"> <path d="M2235 5481 c-171 -33 -284 -72 -424 -147 -201 -107 -303 -200 -596 -544 -110 -129 -294 -345 -410 -480 -278 -325 -282 -329 -358 -446 -383 -584 -387 -1225 -13 -1857 152 -257 282 -422 925 -1182 282 -332 306 -359 413 -454 120 -107 243 -182 368 -223 89 -30 105 -32 240 -32 167 -1 226 11 359 74 235 112 434 348 526 623 14 42 53 193 86 335 33 141 71 302 85 357 13 55 35 145 48 200 44 184 154 637 246 1010 148 607 198 816 214 895 85 421 3 832 -240 1202 -81 123 -288 335 -404 414 -174 119 -348 198 -528 240 -151 36 -393 42 -537 15z m410 -285 c250 -45 455 -155 650 -351 156 -156 258 -315 326 -510 47 -138 63 -243 63 -415 -1 -168 -6 -202 -83 -515 -22 -93 -75 -309 -116 -480 -111 -454 -188 -773 -339 -1398 -74 -307 -146 -593 -161 -636 -27 -83 -99 -208 -160 -279 -86 -99 -230 -184 -346 -203 -121 -20 -262 5 -365 66 -121 71 -241 190 -481 476 -48 58 -203 242 -344 410 -294 351 -414 502 -511 647 -256 381 -363 721 -329 1045 25 243 105 457 256 682 67 99 910 1087 1003 1173 248 233 613 345 937 288z"/> <path d="M2380 4519 c-164 -31 -320 -150 -394 -298 -111 -222 -69 -470 108 -647 122 -121 251 -171 421 -161 205 11 383 133 471 322 73 157 71 312 -6 481 -40 89 -158 206 -252 252 -112 54 -236 73 -348 51z m230 -315 c140 -76 181 -261 87 -392 -66 -93 -182 -133 -294 -101 -64 17 -153 105 -172 169 -21 70 -16 146 14 206 68 139 230 191 365 118z"/> <path d="M1435 3282 c-157 -54 -273 -183 -306 -340 -14 -70 -6 -199 17 -267 30 -85 63 -136 240 -362 178 -228 281 -364 455 -598 132 -178 206 -252 295 -296 63 -31 76 -34 159 -34 78 0 97 4 140 27 95 50 163 147 184 263 25 132 7 395 -43 666 -66 351 -164 487 -561 772 -141 102 -229 151 -311 172 -78 20 -206 19 -269 -3z m235 -293 c102 -46 378 -255 475 -360 94 -103 127 -189 167 -443 28 -182 33 -476 7 -501 -18 -19 -53 -13 -84 13 -38 32 -132 148 -224 277 -98 135 -239 319 -429 558 -132 166 -172 238 -172 309 0 61 28 119 72 147 44 28 127 28 188 0z"/> </g> </svg>