<?xml version="1.0" standalone="no"?>
<!DOCTYPE svg PUBLIC "-//W3C//DTD SVG 20010904//EN"
 "http://www.w3.org/TR/2001/REC-SVG-20010904/DTD/svg10.dtd">
<svg version="1.0" xmlns="http://www.w3.org/2000/svg"
 width="512.000000pt" height="512.000000pt" viewBox="0 0 512.000000 512.000000"
 preserveAspectRatio="xMidYMid meet">

<g transform="translate(0.000000,512.000000) scale(0.100000,-0.100000)"
fill="#1b1f3b" stroke="none">
<path d="M2475 4420 c-143 -50 -287 -134 -374 -218 -80 -76 -123 -107 -176
-125 -44 -16 -141 -60 -254 -116 -57 -28 -82 -47 -111 -86 -43 -58 -72 -113
-90 -170 -7 -22 -23 -61 -37 -87 -27 -55 -60 -140 -108 -278 -18 -52 -56 -144
-84 -204 -29 -60 -56 -126 -61 -145 -5 -20 -30 -94 -55 -166 -73 -205 -92
-281 -105 -410 -6 -67 -25 -170 -42 -235 -17 -63 -33 -131 -35 -150 -30 -263
-63 -424 -108 -525 -48 -106 -63 -219 -38 -276 22 -50 50 -67 188 -114 61 -20
115 -41 120 -45 13 -10 171 -60 193 -60 9 0 40 -12 67 -26 28 -13 77 -31 110
-40 33 -8 67 -16 75 -19 8 -2 67 -20 130 -40 183 -59 283 -58 510 7 58 16 143
34 190 39 47 5 119 13 160 18 41 5 124 19 184 31 59 11 121 18 136 15 15 -3
47 -8 69 -10 23 -2 67 -9 98 -16 37 -7 99 -9 173 -5 63 3 239 9 390 12 151 3
304 10 340 14 234 32 247 37 275 90 21 40 33 149 34 295 0 66 6 207 11 313 6
105 8 197 5 202 -4 6 -5 146 -4 313 5 737 3 829 -15 883 -9 29 -32 67 -50 86
-58 60 -272 118 -436 118 -41 0 -81 4 -88 8 -21 14 -51 78 -88 186 -20 56 -43
112 -53 126 -38 54 -62 117 -106 273 -13 49 -34 107 -47 130 -27 49 -103 109
-167 133 -64 23 -209 93 -216 104 -3 5 -27 16 -53 26 -26 9 -72 34 -103 55
-160 107 -243 127 -354 89z m136 -141 c20 -20 21 -28 14 -123 -4 -59 -2 -138
5 -189 21 -170 16 -221 -29 -319 -22 -47 -44 -89 -49 -92 -6 -3 -24 -32 -41
-65 -29 -57 -30 -63 -35 -227 -4 -158 -7 -176 -38 -274 -26 -81 -52 -133 -112
-228 -105 -165 -118 -203 -106 -299 14 -112 -6 -196 -66 -276 -53 -70 -75
-111 -97 -182 -20 -60 -39 -200 -42 -311 -4 -129 -15 -183 -53 -269 -41 -91
-46 -152 -23 -291 7 -44 11 -98 9 -120 -3 -38 -4 -39 -45 -42 -24 -2 -55 4
-72 12 -16 9 -46 16 -65 16 -19 0 -58 9 -86 20 -28 11 -61 20 -73 20 -61 0
-61 55 3 315 26 110 46 203 44 207 -10 16 -44 7 -58 -15 -8 -12 -26 -53 -40
-92 -35 -99 -117 -298 -129 -313 -14 -17 -49 -15 -109 8 -29 11 -73 25 -97 31
-24 5 -78 25 -119 44 -41 19 -89 35 -106 35 -78 0 -94 51 -51 161 14 35 32 98
41 139 8 41 18 93 23 115 39 169 51 230 61 295 6 41 22 127 35 190 13 63 29
163 35 223 13 125 38 229 73 307 14 30 48 122 77 204 28 82 66 186 85 230 19
45 43 113 53 152 11 38 34 107 52 154 18 47 42 112 55 145 12 33 39 88 61 121
21 34 47 76 56 93 9 17 32 37 50 45 54 24 99 43 188 81 47 20 106 45 132 57
25 11 53 18 60 15 8 -3 30 -43 48 -88 28 -69 35 -100 38 -174 3 -79 0 -102
-27 -186 -19 -58 -53 -133 -87 -189 -78 -130 -94 -180 -104 -338 -14 -207 -40
-271 -169 -407 -137 -144 -150 -167 -114 -207 24 -27 40 -22 60 20 10 20 64
82 121 137 89 86 109 111 142 180 41 87 60 180 60 295 0 86 21 150 87 262 67
115 120 242 127 308 16 152 1 238 -63 368 -45 89 -45 85 12 139 70 66 147 116
243 158 92 40 126 43 155 14z m167 -67 c43 -30 221 -122 235 -122 13 0 169
-81 220 -115 20 -13 29 -35 46 -109 12 -51 28 -101 35 -112 7 -10 32 -66 55
-124 23 -58 49 -119 57 -136 9 -17 19 -46 24 -65 5 -19 15 -53 21 -76 18 -59
-3 -89 -68 -98 -27 -4 -102 -21 -168 -37 l-119 -31 -66 17 c-111 29 -135 29
-169 0 -37 -31 -38 -37 -51 -364 -6 -169 -6 -278 1 -325 6 -46 6 -93 0 -140
-6 -40 -11 -170 -12 -291 -1 -236 -14 -645 -24 -812 -10 -145 -10 -146 -195
-177 -80 -14 -181 -30 -225 -35 -216 -25 -258 -31 -265 -35 -16 -10 -38 35
-59 120 -33 140 -28 190 35 335 26 61 28 74 29 220 1 146 3 161 34 259 24 75
48 127 90 191 69 104 87 171 78 286 -6 86 14 162 63 229 148 205 185 314 196
588 6 154 9 171 30 200 35 49 97 137 116 166 32 49 42 165 24 272 -19 117 -31
278 -22 313 8 31 19 32 54 8z m1107 -1070 c143 -9 192 -25 229 -75 21 -28 21
-35 19 -635 -1 -334 -4 -746 -8 -917 -6 -307 -6 -310 -31 -348 -13 -20 -29
-37 -34 -37 -5 0 -58 -7 -117 -15 -72 -10 -182 -14 -328 -14 -121 1 -292 0
-380 -1 -150 -2 -261 9 -296 31 -15 9 -15 -27 -10 554 1 220 0 416 -4 435 -3
19 -1 82 5 140 6 58 14 233 16 390 3 157 8 321 12 365 l7 80 105 -3 c85 -3
133 3 255 27 83 16 164 32 180 34 34 6 187 1 380 -11z"/>
<path d="M1467 2803 c-6 -10 -53 -206 -62 -258 -10 -56 -77 -211 -124 -287
-43 -67 -50 -106 -66 -325 -7 -85 -6 -92 13 -102 26 -14 48 -5 56 22 3 12 11
76 16 142 13 143 17 156 69 235 78 118 103 183 151 402 32 150 30 178 -19 178
-16 0 -32 -3 -34 -7z"/>
<path d="M3198 2899 c-38 -33 -68 -67 -68 -74 0 -27 32 -47 66 -41 41 8 43 2
37 -100 -6 -92 4 -124 42 -124 13 0 27 6 32 13 4 6 13 86 18 177 10 164 10
165 -12 188 -12 12 -28 22 -35 22 -7 0 -43 -28 -80 -61z"/>
<path d="M3553 2809 c-59 -17 -77 -80 -28 -99 12 -5 104 -11 205 -14 201 -7
230 -1 230 49 0 41 -23 53 -112 59 -176 12 -264 13 -295 5z"/>
<path d="M3228 2370 c-45 -8 -76 -34 -94 -77 -23 -54 -19 -73 17 -73 22 0 40
9 60 31 37 40 65 36 62 -9 -1 -22 -16 -51 -45 -88 -105 -134 -119 -165 -94
-199 13 -18 24 -20 121 -17 115 3 140 10 150 43 11 33 -16 53 -72 51 -79 -1
-82 8 -28 74 69 85 78 110 61 175 -9 34 -24 62 -41 76 -27 24 -36 25 -97 13z"/>
<path d="M3574 2212 c-6 -4 -17 -18 -24 -31 -10 -20 -9 -26 9 -45 20 -19 32
-21 164 -21 160 1 222 14 233 47 5 16 0 27 -16 40 -19 15 -43 17 -189 17 -91
0 -171 -3 -177 -7z"/>
<path d="M3153 1728 c-68 -42 -22 -125 47 -85 33 20 52 21 68 5 9 -9 8 -16 -5
-30 -9 -10 -22 -18 -28 -18 -21 0 -65 -41 -65 -60 0 -25 16 -34 75 -40 45 -4
50 -8 53 -31 6 -49 -44 -70 -126 -53 -63 13 -96 -48 -44 -83 66 -45 115 -53
173 -29 46 19 68 45 85 102 19 65 18 101 -7 135 -19 27 -20 34 -8 78 15 59 2
102 -37 120 -41 18 -144 12 -181 -11z"/>
<path d="M3557 1583 c-27 -31 -21 -52 21 -70 30 -13 69 -16 196 -15 166 1 186
6 186 46 -1 49 -7 51 -202 54 -170 4 -184 2 -201 -15z"/>
</g>
</svg>
