<?xml version="1.0" standalone="no"?>
<!DOCTYPE svg PUBLIC "-//W3C//DTD SVG 20010904//EN"
 "http://www.w3.org/TR/2001/REC-SVG-20010904/DTD/svg10.dtd">
<svg version="1.0" xmlns="http://www.w3.org/2000/svg"
 width="512.000000pt" height="512.000000pt" viewBox="0 0 512.000000 512.000000"
 preserveAspectRatio="xMidYMid meet">

<g transform="translate(0.000000,512.000000) scale(0.100000,-0.100000)"
fill="currentColor" stroke="none">
<path d="M2570 4443 c-66 -5 -219 -52 -298 -92 -262 -132 -412 -422 -372 -721
15 -114 34 -177 86 -287 46 -98 52 -123 32 -123 -27 0 -180 59 -191 73 -7 8
-28 25 -47 36 -59 35 -113 28 -260 -34 -72 -30 -159 -62 -193 -70 -68 -18
-276 -88 -304 -104 -48 -25 -63 -56 -74 -147 -5 -49 -9 -114 -9 -144 1 -30 -1
-185 -4 -345 -3 -159 -7 -564 -9 -898 -3 -569 -2 -610 15 -637 30 -50 77 -49
188 5 25 13 63 28 85 35 22 7 45 17 52 22 7 5 45 22 85 38 40 16 135 53 212
83 154 61 131 60 251 7 22 -10 58 -23 80 -30 22 -7 86 -32 142 -56 57 -24 109
-44 117 -44 9 0 64 -23 123 -51 308 -145 354 -153 519 -93 54 20 119 45 144
56 25 11 90 36 145 55 55 19 105 38 110 42 6 4 44 20 85 36 41 15 107 43 145
60 39 18 94 42 121 54 l51 22 116 -45 c63 -25 141 -60 173 -78 33 -18 86 -44
119 -57 33 -13 92 -39 130 -56 96 -45 108 -48 154 -35 68 18 69 25 75 376 8
447 8 594 2 1024 -10 718 -12 732 -108 774 -53 23 -240 100 -373 152 -38 15
-110 47 -159 71 -49 23 -100 43 -112 43 -13 0 -96 -29 -185 -65 -149 -60 -199
-75 -199 -59 0 4 11 27 25 53 43 80 96 259 105 357 17 191 -21 350 -119 500
-57 88 -144 174 -208 207 -17 9 -76 33 -130 53 -102 37 -197 48 -333 37z m233
-144 c85 -11 130 -34 228 -115 91 -76 131 -134 173 -252 29 -83 30 -93 28
-227 -3 -123 -6 -146 -28 -200 -14 -33 -29 -73 -34 -90 -4 -16 -36 -82 -70
-145 -34 -63 -75 -139 -91 -169 -16 -30 -37 -64 -47 -75 -10 -12 -33 -44 -51
-73 -18 -28 -39 -57 -47 -64 -9 -7 -25 -31 -36 -53 -11 -23 -35 -58 -52 -78
-55 -66 -82 -102 -107 -140 -13 -21 -26 -38 -29 -37 -3 0 -30 32 -60 71 -30
38 -63 78 -74 89 -10 10 -24 26 -30 37 -6 10 -30 46 -54 78 -106 145 -253 390
-311 517 -89 193 -110 334 -71 472 40 142 158 308 255 357 22 11 53 30 70 42
16 11 61 31 100 43 78 23 217 29 338 12z m742 -1130 c8 -35 9 -1096 2 -1539
-2 -165 -9 -296 -15 -311 -7 -18 -24 -31 -54 -41 -59 -21 -163 -62 -288 -113
-58 -23 -125 -48 -150 -55 -25 -6 -60 -21 -78 -32 -19 -12 -66 -31 -105 -43
-40 -13 -88 -30 -108 -39 l-37 -15 -6 92 c-3 51 -5 380 -5 732 l2 640 41 58
c22 32 62 86 88 120 26 34 75 103 107 152 121 181 185 261 226 283 22 11 78
32 125 47 47 14 119 41 160 60 41 19 78 35 82 35 3 0 9 -14 13 -31z m-1921
-55 c-1 -38 -4 -456 -6 -929 -3 -473 -9 -870 -13 -881 -5 -16 -26 -28 -73 -44
-37 -13 -83 -31 -103 -41 -20 -10 -58 -27 -85 -37 -27 -11 -100 -41 -163 -66
-63 -25 -118 -46 -122 -46 -5 0 -6 161 -4 357 5 415 5 772 0 893 -6 134 14
672 25 685 5 6 42 22 82 35 40 13 100 33 133 45 33 12 83 28 112 34 28 7 84
25 125 41 40 15 78 27 83 26 6 -2 10 -33 9 -72z m206 39 c36 -17 119 -53 185
-79 132 -53 177 -90 235 -188 34 -57 146 -214 261 -363 l76 -99 -2 -694 c-3
-850 0 -760 -28 -760 -12 0 -33 7 -46 16 -25 18 -137 66 -261 114 -41 16 -111
43 -155 60 -44 17 -111 43 -150 57 -38 15 -83 34 -100 45 -16 10 -37 18 -46
18 -30 0 -44 31 -46 104 -5 178 -9 1716 -5 1759 3 26 8 46 11 44 3 -1 35 -17
71 -34z m1959 -3 c55 -22 104 -40 107 -40 21 0 298 -126 319 -146 24 -22 25
-28 25 -141 2 -736 -1 -1747 -6 -1754 -9 -15 -44 -10 -72 9 -15 10 -65 33
-112 51 -47 19 -116 48 -155 66 -38 18 -100 47 -137 63 -54 24 -69 36 -75 59
-4 15 -7 267 -5 558 5 885 4 984 -3 1153 -5 106 -4 162 3 162 5 0 55 -18 111
-40z"/>
<path d="M2530 4045 c-102 -33 -141 -68 -198 -179 -44 -86 -47 -95 -47 -171 0
-112 38 -191 124 -259 70 -55 104 -70 187 -85 76 -14 168 6 231 50 23 16 45
29 50 29 19 1 99 136 120 205 28 87 -13 225 -93 313 -107 119 -216 147 -374
97z m236 -157 c71 -54 99 -109 99 -198 0 -77 -24 -123 -82 -162 -53 -35 -98
-48 -160 -48 -48 0 -60 5 -109 42 -68 51 -82 78 -89 165 -4 55 -1 79 17 127
21 55 27 62 78 87 43 22 69 28 123 29 64 0 71 -2 123 -42z"/>
</g>
</svg>
